<?xml version="1.0" encoding="utf-8"?>
<!-- Generator: Adobe Illustrator 26.1.0, SVG Export Plug-In . SVG Version: 6.00 Build 0)  -->
<svg version="1.1" id="Capa_1" xmlns="http://www.w3.org/2000/svg" xmlns:xlink="http://www.w3.org/1999/xlink" x="0px" y="0px"
	 viewBox="0 0 285.7 423.2" style="enable-background:new 0 0 285.7 423.2;" xml:space="preserve">
<style type="text/css">
	.st0{filter:url(#Adobe_OpacityMaskFilter);}
	.st1{fill:url(#SVGID_1_);}
	.st2{mask:url(#OBJECTS_00000178195611481916109780000014956328966403309498_);}
	.st3{fill:#B5B49C;}
	.st4{fill:#A2A183;}
</style>
<g id="BACKGROUND">
</g>
<defs>
	<filter id="Adobe_OpacityMaskFilter" filterUnits="userSpaceOnUse" x="10.8" y="3.8" width="268.8" height="415.1">
		<feColorMatrix  type="matrix" values="1 0 0 0 0  0 1 0 0 0  0 0 1 0 0  0 0 0 1 0"/>
	</filter>
</defs>
<mask maskUnits="userSpaceOnUse" x="10.8" y="3.8" width="268.8" height="415.1" id="OBJECTS_00000091000156631827438840000008447188751301549476_">
	<g class="st0">
		<linearGradient id="SVGID_1_" gradientUnits="userSpaceOnUse" x1="160.3145" y1="1.4514" x2="124.8841" y2="427.7818">
			<stop  offset="0.7639" style="stop-color:#FFFFFF"/>
			<stop  offset="0.7679" style="stop-color:#F1F1F1"/>
			<stop  offset="0.7851" style="stop-color:#B9B9B9"/>
			<stop  offset="0.8028" style="stop-color:#888888"/>
			<stop  offset="0.8206" style="stop-color:#5E5E5E"/>
			<stop  offset="0.8387" style="stop-color:#3C3C3C"/>
			<stop  offset="0.857" style="stop-color:#222222"/>
			<stop  offset="0.8758" style="stop-color:#0F0F0F"/>
			<stop  offset="0.8951" style="stop-color:#040404"/>
			<stop  offset="0.9161" style="stop-color:#000000"/>
		</linearGradient>
		<rect class="st1" width="285.7" height="423.2"/>
	</g>
</mask>
<g id="OBJECTS" style="mask:url(#OBJECTS_00000091000156631827438840000008447188751301549476_);">
	<g>
		<g>
			<path class="st3" d="M194.6,24.5c-3.1,3.3-5.3,7.4-7.3,11.4c0,0-1.5,3-1.5,3c-0.8,1.4-1.4,3.4-3.3,3.6c-1.2,0-2.1-0.8-3.1-1.3
				c0,0-1.5-0.8-1.5-0.8c-4-2.2-8.5-3.2-13.1-3.2c-19.7,0.4-32.8,16.3-35.4,34.9c-2.3,16.6,0.5,40,18,47.2
				c14.5,5.9,24.7-7.8,34.9-15.7c14.8-11.5,23.7-2.6,38.6,1.1c13.6,2.7,26.9-4,38-11.3c5.6-3.7,11.3-7.9,14.3-14.1
				c2.9-6.1,2.6-13.7-0.9-19.4c-3.5-5.8-10-9.7-16.8-9.9c-5.7-0.2-11.3,1.9-16.9,0.9c-3.9-0.5-6.9-2.9-5-7c0.9-2.1,2.4-3.8,3.6-5.8
				c4.7-8,1.2-18.9-6.1-24.1C219.7,6.3,203.3,16.3,194.6,24.5L194.6,24.5z M194.6,24.5c7.6-7.2,19.5-14.6,30.3-13
				c6.9,1.1,12.1,7.1,13.8,13.6c1.2,4.4,0.9,9.3-1.4,13.2c-1.6,2.8-4.6,5.5-4,9c1.8,5.2,11.2,3.6,15.4,3c4.5-0.7,9.2-0.9,13.5,0.9
				c11.2,4.2,16.5,17.5,11.3,28.3c-3,6.3-8.8,10.5-14.4,14.2c-11.1,7.4-24.5,14.2-38.3,11.5c-14.8-3.6-23.6-12.6-38.2-1.2
				c-10.3,8-20.6,21.7-35.3,15.7c-17.7-7.3-20.4-30.8-18.1-47.6c2.6-18.7,15.8-34.7,35.6-35c4.5,0,9.1,0.9,13.1,3.2
				c0,0,1.5,0.9,1.5,0.9c0.9,0.6,1.9,1.4,3.1,1.3c1.9-0.2,2.5-2.2,3.3-3.6c0,0,1.6-3,1.6-3C189.4,31.9,191.5,27.8,194.6,24.5
				L194.6,24.5z"/>
		</g>
		<g>
			<path class="st3" d="M83.2,216.9c-4.1-12.2-8.4-25-17.9-34.2c-9.3-9.1-22.8-13.5-35.7-12c-4,0.7-8.9,1-11.8,4.2
				c-8.5,11.5,29.1,41.5,37.3,49.2c3.4,2.8,11.1,10.4,14.9,12.5c3.7,2.4,8.8,2.3,11.8-1.1C86.1,230.4,85,222.8,83.2,216.9
				L83.2,216.9z M83.2,216.9c1.9,5.9,3,13.5-1.3,18.7c-3.1,3.4-8.3,3.5-12,1.1c-3.8-2.1-11.6-9.7-15-12.5
				c-8.4-7.9-46.4-37.7-37.5-49.6c3.1-3.3,7.9-3.6,12.1-4.3c13-1.4,26.5,3.1,35.9,12.3C74.9,191.8,79.1,204.6,83.2,216.9L83.2,216.9
				z"/>
		</g>
		<path class="st4" d="M92.4,221.2c-0.9-14.7-1.9-30-8.8-43.1c-8.9-16.9-27.7-28.1-46.9-27.9c-2.4,0-4.9,0.3-7,1.6
			c-4.7,3.2-4,10.3-2.2,15.8c5.2,15.9,14.6,30.1,23.8,44c4.8,7.3,9.6,14.6,14.5,21.8c2.9,4.4,6.4,9.3,11.6,10.4
			c4.2,0.9,8.9-1.1,11.1-4.8C90.7,235.5,92.9,230.6,92.4,221.2z"/>
		<path class="st4" d="M190.4,19.4c-3.8,4.8-5.7,10.7-8.1,16.3c-0.4,1.1-1,2.2-2.1,2.6c-1.1,0.4-2.3-0.3-3.4-0.9
			c-13-7-30.3-1.1-39.1,10.8s-10,27.9-7,42.3c1.6,7.5,4.4,14.9,9.5,20.5c5.2,5.6,13.1,9.2,20.5,7.6c14.8-3,21.5-22.9,36.3-25.7
			c8.8-1.6,17.4,3.4,26.2,4.5c13.9,1.7,27.1-6.4,38-15.2c4.9-3.9,9.7-8.3,12.1-14.1c2.6-6.4,1.8-14.1-2.2-19.7
			c-4-5.7-10.9-9.1-17.8-8.8c-6.3,0.3-12.5,3.4-18.6,2.1c-1.2-0.2-2.4-0.7-3.2-1.6c-2.4-2.7,0.4-6.7,2.2-9.9
			c3.5-6.3,1.8-14.4-2.7-19.9C217.1-6.7,194.2,14.6,190.4,19.4z"/>
		<path d="M143.5,201.6L143.5,201.6C143.5,201.7,143.4,201.7,143.5,201.6z"/>
		<path d="M279.5,143.2c0-0.4-0.3-0.6-0.6-0.8c-0.4-0.3-0.8-0.7-1.3-1c-1.5-1.1-2.9-2.2-4.4-3.2c-6.8-4.8-14.2-8.6-22.1-11.2
			c-5.2-1.7-10.6-2.4-16-2.9c-3.4-0.4-6.9-0.7-10.4-0.9c-4.4-0.1-8.7-0.2-13.1-0.4c-3.6,0-6.6,0.1-10.3,0.6c-2,0.3-4,0.6-5.9,1.2
			c-3.1,1.1-6,2.7-8.9,4.2c-2,1.1-4,2.1-5.9,3.4c-2.1,1.4-4,3-5.9,4.6c-1.6,1.4-3.1,2.8-4.3,4.5c-1.2,1.6-2.2,3.4-3,5.3
			c-1.8,4-2.4,8.4-3.3,12.7c-1.2,6.2-2.2,6.2-3.7,7.1c-1.4,0.9-2.9,1.6-4.5,2.3c-1.2,0.5-2.8,1.1-3.6,1.3c-1.5,0.4-4,1-5.8,1.9l0,0
			c3.8-9.4,8.6-18.5,13.4-27.5c2.2-4.4,4.2-9.1,6.5-13c2-3.5,4.3-6.9,6.8-10.1c1.9-2.6,4-5.2,6.1-7.2c1.6-1.7,3.3-3.3,4.8-5
			c2.5-2.9,5-5.9,8.2-7.8c2.7-1.6,5.9-2.4,8.6-3.2c1.7-0.5,3.4-0.9,5.1-1.7c1.2-0.7,2.3-1.5,3.3-2.4c0.4-0.4,0.9-0.8,1.3-1.2
			c0.1,0,0.1,0,0.2,0c2.1-1,4.1-0.9,6.6-0.7c2,0.2,3.9,0.3,5.9,0.4c4,0.1,8-0.5,11.8-1.6c1.4-0.5,2.8-0.9,4.1-1.6
			c2.3-1.2,4-3.1,5.8-4.8c2-1.8,4.1-3.3,6.2-4.5c3.8-2.1,7.9-3.9,11.3-6.7c2.6-2,4.5-4.7,6.3-7.4c2.3-3.4,4.3-6.8,6.5-10.2
			c0.9-1.4,1.8-2.8,2.8-4.1c0.2-0.3,0.4-0.5,0.6-0.8c0.1-0.3-0.1-0.6-0.4-0.6c-0.6,0-1.1,0.2-1.7,0.2c-2,0-4.5-0.6-6.6-1.1
			c-3.4-0.9-6.8-2.2-10.3-2.9c-6.1-1.1-12.3,0.4-18.2,2c-2.5,0.7-5,1.5-7.2,2.2c-2.8,0.9-5.7,1.9-8.2,3.3c0.9-3.5,1.1-7.2,1.4-11
			c0.3-3,0.7-6.1,0.5-9.2c-0.3-4.9-1.5-8.8-4.3-12.8c-1.6-2.3-3.6-4.4-5.7-6.2c-1.5-1.3-3.2-2.5-4.8-3.7c-2-1.5-3.4-3.1-5.1-4.7
			c-1-0.8-1.5,0.1-2.1,0.8c-0.6,0.6-0.9,1-1.6,1.6c-3.6,2.8-8.6,4.2-12.5,7.1c-2.1,1.5-3.8,3.4-5.3,5.5c-1.2,1.9-2.1,4-2.7,6.2
			c-0.5,1.8-0.8,3.7-1.2,5.5c-0.4,2.1-0.8,3.5-1.3,5.6c-0.6,2.5-1.1,5.1-1.3,7.7c0,0.8-0.1,1.6-0.1,2.4c-2.3-2-4.6-4-7.3-5.5
			c-2.9-1.7-6-3-9.1-4.4c-2.8-1.2-6.2-3.2-9.3-2.6c-1.1,0.3-2,0.9-2.9,1.5c-1.4,0.9-2.8,2-4.2,2.9c-3.6,2.3-7.2,4.7-10,7.9
			c-2.7,3.2-4.2,7.1-5.7,10.9c-0.9,2.5-1.7,5.1-2.1,7.7c-0.3,2.9-0.2,5.9,0.1,8.8c0.7,7.2,1.7,13.7,6.9,19.2c1.5,1.6,3.2,3,5,4.3
			c1.4,1,2.8,2,4.3,2.9c1.8,1.1,3.7,2.2,5.6,3.1c1.8,0.9,3.1,1.6,5,2.7c2,1.2,3.8,2.8,5.9,3.9c1.1,0.6,2.3,1.5,3.3,0.6
			c-0.2,1.5-0.4,2.9-0.4,4.4c-0.2,2.9,0.1,5.7,0,8.4c-0.1,1.8-0.5,2.9-1,4.8c0,0.1,0,0.2,0,0.2c-0.9,2.2-2.2,4.4-3.5,6.6
			c-2.6,4.7-5.5,9.2-8.3,13.8c-2.2,3.6-4.3,7.3-5.9,11.2c-1.1,2.7-2,5.5-3.3,8.1c-1,2-3,4.9-4.4,7.2c-1,1.6-1.9,3.3-2.7,5
			c-1,2.2-1.9,4.6-3,6.7c-0.6,1.2-2.9,5.6-3.5,6.5c0-0.3,0-0.6,0-1c0-1-0.1-2.1-0.2-3.1c-0.8-7.8-1.8-7.7,3.7-13.2
			c1.9-1.9,3.8-3.9,5.7-5.9c2.5-2.8,4.5-6,5.9-9.5c0.8-2.2,1.3-4.4,1.7-6.7c0.6-3.5,1.1-7,0.6-10.5c-0.9-5.3-2.5-10.5-4.8-15.3
			c-1.5-3.5-3.4-6.9-6-9.8c-2.7-3-6.1-5.3-9.3-7.8c-2.1-1.6-4.3-3.3-6.6-4.6c-1.8-1-3.6-1.8-5.5-2.5c0-0.1,0-0.1,0-0.2
			c0.7-6-0.3-11.6-2.8-17c-1.5-3.2-3.1-6.3-5-9.2c-1.8-2.8-3.8-5.4-5.8-7.9c-1.8-2.2-3.6-4.5-5.5-6.7c-1.6-1.7-3.3-3.4-5-5
			c-0.5-0.4-1-1-1.7-1.2c-0.8-0.2-1.5,0.4-2,0.9c-0.6,0.7-1.2,1.6-1.8,2.3c-1.6,2.1-3,3.6-5,5.3c-1.9,1.5-3.8,3-5.7,4.5
			c-2,1.5-3.8,3.2-5.3,5.2c-2.2,2.9-3.8,6.2-5.1,9.6c-2.9,7-4.1,14.7-3.3,22.2c0.3,3.5,1.1,6.9,2.4,10.1c0.7,1.9,1.8,3.7,2.8,5.4
			c1,1.8,2.1,3.6,3.1,5.4c1.1,1.9,2.2,3.8,3.5,5.6c2.2,2.7,4.8,4.8,5.8,8c0.6,1.6,1.1,3.2,1.7,4.8c0.5,1,0.9,2,1.6,2.8
			c0.5,0.4,1.1-0.1,1.4-0.5c0.2-0.3,0.3-0.6,0.4-0.9c-0.2,2-0.4,4-0.2,6c0.3,2.7,1.4,5.2,2.3,7.6c1,3,2,6.1,3,9.1
			c1,3.6,2.4,8.5,3.1,12.6c0.5,3.3,0.5,6.6,0.8,9.9c0.3,4.3,0,9.1,0.5,13.7c0.3,3.4,0.9,6.9,1.3,10.3c0.3,3.7,0.4,6.9,0.4,10.5
			c0,1.1,0,2.7-0.2,3.5c-0.9-0.7-2.3-2.3-3.5-3.3c-3.2-2.4-3.9-2.6-3.3-6.7c0.6-3.7,1.6-7.3,2.2-11c0.4-3.1,0.4-6.2,0.4-9.4
			c-0.1-6.2-1.1-12.5-3.8-18.2c-1.1-2.1-2.4-4.2-3.9-6.1c-1.4-1.8-3.1-3.4-4.7-5c-1.8-1.7-3.6-3.4-5.6-4.9c-2.7-1.9-5.8-3.5-8.9-4.6
			c-1.7-0.6-3.5-1-5.3-1.5c-1.9-0.6-3.8-1.3-5.7-2c-2.7-1-5.3-2.4-8.1-3.3c-1.6-0.5-3.3-0.6-5-0.6c-3.2,0-6.4,0.6-9.5,0.9
			c-5.5,0.5-11.5,0.9-16.6,1c-0.5,0-0.9,0-1.4,0c0.1,0,0.2,0,0,0c-0.3,0-0.6,0-0.8,0.3s-0.1,0.6,0.1,0.9c0.3,0.3,0.6,0.6,0.8,1
			c1,1.1,1.9,2.3,2.8,3.5c1.5,2,3,3.9,4.4,5.9c1.9,2.8,3.9,5.6,5.7,8.5c1.6,2.7,3.4,5.4,5.1,8.1c1.5,2.3,2.8,4.6,4.6,6.7
			c3.3,4.2,7.4,7.7,10.4,12.2c2.4,3.4,4.2,8.5,6.6,12.5c1.1,1.8,2.4,3.5,3.7,5.2c1.8,2.4,3.9,4.6,6.4,6.3c2.9,2,6.4,2.9,9.9,3.3
			c1.3,0.2,2.6,0.2,3.9,0.2c1.4,0.1,2.8,0.1,4.2-0.2c1.5-0.3,3-0.8,4.3-1.7c1.6-1,2-2.5,1.4-4.2c-0.5-1.6-1.3-3.1-2.1-4.6
			c-1.2-2.5-2.5-4.8-3.9-7.2c-1.7-3.2-3.5-6.3-5.5-9.3c-2-2.8-4.2-5.4-6.6-7.9c-2.2-2.1-4.6-4-6.9-6c-2.5-2.3-5.2-4.4-7.8-6.6
			c-3.2-2.9-5.9-5.7-9.2-8.8c-2.3-2.3-4.1-5-6.5-7.2c-1.1-1-2.4-1.6-3.6-2.3c-0.7-0.3-1.4-0.6-2.1-0.9c0.3,0.1,0.6,0.2,0.9,0.3
			c3,1,5.3,2.1,7.8,3.7c1.6,0.9,3.1,2.1,4.5,3.3c1.6,1.3,2.6,2.3,3.9,3.8c1.5,1.6,2.5,3.6,4,5.2c2,2.4,4.5,4.4,6.8,6.5
			c1.5,1.4,3,2.9,4.7,4.4c3.2,2.8,5.8,5.3,8.7,8.6c1.2,1.3,2.5,2.7,3.6,4.1c1.1,1.5,1.8,2.6,2.7,4.3c1.4,2.7,2.3,5.6,3.4,8.5
			c1.1,2.7,2.3,5.2,3.4,7.9c0.4,1,0.9,2.1,1.6,3c1.3,1.7,3.1,3.1,4.4,4.9c3.7,5.4,5,12.4,3.3,19.2c-1.4,6.1-4.5,13.5-7.1,19.8
			c-1,2.4-2.1,4.7-2.9,7.1c-0.9,2.9-1.5,5.8-2,8.8c-0.6,3.8-1.5,7.5-2.1,11.3c-0.2,1.1-0.3,2.1-0.5,3.2c0,0.1,0,0.1,0,0.2
			c-0.3,1.7-0.7,3.3-1,5c-0.7,2.7-1.7,6.5-2.5,9.7c-1.8,6.7-3.5,13.5-5.3,20.2c-1.7,6.4-2.4,11.7-4.6,18c-2.9,8.2-6.7,16.1-10.2,24
			c-0.7,1.6-1.4,3.2-2.1,4.8c-0.2,0.5-0.4,0.9-0.6,1.4c-0.1,0.2-0.1,0.4,0.1,0.5c0.1,0.1,0.3,0.2,0.5,0.1s0.2-0.2,0.3-0.4
			c0.2-0.5,0.4-0.9,0.6-1.4c0.6-1.3,1.2-2.6,1.8-4c3.6-8.2,7.6-16.2,10.5-24.6c2-5.7,3-11.3,4.3-16.5c1.6-6.2,3.2-12.4,4.8-18.7
			c1-3.8,2-7.7,3-11.5c0.5-2.1,1-4.3,1.3-6.5c0.1-0.1,0.1-0.2,0.1-0.3c0.1-0.4,0.1-0.8,0.2-1.2c0.2-1.4,0.4-2.9,0.7-4.3
			c0.4-2.2,0.9-4.3,1.3-6.5c0.3-1.9,0.6-3.7,1-5.6c0.5-2.8,1.4-6,2.8-9c1.6-3.8,3.2-7.6,4.7-11.4c1.6-3.9,3-8,3.9-12.1
			c1.6-6.5,0.7-13.6-2.9-19.3c-1.3-2.2-4.1-4.4-5.2-6.2c-0.9-1.6-1.5-3.3-2.2-4.9c-0.7-1.6-1.5-3.2-2.1-4.8
			c-1.1-2.8-1.9-5.7-3.3-8.4c-0.8-1.7-1.8-3.3-2.9-4.8s-2.4-2.8-3.6-4.1c-3-3.5-6.4-6.7-10-9.7c-1.7-1.5-3.2-3.1-5.1-4.8
			c-2.2-1.9-3.9-3.5-5.8-5.7c-1.3-1.6-2.4-3.5-3.8-5c-1.2-1.4-2.5-2.6-3.9-3.8c-1.5-1.3-3.1-2.4-4.8-3.4c-2.7-1.7-5.7-3-8.8-3.9
			c-1.2-0.3-2.4-0.5-3.7-0.7c-1.6-0.3-3.1-0.6-4.7-0.9c-0.4,0-0.7,0.4-0.4,0.7c0.1,0.1,0.2,0.2,0.3,0.2c0.4,0.1,0.7,0.3,1.1,0.4
			c1.7,0.6,3.5,1,5.2,1.5c1.1,0.3,2.2,0.8,3.3,1.3c1.4,0.7,2.6,1.2,3.9,2.4c2.1,1.9,4.4,5.3,6.8,7.5c3,3,6.1,6,9.2,8.9
			c2.9,2.5,5.9,5,8.8,7.5c2.3,2,4.6,3.8,6.5,5.9c1.8,2,3.6,4.1,5.1,6.3c2,2.9,3.5,5.4,5.2,8.5c1.7,2.9,3.4,5.8,4.8,8.8
			c0.8,1.6,1.6,3.2,1.8,4.4c0.4,1.6-1.1,2.4-3.3,3.2c-1.8,0.6-3.9,0.8-6.1,0.6c-3.2-0.1-5.9-0.5-8.7-1.4c-4.6-1.5-7.9-5-10.9-9.1
			c-1.4-1.9-2.6-3.5-3.5-5.4c-2.3-4.4-4-9.1-7.1-13c-3.1-4.2-7.1-7.6-10.2-11.8c-1.4-1.9-2.6-4-3.9-5.9c-2-3-3.8-6-5.7-9
			c-1.6-2.3-3.2-4.7-4.8-7c-1.3-1.8-2.7-3.6-4.1-5.5c-1-1.3-2.7-3.5-3.6-4.5c5-0.1,11.2-0.5,16.6-0.9c5.9-0.4,11.6-2.1,16.9,0.3
			c3.8,1.7,7.6,3.3,11.6,4.6c2.5,0.8,5.2,1.3,7.6,2.4c2.6,1.1,4.4,2.1,6.7,3.7c2.1,1.5,4,3.5,5.6,5c3.6,3.4,6.6,7.1,8.6,11.4
			c3.3,7.9,3.7,16.7,3,25.3c-0.4,3.3-1.2,6.6-1.9,9.9c-0.3,2-0.9,4.1-0.2,6c0.4,1.1,1.4,1.8,2.3,2.4c1.7,1.2,2.9,2.4,4.2,3.7
			c0.4,0.3,0.7,0.8,1.2,0.9c0.2,0.1,0.4,0,0.6-0.2c0.1-0.2,0.1-0.4,0.2-0.5c0.2-0.9,0.3-1.7,0.3-2.6c-0.1-4.2-0.1-8.5-0.5-12.7
			c-0.7-5.4-1.5-10.7-1.5-15.9c0-1.8,0-3.7-0.1-5.5c-0.1-1.7-0.2-3.4-0.4-5.1c-0.2-2.3-0.2-4.7-0.6-7s-1-4.6-1.6-6.9
			c-0.6-2.5-1.3-5-2.1-7.5c-1-2.9-1.8-5.8-2.9-8.6c-1.2-2.9-1.7-5-1.8-7.3c0.1,0.6,0.3,1.2,0.4,1.8c0.9,3.4,2.4,6.5,4.3,9.3
			c0.1,0.3,0.2,0.6,0.3,1c0.6,2,1.6,4.6,2.1,6.2c0.6,2.6,0.9,5.3,1.3,7.9c0.3,2,0.8,4,1,6.1c0.3,2.3,0.6,4.6,0.8,6.9
			c0.3,2.9,0.4,5.9,0.6,8.8c0.3,5.5,0.7,10.4,0.6,15.8c0,3-0.1,5.9,0.2,8.9c0.3,3,0.8,5.9,1.1,8.9c0.6,6.1,0.7,12-0.3,18.2
			c-1,5.9-2.9,11.4-5,17.2c-1.3,3.6-2.7,7.2-3.9,10.9c-1,2.8-2.1,5.6-2.7,8.5c-0.1,0.5-0.1,1.1,0.1,1.6c0.1,0.2,0.3,0.3,0.6,0.3
			c0.2,0,0.3-0.2,0.5-0.3c0.9-1.4,1.5-3,2.1-4.6c0.8-2.2,1.6-4.4,2.5-6.7c1.9-5.1,3.9-10.1,5.9-15.1c1-2.5,1.9-4.9,2.8-7.4
			c0.1-0.1,0.1-0.3,0.2-0.5c0.5-1.1,1.1-2.1,1.6-3.2c0.7-1.5,1.3-3.1,1.9-4.7c1-2.4,2-4.7,3-7c1.6-4,3.4-8,5.1-12
			c0.8-2,1.8-3.8,2.5-5.9c1.2-3.3,2.7-6.5,4.4-9.6c1.3-2.5,2.3-4.6,4-6.9c1.2-1.7,2.5-3.3,3.6-5.1c2.5-4,2.6-5.7,1.8-12
			c-0.2-1.9-0.6-3.8-0.7-5.7c-0.1-0.9,0-2.2-0.1-3.4c-0.1-1-0.4-2-0.8-2.9c-0.8-2.5-1.7-4.9-2.8-7.2c-0.9-2-2-3.9-2.9-5.8
			c-0.7-1.6-1.2-3.4-1.8-5c-0.7-1.9-1.1-4-1.5-6.3s-0.7-4.6-1-6.9c-0.2-1.7-0.4-3.5-0.8-5.2c-0.3-1.3-1-3.1-1.2-3.9
			c-0.7-2.6-1.5-5.1-2.4-7.6c-0.8-2.4-1.8-4.7-2.7-7.1c-0.2-0.5-0.4-1-0.5-1.5c2.8-4.9,5.1-10.2,6.1-15.8c2.2,0.8,4.4,1.9,6.1,2.9
			c2.2,1.4,4.3,3,6.4,4.6c3.6,2.8,6.9,5,9.6,8.6c2.2,2.8,3.7,6.1,5.3,9.6c1.4,3.1,2.3,6.1,3.1,9.1c0.8,3.3,1.3,6.2,1,9.4
			c-0.2,1.8-0.5,3.7-0.8,5.5c-0.5,3-1.2,5.6-2.9,8.7c-0.5,1-1.5,2.7-2.4,4c-1,1.4-2.2,2.7-3.3,4c-1.4,1.5-2.4,2.5-4,4.2
			c-1.4,1.5-3,2.9-4,4.7c-1.4,2.3-0.5,5.8-0.3,7.7c0.2,1.6,0.4,3.4,0.4,4.7c0,0.8-0.2,1.7,0,2.6c0.1,0.3,0.5,0.5,0.7,0.3
			c0.3-0.2,0.4-0.4,0.6-0.7c0.5-0.7,0.9-1.4,1.3-2.1c0.4-0.6,1.1-2.1,1.2-2.2c0.6-1.1,1.1-2.3,1.7-3.5c1.4-2.6,2.4-5.4,3.8-8
			c1.3-2.6,3.6-5.9,5.3-8.7c2.3-3.8,3.4-8.1,5.3-12c2.1-4.5,4.7-8.5,7.5-13c1.7-2.7,3.4-5.5,5-8.3c1.2-2.1,2.1-3.6,3.2-5.9
			c0.5-1.1,1-2.3,1.3-3.5c0.1-0.3,0.1-0.6,0.2-0.9l0,0c0.2-0.7,0.3-1.4,0.4-2.2c0.1-1.1,0.1-2.8,0-3.4c0-2.3-0.1-4.6,0.1-6.9
			c0.1-2.1,0.5-4.2,0.5-6.3c0-3.1-0.6-6.2-0.9-9.4c-0.3-3.5-0.5-7.1-0.8-10.7c-0.1-2.2-0.1-4.4-0.4-6.9c-0.7-5-2.1-9.9-3.4-14.8
			c-0.4-1.6-0.7-3.2-1.1-4.8c-0.6-2-1.2-3.7-1.6-5.5c-0.7-2.8-0.9-5.6-1.4-8.4c-0.2-0.9-0.4-1.9-0.7-2.8c-0.2-0.5-0.3-1.2-0.8-1.4
			c-1.6-0.4-1.1,2.2-1.1,3.1c0.2,2.9,0.8,5.8,1.4,8.6c0.6,3,1.4,6,2.2,9c0.5,1.9,0.8,3.8,1.2,5.6c0.5,2.8,1.1,5.6,1.3,8.5
			c0.4,4.8,0.4,9,0.7,13.6c0.2,4.2,1.2,8.4,2.5,12.4c0.4,1.1,0.7,2.2,1,3.4c0.5,1.3,0.8,3-0.3,3.2c-0.5,0.1-2.1-0.9-3.5-1.9
			c-1.6-1.1-3.1-2.3-4.7-3.3c-2.1-1.3-5-2.7-6.7-3.6c-3.5-2-6.9-4.2-10-6.7c-5.2-4.4-7.6-9.2-8.6-16.2c-0.6-4.6-1.2-8.8-0.7-13.3
			c0.3-2.6,1.1-5,2.1-7.7c1.5-3.7,2.7-7,5-10.1c2.5-3.1,6.2-5.7,9.8-8c1.6-1.1,3.6-2.5,5-3.4c1.5-0.9,2.4-1.4,4-1
			c2.6,0.4,5.8,2.3,8.6,3.4c3.3,1.4,6.1,2.7,9,4.6c1.8,1.2,3.4,2.6,5,4c0.3,0.3,0.7,0.6,1,0.9c0.1,1,0.2,2,0.5,3
			c0.9,3.2,2.7,6.2,4.5,9c1.3,1.9,2.7,3.7,4.3,5.4c0.3,0.3,0.6,0.5,0.9,0.8c0.3,1,0.6,1.9,0.8,2.8c0.4,1.4,0.9,2.9,1,4.4
			c0.2,2-0.1,4.7-0.7,7c-0.2,0.7-0.8,2.9-1.3,4c-1,2.2-2.6,4.4-4.3,6.6c-2.2,2.7-4.1,5.1-6.6,7.3c-1.1,1-2.3,1.9-3.5,2.8
			c-1.2,1-2.4,2-3.6,2.9c-1.8,1.5-4.1,2.8-4.9,5.1c-0.2,0.4-0.4,1.7-0.3,2.8c0.3,3.3,0.8,6.1,0.3,9.4c0,0.3-0.1,0.6-0.1,0.9
			c0.1,0.3,0.4,0.5,0.7,0.3c0.3-0.3,0.5-0.7,0.8-1c0.5-0.7,1.1-1.4,1.6-2.1c1.4-1.8,2.8-3.5,4.3-5.1c2.3-2.6,4-4.3,6.4-6.8
			c2.7-2.8,4.6-4.8,7-7.2c3.3-3.3,7.3-5.8,10.6-9c2.1-2,3.8-4.4,5.2-7c0.2-0.4,1.8-3.3,1.4-6.6c0-0.8-0.1-1.7-0.2-2.5
			c0-0.9,0-1.9,0-2.9c0.3-3.7,1.2-7.4,1.2-11.2c0-5.2-0.7-10.5-1.3-15.7c-0.2-2.1-0.2-3.9-0.2-6c0-1.6-0.2-3.8-0.1-5.5
			c0.1-3.5,0.7-7,1.3-10.5c0.3-1.5,0.4-3,0.7-4.6c0.4-2.3,1-4.5,1.4-6.3c0.1-0.7,0.3-1.3,0.4-2c0-0.3,0.1-0.7,0.1-1.1
			c-0.1-0.3-0.4-0.5-0.7-0.3s-0.4,0.6-0.5,0.9c-1.1,2.8-1.8,5.8-2.6,8.7c-1.7,6.2-2.7,12.5-2.4,18.9c0.1,3.6,0.8,7.1,1.1,10.6
			c0.2,3,0,7.5,0.3,11.3c0.1,2.2,0.2,3.9,0.2,6.2c0,1.7,0,3.5-0.2,5.2c0,0.1,0,0.2,0,0.3c-1.3-0.4-2.6-0.7-3.9-1
			c-1.7-0.5-3.9-1.3-5-2c-1.3-0.8-2.4-1.7-3.5-2.6c-0.8-2.6-1.6-5.3-2.3-7.9c-0.5-2.1-1.4-4-2.8-5.6c-1.3-1.5-3-2.7-4.5-4
			c-0.2-0.1-0.3-0.3-0.5-0.4c-0.1-2.1,0.1-4.1,0.4-6.4c0.4-3,1.1-5.2,1.8-8.1c0.8-3.2,1-6.2,2.1-9c1.2-3.5,3.2-6.3,6-8.7
			c1.7-1.4,3-2.1,4.9-3.1c3.6-1.9,7.7-3.3,10.4-6.5c0.1-0.2,0.3-0.3,0.4-0.5c0.1-0.1,0.2-0.2,0.2-0.3l0.1-0.1l0,0
			c0,0,0.2,0.1,0.2,0.2c2,1.9,3.5,3.5,5.8,5.1c4.9,3.5,9.2,7.6,11.8,12.8c1.6,3.1,2.1,7.1,2.1,10.3c0,2.7-0.4,5.3-0.6,8
			c-0.3,3.8-0.6,7.6-1.6,11.2c-2.6,1.7-4.7,4.1-6.5,6.7c-1.6,2.2-3.2,4.5-4.3,7c-2.5,1.8-5.2,3.4-7.4,5.6c0,0-1.8,1.5-1.4,4.1
			c0.3,2.4,0.8,4.2,0.5,6.6c-0.4,2.6-2.6,5.2-4.7,7.6c-1.8,1.9-3.7,4-5.9,5.8c-0.5,0.4-1,0.7-1.4,1.1c-0.2,0.2-0.4,0.3-0.5,0.6
			c-0.1,0.2,0,0.5,0.2,0.6c-1.5,0.7-2.8,1.5-4.1,2.6c-2.5,2-4.5,4.6-6.6,7c-1.8,2-4.3,4.2-6.3,6.5c-4.3,5.1-8.2,10.5-11.4,16.3
			c-1.9,3.3-3.4,6.8-5.1,10.2c-1.4,2.9-3,5.8-4.5,8.6c-2.4,4.6-4.7,9.3-6.9,14c-1.2,2.5-2.2,5.1-3.3,7.6c-0.1,0.2,0,0.5,0.3,0.6
			c0.2,0.1,0.3,0,0.5-0.1s0.3-0.2,0.5-0.3c2.3-1.1,4.2-1.5,6.6-2.2c2.4-0.8,4.8-1.8,7.1-3c4.4-2.3,4.2-4.9,5-8.4
			c0.7-3.5,1.1-5.7,2.1-9.1c1.4-4.3,3.8-8.5,6.7-11.3c2.3-2.2,4.8-4.3,7.4-6.1c2.1-1.4,5.1-2.9,7.8-4.2c2.5-1.3,5.6-2.7,7.8-3.3
			c3.3-0.9,6.8-1.2,10.2-1.4c4.1-0.2,9.3,0.1,13.9,0.1c4.5,0,9,0.3,13.4,0.8c3.4,0.3,6.7,0.6,10.1,1.3c7.4,1.4,15.4,4.9,21.9,8.6
			c3.3,1.9,6.4,4.1,9.5,6.4c0.8,0.6,1.6,1.2,2.3,1.8c-0.4,0.1-0.9,0.3-1.3,0.5c-1.5,0.6-2.6,1.8-3.6,3.1c-1.2,1.4-2.1,2.4-3.5,3.7
			c-2.8,2.8-5.8,5.5-8.7,8.1c-3.9,3.6-8,6.9-12.5,9.2c-9.5,4.9-19.6,7.2-29.7,10.3c-7.4,2.4-15.4,4.5-23.1,3.7
			c-5.3-0.6-10-2-15.2-3.6c-3.3-1.1-7.1-2.7-9.7-4.2c-1.8-0.9-3.4-2.1-5.1-3.1c-0.5-0.3-1-0.5-1.3-0.7c0.6-0.3,1.3-0.5,1.9-0.7
			c2.2-0.8,4.2-1.4,6.4-1.9c2.4-0.6,4.8-0.9,7.2-1.3c4.3-0.8,8.7-1.7,12.8-3.3c4.6-1.6,9.2-3.4,13.9-4.8c2.5-0.7,5.7-1.7,8.5-2.4
			c2.7-0.7,5.3-1.2,8-1.8c4-0.9,8.1-1.6,12.1-2.7c2.7-0.6,5.4-1.4,8.2-2c3.6-0.7,7.3-1.4,11.1-1.6c0.5,0,0.9-0.1,1.4-0.2
			c0.3-0.1,0.6-0.2,0.6-0.5c0-0.2-0.1-0.4-0.3-0.5c-0.5-0.1-1.1,0-1.7,0c-0.9,0.1-1.8,0.2-2.6,0.3c-5.9,0.7-11.6,2-17.4,3.1
			c-6.8,1.3-13.7,2.6-20.5,4.1c-2.8,0.6-5.6,1.3-8.4,1.9c-11.2,2.7-22.3,5.7-33.3,9.1c-3.8,1.2-7.6,2.2-11.6,3.7
			c-0.3,0.1-2.7,0.8-3.4,1.1c-1.8,0.6-3.5,1-5.4,1.9c-1.9,0.8-3.8,1.7-5.6,2.6c-1.1,0.6-2.3,1-3.2,1.8c-1.4,1.1-2.4,2.5-3.5,3.9
			c-1,1.4-2.1,2.7-2.9,4.2c-2.1,3.8-3.5,8-5.4,11.9c-1.3,2.7-3.4,5.7-5.3,8.5c-2.3,3.5-4.2,7.2-6.3,10.8c-2,3.6-4.1,7.1-5.9,10.8
			c-1.1,2.4-1.9,5-2,7.6c0,1.1,0.2,3.2,2.3,2.1c0.7-0.4,1.4-0.8,2.1-1.2c1.3-0.8,2.7-1.6,3.7-2.7c1.2-1.4,1.9-3.2,2.5-5
			c2-5.6,1.4-8.6,5.6-13.2c1.2-1.3,2.3-2.5,3.9-3.7c2-1.6,4.2-2.8,6.2-4.4c1.6-1.3,3.1-2.7,4.8-3.9c0.1-0.1,0.3-0.2,0.4-0.2l0.1-0.1
			c0.4-0.2,0.8-0.5,1.2-0.7c0.9-0.5,1.9-0.9,2.8-1.2c2.1-0.7,5.2-1.2,7.4-1.2c2.4,0,4.4,0.2,6.5,1.1c2.7,1.2,5.1,2.8,7.9,4.2
			c2.3,1.2,4.7,2.3,7.1,3.3c2.3,0.9,5.6,1.7,7.6,2.1c0.5,0.1,1.3,0.3,1.5,0.5c-0.2,0.2-0.8,0.7-1.2,1c-0.9,0.7-1.8,1.5-2.8,2.2
			c-1.8,1.4-3.6,2.9-5.2,4.6c-2.5,2.6-4.7,5.5-7.1,8.1c-1.4,1.6-3.5,3.4-5.5,4.8c-3.4,2.4-6.8,4.4-10.8,6.1
			c-2.2,0.9-4.3,1.8-6.3,2.3c-1.8,0.4-3.2,0.3-4.9,0.4c-2.1,0.1-3.7,0.2-5.6,0.2c-3.5,0-6.9-0.4-10.3-0.9c-1.9-0.3-3.8-0.5-5.7-1
			c-0.7-0.2-1.3-0.2-1.8-0.4c0.3-0.3,0.7-0.6,1.1-0.9c1.7-1.4,3.5-2.7,5.4-4.1c3.1-2.2,6.2-4.3,9.4-6.3c3-2,6.1-3.6,9.3-5.2
			c3.8-1.8,7.5-3.7,11.4-5.4c1.4-0.6,2.8-1.2,4.2-1.8c0.4-0.2,0.9-0.4,1.3-0.5c0.2-0.1,0.5-0.2,0.7-0.4c0.1-0.2,0.1-0.5-0.1-0.6
			c-0.2-0.1-0.4-0.1-0.6,0c-0.6,0.1-1.2,0.2-1.9,0.3c-5.4,1.1-10.3,3.5-15.1,6.2c-2.6,1.5-5.2,2.9-7.7,4.5c-2.6,1.7-5.1,3.5-7.7,5.3
			c-2.5,1.8-5,3.5-7.6,5.1c-1.6,0.9-3.2,1.8-4.7,2.7c-6,3.7-7.2,6.4-10,12.6c-1.8,4-3.3,8.1-4.9,12.2c-2.9,7.5-5.7,15.2-8.8,22.6
			c-2.9,6.8-6.2,13.4-8.8,20.3c-2,5.3-3.4,10.8-4.8,16.3c-1.1,4.3-2.3,8.6-3.1,13c-0.7,4.1-1.1,8.2-2.1,12.2
			c-1.4,6.7-4.3,14.2-7.1,20.9c-2,4.8-4.3,9.5-6.3,14.3c-2.1,5-4.2,10.1-6.4,15c-2.7,6.4-5.2,12.8-7.7,19.3c-0.5,1.3-1.1,2.7-1.7,4
			c-0.1,0.3,0,0.6,0.3,0.7s0.6,0,0.7-0.3c2.6-5.9,4.7-11.9,7.2-17.8c1.5-3.7,3.1-7.3,4.7-10.9c1.7-3.9,3.2-7.9,4.9-11.8
			c4.5-10.4,9.4-20.8,12.1-31.9c0.5-2.2,1-4.3,1.3-6.5c0.5-3,1-7.1,1.6-9.6c0.9-3.7,1.8-7.3,2.8-10.9c0.9-3.6,1.8-7.1,2.9-10.6
			c1.6-5,3.6-9.8,5.8-14.5c1.7-3.8,3.5-7.7,5.1-11.5c1.7-4.1,3.3-8.2,4.9-12.4c3.1-8,5.9-16.2,9.6-24.1c0.9-2.1,2.3-4.5,3.6-5.9
			c1.8-1.8,3.9-3.3,6.1-4.6c1.2-0.7,2.5-1.4,3.8-2.2c-1.1,0.9-2.2,1.8-3.3,2.7c-0.3,0.3-0.9,0.6-0.6,1.1c0.3,0.4,0.9,0.4,1.3,0.5
			c1.1,0.2,1.6,0.4,2.7,0.6c3.9,0.7,7.9,1.3,11.9,1.6c3,0.1,6,0,8.9-0.1c1.7-0.1,3.9,0,6-0.7c3.6-1.1,7.1-2.7,10.5-4.6
			c2.9-1.7,5.8-3.5,8.3-5.7c3.1-2.6,5.5-5.9,8.2-8.9c1.9-2.2,3.8-4.1,6.2-6c1.1-0.9,2.2-1.8,3.3-2.6c0.6-0.6,1.4-1,1.8-1.7
			c0.1-0.3,0-0.6-0.2-0.8c-0.3-0.3-0.7-0.4-1.1-0.5c-0.7-0.2-1.5-0.3-2.2-0.5c-1.3-0.3-2.9-0.7-4.4-1.2c-3.4-1.1-7-2.8-9.8-4.4
			c-3.1-1.6-6-3.7-9.5-4.6c-2-0.4-4.1-0.4-6.1-0.3c-2.7,0.2-5.3,0.7-7.8,1.9c-1.2,0.6-2.3,1.2-3.4,1.9c-1.9,1.4-3.6,3.1-5.5,4.5
			c-2.3,1.7-4.8,3.1-6.8,5c-3.4,3.3-5.7,6.1-6.6,10.8c-0.6,2.5-1.3,5-2.3,7.3c-0.7,1.5-1.3,2.6-2.7,3.6c-1.3,0.9-2.9,1.9-4,2.4
			c-1,0.5-1.2-0.4-1.2-0.6c-0.2-2.4,0.7-5.1,1.8-7.7c1.8-3.7,3.8-7.1,5.9-10.9c2.2-3.8,4.2-7.6,6.6-11.3c1.7-2.7,3.6-5.3,5-8.1
			c1.8-3.8,3.3-7.7,5.2-11.5c0.7-1.4,2-3.2,3.1-4.7c1.1-1.4,2-2.7,3.3-3.7c0.9-0.8,1.9-1.1,3-1.7c1.8-0.9,3.7-1.8,5.5-2.6
			c1.7-0.7,3.1-1.2,4.8-1.7c1-0.3,6.1-2,8.2-2.7c2.2-0.7,4.5-1.3,7-2.1c10.7-3.3,22.4-6.4,33.7-9.2c5-1.2,10.1-2.3,15.2-3.4
			c-2,0.4-4,0.9-6,1.3c-3.7,1-7.5,2.1-11.1,3.3c-3.2,1.1-6.4,2.3-9.6,3.4c-1.6,0.6-3.6,1.3-4.9,1.7c-2.5,0.7-5,1.3-7.6,1.8
			c-3.2,0.7-6.5,1-9.7,1.8c-2.8,0.6-5.5,1.6-8.2,2.6c-0.3,0.1-0.6,0.2-0.7,0.5c-0.1,0.3,0.1,0.6,0.3,0.7c0.3,0.2,1.6,0.8,1.5,0.8
			c1,0.5,1.8,1.2,2.7,1.8c5.4,3.5,11.5,5.7,17.7,7.3c3.3,0.9,6.6,1.7,9.9,2.1c2.7,0.3,5.4,0.2,8.1-0.1c5.1-0.6,10-1.9,14.9-3.4
			c2.4-0.8,5.3-1.6,8-2.3c6.6-1.9,13.1-3.9,19.4-6.6c3.3-1.5,6.5-3.4,9.4-5.5s5.5-4.5,8.1-6.9c2.9-2.7,5.9-5.4,8.7-8.2
			c1.6-1.5,2.8-3.6,4.5-4.7c0.5-0.3,1.1-0.5,1.6-0.7c0.3-0.1,0.6-0.2,0.9-0.3C279.3,143.5,279.5,143.4,279.5,143.2z M82.3,149.7
			L82.3,149.7c-0.8-0.7-1.5-2.7-2-3.9c-0.6-1.6-1-3.3-1.7-4.8c-1.5-3-4.4-5.1-6.1-8c-2.2-3.6-4.6-7.9-6.9-11.7
			c-2.1-3.8-3.1-7.4-3.6-11.7c-0.4-3.4-0.4-6.4,0-10c0.6-5.1,1.3-7.9,3.2-12.9c1.3-3.3,2.5-6.1,4.5-8.9c1.6-2.2,3.1-3.7,5.3-5.4
			c2-1.6,4-3.1,6-4.8c2-1.6,3.7-3.6,5.3-5.7c0.5-0.7,1-1.4,1.5-2c0.1-0.1,0.3-0.3,0.1-0.1c0.1-0.2,0.3-0.3,0.5-0.4
			c0.1-0.1,0.3-0.2,0.5-0.1c-0.1,0-0.1,0,0,0s0.1,0,0.2,0.1s0.2,0.1,0.3,0.2c0.4,0.3,0.8,0.7,1.2,1.1c1.3,1.2,3.3,3.3,4.8,4.9
			c2.2,2.6,4.4,5.4,6.5,8.1c3.2,4.1,5.8,8,8.1,12.6c1.8,3.6,3.2,6.9,3.8,10.7c0.5,2.8,0.5,5.7,0.1,8.5c-0.8-0.3-1.6-0.6-2.5-0.9
			c-2.8-0.9-5.2-1.4-8-2c-0.9-0.2-1.3-0.3-2.3-0.6c-0.7-0.2-1.5-0.4-2.2-0.2c-0.3,0.1-0.5,0.3-0.7,0.5c-0.4,0.5-0.7,1.1-0.8,1.8
			c-0.3,1-0.5,2-0.8,3c-0.9,3.5-1.4,6.5-2.8,10.3c-2.3,6.5-5.2,12.7-7.3,19.2c0-0.2,0-0.3,0.1-0.5c0.5-6.5,0.4-13-0.6-19.4
			c-0.5-4.2-0.9-8.3-0.9-12.2c0-3.7,0.4-7.3,0.6-10.9c0.3-4.5,0.5-9,0.8-13.4c0.1-1.5,0.3-3,0.5-4.5c0.1-0.5,0.1-1,0.2-1.5
			c0.1-0.3,0-0.7-0.4-0.7c-0.2,0-0.3,0.1-0.4,0.2c-0.2,0.5-0.3,1.2-0.4,1.7c-0.5,2-0.9,4.1-1.2,6.1c-0.7,3.9-1,7.9-1.4,11.8
			c-0.5,4.4-1.1,8.8-1,13.2c0,2.6,0.3,5.2,0.5,7.7c0.2,3,0.3,6.1,0.6,9.1c0.4,4.8,0.6,9,0.5,13.8c0,3.4-0.1,6.8-0.6,10.1
			C83,148.2,83,148.8,82.3,149.7z M84.6,142.6c0.2-4.3,0.2-8.7,0.1-13c-0.1-3-0.4-5.9-0.6-8.9c-0.2-2.6-0.3-5.2-0.5-7.8
			c-0.2-2.5-0.4-4.8-0.4-7c-0.1-4.5,0.6-9,1-13.6c0.2-2,0.3-4.1,0.6-6.1c0.2-1.2,0.3-2.5,0.5-3.7c-0.1,1.7-0.2,3.5-0.3,5.2
			c-0.2,4.2-0.5,8.4-0.8,12.6c-0.3,4.9,0.1,9.9,0.6,14.8c0.3,2.6,0.8,5.1,0.9,7.7c0.3,4,0.2,8.2-0.1,12.5
			C85.4,137.8,85,140.2,84.6,142.6z M85.2,147.7c0.3-4.1,1.2-7.4,2.4-11.3c1.7-5.5,4.2-10.7,6.3-16.1c1.1-3,2.2-6,2.9-9.1
			c0.6-2.9,1-5.1,1.7-7.6c0.2-0.6,0.4-0.8,0.7-1.1c0.6-0.1,1.3,0.1,2.1,0.3c0.7,0.2,1.5,0.4,2.2,0.6c3.2,0.8,5.9,1.3,9.1,2.5
			c0.4,0.1,0.8,0.3,1.3,0.4c-0.9,5.2-3,10.3-5.6,15c-0.9-2.4-1.8-4.8-2.7-7.2c-0.3-0.8-0.7-1.5-1.2-2.2c-0.3-0.3-0.5-0.8-1-0.8
			c-0.3,0-0.4,0.4-0.4,0.6c0.3,1.3,0.9,2.5,1.3,3.7c0.9,2.7,1.8,5.3,2.7,8l-0.1,0.1c-2.5,3.9-5.1,7.8-7.8,11.5
			c-2.1,2.9-4.4,5.5-6.6,8.3c-2.3,2.9-4,5.7-4.5,9.5c-0.4,2.9-0.1,5.8,0.5,8.6C86.1,157.3,84.8,152.3,85.2,147.7z M107.4,122.4
			L107.4,122.4c-0.2-0.6-0.5-1.2-0.7-1.8C107,121.2,107.2,121.8,107.4,122.4z M88.6,154.9c0.1-3.6,1.3-6.5,3.4-9.4
			c2.2-3.1,4.8-5.9,7-8.9c2.6-3.4,4.9-7,7.3-10.6c0.3-0.5,0.6-0.9,0.9-1.4c0.3,1.1,0.6,2.3,1,3.6c0.6,2.1,1.1,3.7,1.7,5.9
			c0.8,2.8,1.5,5.6,2.1,8.4c0.7,3.8,1.4,7.6,2.4,11.3c1.7,7.4,5.8,14.7,7.6,21.6c0.5,1.9,1.2,3.8,1.9,5.7c0.2,0.8,0.7,1.9,0.7,2.8
			c-0.6-0.3-1.9-1-2.6-1.3c-1.8-0.9-3.7-1-5.7-1c-2.7-0.1-4.6-0.5-7.1-1.5c-2.4-1-3.9-1.8-6-3.1c-2.4-1.5-4.8-3.1-6.8-5
			c-1.1-1-2.4-2.5-3.6-4c-0.9-1.2-1.9-2.3-2.7-3.6C89.1,161.2,88.5,158,88.6,154.9z M119.9,166.6c1,1.9,2,3.8,2.9,5.8
			c0.9,1.9,1.6,3.9,2.3,6c0.5,1.5,0.9,2.3,1,3.9c0,1.5,0,4.4,0.4,6.4c1.7,9.3,0.7,10.9-2.2,15.2c-1.6,2.3-3.4,4.6-4.8,7.1
			c-1.8,3.4-3.6,6.7-5.1,10.2c-0.7,1.6-1.2,3.3-1.9,4.9c-1.9,4.4-3.8,8.7-5.7,13.1c-1.7,4.5-3.8,8.8-5.5,13.3
			c-0.5,1.3-1.2,2.5-1.8,3.8c0,0,0,0.1-0.1,0.1c-0.1,0.1-0.2,0.1-0.2,0.3c-1.5,3.8-2.9,7.6-4.5,11.3c-1.7,4.4-3.4,8.8-5,13.3
			c-0.8,2.2-1.5,4.3-2.3,6.5c-0.4,1-0.8,2.1-1.3,2.9c0-0.1,0-0.2,0.1-0.3c0-0.1,0.1-0.3,0.1-0.4c0.5-2,1.2-3.8,1.9-5.7
			c1.4-3.8,2.7-7.7,4.2-11.5c2.3-6.1,4.4-12.2,5.6-18.6c1.2-6.8,1-13.7,0.2-20.5c-0.4-3-0.9-5.9-1-8.9c-0.2-3.3,0-7.5-0.1-11.2
			c-0.1-4-0.4-8-0.6-12c-0.2-3.5-0.3-6.9-0.8-10.4c-0.2-2-0.5-4.1-0.8-6.1c-0.3-1.9-0.7-3.8-1-5.7c-0.5-3.1-0.8-6.2-1.9-9.2
			c-0.3-0.9-0.6-1.7-0.9-2.6c0.2,0.3,0.4,0.5,0.6,0.8c1.3,1.6,2.6,3.3,4.1,4.8c3.2,3,6.8,5.4,10.7,7.4c2.2,1.1,4.6,2,7.1,2.3
			s5.3-0.1,7.3,0.8c1.2,0.5,1.7,0.9,3,1.5c0.3,0.1,0.6,0.3,0.9,0.3c1.3-0.1,0.8-2,0.6-2.9c-0.6-2.1-1.1-3.5-1.8-5.6
			c-0.5-1.6-1-3.2-1.5-4.8c-0.7-1.9-1.4-3.8-2.2-5.7C119.8,166.3,119.9,166.5,119.9,166.6z M108.2,124.3c1.6,4.1,3.4,8.7,4.5,12.5
			c0.6,2.4,1.5,4.5,2,6.7c0.8,4,1.1,8.1,1.9,12.2c0.3,2.3,1,4.6,1.8,6.8c0.3,0.9,0.6,1.8,1,2.8c-1.1-2.7-2.2-5.5-3.2-8.3
			c-1.3-4.2-2.3-9.4-3.2-14.1c-0.6-3.1-1.4-6.1-2.3-9.1c-0.5-1.9-1.1-4.2-1.6-5.7c-0.4-1.4-0.7-2.7-1.2-4.1
			c-0.1-0.2-0.1-0.3-0.2-0.5v-0.1C108,123.7,108.1,124,108.2,124.3z M165.8,108.3c-0.3-0.8-0.5-1.7-0.7-2.5c-0.9-2.9-2-6.5-2.4-10.3
			c-0.5-5.2-0.4-10.5-0.9-15.8c-0.4-4.4-1.3-8.7-2.2-13c-0.4-1.9-1-3.8-1.5-5.8c-1.1-4.4-2.1-8.9-2.6-13.5c-0.1-0.7-0.1-1.3-0.1-1.7
			c0.4,0.8,0.7,2.7,1,4c0.4,2.6,0.7,5.3,1.3,7.9c0.7,2.8,1.6,4.9,2.1,7.6c0.5,2.5,1.3,4.9,1.9,7.3c0.8,3.1,1.5,6.3,2,9.5
			c0.4,2.7,0.4,4.9,0.5,7.5c0.2,2.7,0.4,5.4,0.6,8.1c0.2,3.6,0.9,7.7,1,11C165.8,108.5,165.8,108.4,165.8,108.3z M204.7,68.1
			c0-2.6-0.1-5.1-0.3-7.7c-0.2-3-0.1-6.3-0.2-9.6c-0.1-2.3-0.5-4.6-0.8-6.9c-0.4-3.2-0.5-5.9-0.4-9c0.2-4.4,1.2-9.4,2-12.9
			c0.3-1.3,0.6-2.5,1-3.8c-0.4,2-0.8,4-1,6.1c-0.5,2.8-1,5.5-1.3,8.3c-0.4,3.9,0,7.5,0.1,11c0,2.9,0.5,5.7,0.8,8.6
			c0.3,2.8,0.6,6,0.7,8.6c0.2,3.1-0.3,6.1-0.7,9.2l0,0C204.7,69.4,204.7,68.8,204.7,68.1z M194.9,71.4c2.7,1.4,9,2.9,9.2,2.8
			c0,0.2,0,0.3,0,0.5c-0.1,1.6,0.1,3.6,0.1,5c0.1,1.6-0.1,4.1-2.9,8.4c-2.3,3.4-5,5.8-8.3,8.4c-2.3,1.7-4.5,3.6-6.5,5.7
			c-2.3,2.4-4.6,4.8-6.9,7.1c-2,2-5,5.2-7.3,8c-1.5,1.7-2.8,3.4-4.2,5.2c1.1-7.8-3.4-9.6,3.9-15.2c1.4-1,2.7-2.2,4-3.3
			c1-0.8,2-1.5,2.9-2.3c2.1-1.8,4-3.8,5.8-6c2.3-2.9,4.7-5.8,6.2-9.2c0.7-1.4,1-3,1.4-4.5c0.5-2.3,0.8-4.7,0.6-7.1
			c-0.3-2-0.9-4.1-1.5-5.8C192.6,70,193.7,70.8,194.9,71.4z M184.7,54c1.1,1.2,1.7,2.1,2.4,3.5c0.6,1.4,0.8,2.7,1.3,4.4
			c0.4,1.4,0.8,2.9,1.3,4.3c-0.7-0.7-1.3-1.5-1.9-2.3c-2.7-3.5-5.1-7.4-6.2-11.3c-0.1-0.6-0.2-1.1-0.3-1.6
			C182.5,52,183.8,53.1,184.7,54z M219.1,61.7c1.7-2.2,3-3.9,5.1-5.6c0.1-0.1,0.2-0.1,0.3-0.2c-0.6,1.6-1.3,3.1-2.3,4.5
			c-1.7,2.4-3.5,4.2-5.9,6c-0.2,0.1-0.4,0.3-0.6,0.4C216.7,65.1,217.8,63.5,219.1,61.7z M199.8,94.5c1.6-1.6,3-3.2,4.4-5
			c3-3.8,3.1-7,2.1-11.6c-0.5-2.2,1.4-4,1.6-4.2c1.8-1.6,3.7-3,5.7-4.3c-0.6,1.6-0.9,3.2-1.3,4.8c-0.6,2.5-1,5.1-1,7.7
			c0,1.6,0.3,3.1,0.5,4.6s0.4,2.6,0.4,2.6c-2.4,2-4.8,3.8-7.3,5.1c-2.2,1-4,1.4-6.4,2.1c-0.3,0.1-0.5,0.2-0.8,0.3
			C198.4,95.9,199.1,95.2,199.8,94.5z M195,99.1c1.3-0.7,2.5-1.5,3.9-2c1.6-0.5,4.2-1.1,6.1-2c2.2-1,4.1-2.5,6-3.9
			c0.7-0.5,1.4-1.1,2.1-1.7c0.6-0.5,1.3-0.9,1.9-1.4c1.7-1.5,3.6-2.8,5.4-4.1c1.8-1.4,3.5-2.8,5.3-4.1c2-1.5,4.1-2.9,6.1-4.3
			c2.4-1.8,4.7-2.9,7.3-4.5c3.3-2.1,7.3-4.9,10.2-6.7c1.5-0.9,3-1.7,4.7-2.4c1.5-0.6,3-1.1,4.5-1.7c1.8-0.7,3.4-1.5,5.2-2.2
			c1.5-0.6,3.2-1.2,4.6-2c0.2-0.1,0.3-0.3,0.3-0.5s-0.1-0.3-0.3-0.4c-0.4-0.1-0.8,0.2-1.2,0.3c-0.9,0.4-1.9,0.7-2.8,1.1
			c-2.3,0.9-4.6,1.5-6.9,2.4c-3.2,1.1-6.5,2.3-9.6,3.7c-2.2,1-4.4,2-6.4,3.3c-3.3,2.3-6.1,5.1-9.3,7.4c-3.5,2.5-7.5,4.4-11.3,6.9
			c-2.5,1.6-4.7,3.5-6.6,5.8c-0.6,0.7-1.2,1.6-1.7,2.1c-0.1-0.9-1.4-6.5,0.1-12.8c0.4-1.7,1-4.4,1.9-6.4c0.1-0.1,0.1-0.2,0.2-0.4
			c2.3-1.6,4.6-3.3,6.5-5.5c2.2-2.5,3.5-5.1,4.4-7.9c2.7-1.7,6.3-3,9-3.8c3.9-1.2,7.3-2.3,11.4-3.2c7.1-1.6,11.6-1.8,18.4,0.5
			c3.6,1.1,6.8,2.2,10.4,2.6c0.8,0.1,1.6,0.1,2.4,0c-3.2,4.4-5.8,9.2-8.9,13.7c-2.4,3.6-4.7,6.7-8.2,9c-4.3,3.1-10,5-14.3,8.6
			c-2.2,1.7-4,4-6.4,5.5c-1.1,0.8-2.9,1.5-4.5,2c-2.6,0.9-6.3,1.5-9.5,1.7c-2,0.1-4.8-0.1-7.1-0.3c-1.6-0.1-3.1-0.3-4.7-0.2
			c-2.9,0.2-5.4,2.7-6.6,3.6c-0.6,0.4-1.1,0.8-1.6,1.1c-1.1,0.5-2.8,1-3.6,1.2c-2.5,0.7-5,1.4-7.4,2.4
			C194.7,99.3,194.9,99.2,195,99.1z M214.4,87.4c0.2-0.3,0.5-0.6,0.7-0.9c1.3-1.7,2.8-3,4.8-4.4c3.1-2.2,6.3-3.9,9.5-5.9
			c-3.1,2.1-6.2,4.3-9.1,6.7c-1.8,1.4-3.8,2.6-5.5,4.2C214.7,87.2,214.6,87.3,214.4,87.4z M233.9,73.2c1.8-1.4,3.6-2.9,5.3-4.4
			c2.9-2.5,5.7-4,9.2-5.5c1.5-0.7,3.1-1.3,4.7-1.9c-0.2,0.1-0.3,0.2-0.5,0.2c-3.5,1.7-6.6,3.9-9.8,6.1c-1.6,1-3.2,2.2-4.5,2.9
			C236.8,71.5,235.3,72.3,233.9,73.2z M141,220.7c4.3-2.5,8.7-4.9,13.4-6.6c1-0.4,2-0.7,3.1-0.9c-3.9,1.6-7.7,3.5-11.5,5.3
			c-2.7,1.3-5.5,2.6-8.1,4.1c-1.4,0.8-2.8,1.7-4.2,2.6C136.1,223.6,138.5,222.1,141,220.7z"/>
	</g>
</g>
</svg>
