<?xml version="1.0" encoding="utf-8"?>
<!-- Generator: Adobe Illustrator 26.1.0, SVG Export Plug-In . SVG Version: 6.00 Build 0)  -->
<svg version="1.1" id="Capa_1" xmlns="http://www.w3.org/2000/svg" xmlns:xlink="http://www.w3.org/1999/xlink" x="0px" y="0px"
	 viewBox="0 0 715.2 706.3" style="enable-background:new 0 0 715.2 706.3;" xml:space="preserve">
<style type="text/css">
	.st0{fill:none;stroke:#CCCCCC;stroke-miterlimit:10;}
</style>
<g>
	<g>
		<path class="st0" d="M30.4,552.5C29.6,647.7,143,692.2,224.1,695.7c180.5,8,443.5-174.5,477-350
			C743.3,124.5,411.9-35.5,267.4,81.9c-42.6,34.7-31.2,62.8-178.4,331.5C48,487.8,30.7,515.6,30.4,552.5
			C30.4,552.5,30.7,515.6,30.4,552.5z"/>
	</g>
	<g>
		<path class="st0" d="M10.4,572.5c-0.5,59.3,70.1,87,120.6,89.2c112.4,5,276.2-108.7,297-218C454.4,306,248,206.4,158,279.4
			c-26.6,21.6-19.4,39.1-111.1,206.4C21.4,532.2,10.6,549.5,10.4,572.5C10.4,572.5,10.6,549.5,10.4,572.5z"/>
	</g>
	<g>
		<path class="st0" d="M416.4,47.9c-48.5,25-52.1,54.1-285.5,283c-64.8,63.4-90.6,86.7-107.1,121.9c-42.8,91,25.9,155.3,87.4,174.3
			c24.4,7.5,53.5,9.8,85.5,7.5c13.3,20.6,34.1,31.7,61.9,25.5c30.7-6.9,61.8-27.9,71.2-55.3c120.5-42.6,246-125.2,307.6-221.1
			C768,180.2,580.8-36.7,416.4,47.9C416.4,47.9,580.8-36.7,416.4,47.9z"/>
	</g>
</g>
</svg>
