<?xml version="1.0" encoding="utf-8"?>
<!-- Generator: Adobe Illustrator 26.1.0, SVG Export Plug-In . SVG Version: 6.00 Build 0)  -->
<svg version="1.1" id="Capa_1" xmlns="http://www.w3.org/2000/svg" xmlns:xlink="http://www.w3.org/1999/xlink" x="0px" y="0px"
	 viewBox="0 0 1905.97 1789.56" style="enable-background:new 0 0 1905.97 1789.56;" xml:space="preserve">
<style type="text/css">
	.st0{fill:#A4ACA3;}
	.st1{fill:#FFFFFF;}
	.st2{fill:#FFFFFF;stroke:#000000;stroke-width:3;stroke-linecap:round;stroke-miterlimit:10;}
</style>
<g>
	<g>
		<g>
			<path class="st0" d="M853.84,235.76c399.96-182.44,826.64,226.24,983.64,570.42s-92.67,729.48-492.63,911.92
				s-773.93-184.61-930.93-528.8S453.88,418.19,853.84,235.76z"/>
		</g>
	</g>
	<g>
		<g>
			<path class="st1" d="M1297.99,1179.39c0,0,176.01-514.39,366.01-164.39c-6,71-37,102-65,158s-8,75-47,146s-96,11-96,11
				s-37,41-69,31s-22-52-22-52c-31,38-97,9-79-30S1297.99,1179.39,1297.99,1179.39"/>
		</g>
		<g>
			<path d="M1397.66,1364.09c-3.72,0-7.43-0.51-11.11-1.66c-26.07-8.15-25.36-36.8-23.87-48.62c-18.53,18.61-46.07,17.62-63.8,6.54
				c-16.09-10.05-21.55-26.14-14.24-41.98c17.62-38.17,11.92-98.23,11.86-98.84l-0.03-0.32l0.11-0.31
				c0.24-0.69,24.07-69.82,62.89-139.34c22.83-40.87,46.3-73.9,69.77-98.16c29.48-30.47,59.09-47.16,87.98-49.58
				c51.79-4.36,101.63,36.85,148.11,122.46l0.21,0.39l-0.04,0.45c-4.43,52.39-22.15,82.76-42.68,117.91
				c-7.39,12.65-15.03,25.74-22.47,40.63c-12.6,25.19-15.38,42.7-18.32,61.24c-3.58,22.51-7.27,45.79-28.71,84.81
				c-11.6,21.12-25.98,32.93-42.74,35.1c-1.93,0.25-3.85,0.37-5.75,0.37c-23.64,0-43.84-18.19-48.79-23.03
				C1450.36,1338.13,1424.15,1364.09,1397.66,1364.09z M1367.97,1302.99l-1.51,6.36c-0.39,1.66-9.29,40.76,20.99,50.22
				c30.71,9.59,67.08-30.17,67.44-30.57l1.08-1.2l1.12,1.17c0.25,0.27,25.54,26.47,53.12,22.88c15.75-2.04,29.37-13.34,40.48-33.57
				c21.18-38.57,24.84-61.58,28.37-83.84c2.98-18.77,5.8-36.5,18.6-62.11c7.49-14.98,15.16-28.11,22.57-40.8
				c20.28-34.74,37.81-64.76,42.24-116.2c-45.79-84.2-94.56-124.75-145-120.51c-28.15,2.36-57.1,18.74-86.06,48.67
				c-23.29,24.06-46.6,56.87-69.3,97.51c-37.39,66.94-60.83,133.54-62.58,138.59c0.44,4.92,5.12,62.63-12.15,100.06
				c-7.92,17.17,1.57,30.98,13.1,38.18c17.8,11.12,46.05,11.47,63.37-9.76L1367.97,1302.99z"/>
		</g>
	</g>
	<g>
		<g>
			<path class="st1" d="M1306,720c6-8-166.72-174.24-205.62-227.6c-16.55-22.71-25.9-49.86-26.78-77.95
				C1071.37,343.23,1098.98,48,1098.98,48L1411,228c0,0-9,156,24,190s119,178,119,178c88,146,117,208,117,208s6,34,21,54
				s90,138,87,193s-14,52-8,82s-24,49-27,72s-22,50-46,28s-51-63-23-126s-15.61-61.08-15.61-61.08"/>
		</g>
		<g>
			<path d="M1715.64,1242.64c-5.15,0-11.53-2-18.65-8.54c-25.97-23.81-51.1-65.29-23.36-127.71c10.26-23.09,12.04-39.83,5.27-49.76
				c-6.58-9.66-19.32-9.21-19.44-9.21c-0.83,0.03-1.53-0.6-1.56-1.43c-0.04-0.83,0.6-1.53,1.43-1.56
				c0.59-0.02,14.53-0.51,22.05,10.52c7.39,10.85,5.71,28.57-5,52.67c-27.02,60.8-2.6,101.14,22.64,124.29
				c7.71,7.06,15.23,9.33,22.37,6.73c11.52-4.2,19.35-20.19,21.13-33.81c1.26-9.7,6.99-18.45,13.05-27.72
				c8.55-13.08,17.4-26.6,13.96-43.79c-3.25-16.26-1.62-22.99,1.09-34.15c2.31-9.53,5.48-22.57,6.88-48.22
				c2.87-52.64-68.26-167.43-86.7-192.02c-14.61-19.48-20.68-51.33-21.24-54.44c-1.79-3.77-32.17-67.2-116.84-207.69
				c-0.86-1.44-86.29-144.24-118.79-177.73c-32.11-33.08-25.24-176.03-24.47-190.21l-309.2-178.37
				c-2.59,27.95-27.25,296.96-25.16,363.93c0.87,27.87,10.03,54.54,26.49,77.11c18.9,25.92,70.44,79.58,115.92,126.91
				c24.45,25.45,47.55,49.5,64.25,67.79c28.25,30.95,26.69,33.02,25.44,34.69c-0.5,0.66-1.44,0.8-2.1,0.3
				c-0.58-0.44-0.76-1.22-0.45-1.85c-0.49-6.4-47.66-55.5-89.3-98.85c-45.54-47.4-97.16-101.13-116.18-127.22
				c-16.81-23.06-26.17-50.31-27.06-78.79c-2.21-70.5,25.11-363.68,25.38-366.63l0.22-2.33l2.02,1.17l312.82,180.46l-0.05,0.92
				c-0.09,1.55-8.59,155.73,23.58,188.87c32.74,33.74,118.35,176.83,119.21,178.28c87.03,144.39,116.78,207.51,117.07,208.13
				l0.08,0.18l0.04,0.2c0.06,0.34,6.12,33.88,20.72,53.36c7.02,9.36,29.45,43.39,50.38,83.58c17.73,34.04,38.53,80.83,36.92,110.4
				c-1.41,25.93-4.62,39.13-6.96,48.77c-2.61,10.76-4.19,17.25-1.07,32.86c3.68,18.4-5.51,32.44-14.39,46.03
				c-5.87,8.97-11.41,17.45-12.59,26.46c-1.84,14.07-9.84,31.42-23.08,36.24C1720.51,1242.13,1718.23,1242.64,1715.64,1242.64z
				 M1304.8,719.1C1304.8,719.1,1304.8,719.1,1304.8,719.1C1304.8,719.1,1304.8,719.1,1304.8,719.1z"/>
		</g>
	</g>
	<g>
		<g>
			<path class="st1" d="M1456,1330c0,0,20-59,22-75s14.5-123.58,14.5-123.58"/>
		</g>
		<g>
			<path d="M1456,1331.5c-0.16,0-0.32-0.03-0.48-0.08c-0.79-0.27-1.21-1.12-0.94-1.9c0.2-0.59,19.97-59.04,21.93-74.71
				c1.98-15.81,14.37-122.49,14.5-123.57c0.1-0.82,0.84-1.41,1.66-1.32c0.82,0.1,1.41,0.84,1.32,1.66
				c-0.12,1.08-12.52,107.77-14.5,123.6c-2,15.97-21.25,72.88-22.07,75.29C1457.21,1331.11,1456.63,1331.5,1456,1331.5z"/>
		</g>
	</g>
	<g>
		<g>
			<path class="st1" d="M1365,1309c0,0,28-69,28-75s12.75-80.33,9.38-100.17"/>
		</g>
		<g>
			<path d="M1365,1310.5c-0.19,0-0.38-0.04-0.56-0.11c-0.77-0.31-1.14-1.19-0.83-1.95c11.21-27.63,27.89-70.25,27.89-74.44
				c0-1.73,0.89-8.04,2.24-17.61c3.35-23.79,9.58-68.06,7.16-82.3c-0.14-0.82,0.41-1.59,1.23-1.73c0.81-0.14,1.59,0.41,1.73,1.23
				c2.5,14.71-3.54,57.6-7.15,83.23c-1.23,8.76-2.21,15.68-2.21,17.19c0,6.12-25.23,68.47-28.11,75.56
				C1366.15,1310.15,1365.59,1310.5,1365,1310.5z"/>
		</g>
	</g>
	<g>
		<g>
			<g>
				<g>
					<g>
						<path class="st1" d="M1190.03,1169.62c0,0-8.03,54.38,27.97,68.38s42.9-43.45,42.9-43.45"/>
					</g>
					<g>
						<path d="M1228.74,1241.7c-3.57,0-7.33-0.77-11.28-2.3c-15.24-5.93-25.07-19.97-28.42-40.6c-2.5-15.4-0.57-28.84-0.49-29.4
							c0.12-0.82,0.89-1.39,1.7-1.26c0.82,0.12,1.39,0.88,1.27,1.7c-0.08,0.53-7.43,53.37,27.03,66.77
							c7.76,3.02,14.69,2.76,20.59-0.78c16.28-9.76,20.24-41.13,20.28-41.45c0.1-0.82,0.83-1.41,1.67-1.31
							c0.82,0.1,1.41,0.85,1.31,1.67c-0.16,1.35-4.17,33.14-21.71,43.66C1237.01,1240.6,1233.01,1241.7,1228.74,1241.7z"/>
					</g>
				</g>
				<g>
					<g>
						<path class="st1" d="M22.5,775.5c0,0,447,171,489,206s119,146,329,146s177-47,288,14c0,0,112,55,140,53s58-41,50-79
							c0,0,116,31,157,23s31-52,17-65s63,14,71-27s-16-41-33-64c0,0,53-38,11-66s-100-87-115-110s-51-38-72-53s-67-50-105-61
							s-121-37-194-36s-113,50-315,20s-680-313-689-319"/>
					</g>
					<g>
						<path d="M1266.96,1196.05c-30.41,0-134.62-50.99-139.12-53.21c-66.43-36.5-80.57-34.17-127.43-26.43
							c-30.34,5.01-76.2,12.58-159.91,12.58c-77.77,0-146.52-15.55-204.36-46.21c-48.97-25.96-81.08-57.42-104.53-80.39
							c-8.01-7.85-14.93-14.63-21.08-19.75C469.21,948.21,26.43,778.61,21.96,776.9c-0.77-0.3-1.16-1.16-0.87-1.94
							c0.3-0.77,1.16-1.16,1.94-0.86c18.26,6.99,447.71,171.49,489.42,206.25c6.24,5.2,13.2,12.02,21.25,19.91
							C578.57,1044.2,662.06,1126,840.5,1126c83.46,0,129.17-7.55,159.42-12.54c47.65-7.87,62.03-10.24,129.3,26.73
							c1.05,0.52,111.89,54.74,139.17,52.82c12.16-0.87,25.32-9.21,35.2-22.32c12.23-16.23,17.26-36.74,13.44-54.88l-0.5-2.39
							l2.36,0.63c1.16,0.31,116.13,30.83,156.33,22.98c14.16-2.76,23.38-10.32,26.67-21.85c4.17-14.62-2.01-32.79-10.4-40.58
							c-1.3-1.21-2.71-2.82-1.99-4.5c1.07-2.5,5.47-2.24,15.11-1.67c19.63,1.16,52.49,3.09,57.43-22.22
							c5.45-27.91-4.22-36.08-16.45-46.43c-5.21-4.4-11.11-9.39-16.28-16.39l-0.9-1.22l1.24-0.89c0.27-0.19,26.91-19.56,26.56-40.03
							c-0.15-8.83-5.37-16.74-15.52-23.5c-42.39-28.26-100.17-87.04-115.42-110.43c-10.27-15.75-31.03-27.94-49.34-38.7
							c-8.16-4.79-15.87-9.32-22.28-13.9c-2.01-1.43-4.25-3.05-6.68-4.81c-22.28-16.11-63.75-46.09-97.86-55.97
							c-2.67-0.77-5.57-1.62-8.67-2.53c-40.15-11.76-114.18-33.44-180.78-33.44c-1.38,0-2.74,0.01-4.11,0.03
							c-23.06,0.32-42.78,5.45-65.61,11.4c-49.73,12.95-111.62,29.08-249.63,8.58C536.37,647.7,54.85,361.54,50.67,358.75
							c-0.69-0.46-0.88-1.39-0.42-2.08c0.46-0.69,1.39-0.87,2.08-0.42c4.18,2.79,484.98,288.55,688.39,318.76
							c137.39,20.41,198.96,4.37,248.43-8.52c23.02-6,42.91-11.18,66.33-11.5c68.1-0.9,144.64,21.49,185.77,33.53
							c3.1,0.91,5.99,1.76,8.67,2.53c34.62,10.02,76.36,40.2,98.79,56.42c2.43,1.76,4.66,3.37,6.67,4.8
							c6.29,4.5,13.95,8.99,22.05,13.75c18.6,10.92,39.68,23.31,50.33,39.65c14.77,22.65,73.2,81.99,114.58,109.57
							c11.01,7.34,16.68,16.07,16.85,25.95c0.33,19.64-21.08,37.37-26.58,41.59c4.73,6.09,9.89,10.46,14.9,14.69
							c12.47,10.55,23.25,19.66,17.46,49.3c-5.44,27.88-41.29,25.77-60.55,24.64c-4.81-0.28-10.2-0.6-11.92-0.11
							c0.17,0.23,0.47,0.59,1.01,1.09c9.04,8.4,15.71,27.92,11.24,43.6c-2.52,8.85-9.6,20.19-28.98,23.97
							c-4.82,0.94-10.64,1.36-17.14,1.36c-45.02,0-123.4-19.9-138.23-23.77c3.1,18.37-2.21,38.73-14.43,54.94
							c-10.39,13.79-24.37,22.57-37.38,23.5C1268.09,1196.03,1267.53,1196.05,1266.96,1196.05z"/>
					</g>
				</g>
			</g>
			<g>
				<g>
					<path class="st1" d="M1318.5,1115.5c0,0-56-39-87-64s-154-78-205-81c-51-3-63.2,0-63.2,0"/>
				</g>
				<g>
					<path d="M1318.5,1117c-0.3,0-0.59-0.09-0.86-0.27c-0.56-0.39-56.4-39.32-87.08-64.06c-30.35-24.48-153.61-77.7-204.15-80.67
						c-49.91-2.94-62.64-0.07-62.76-0.04c-0.8,0.19-1.61-0.3-1.81-1.11c-0.2-0.8,0.29-1.61,1.1-1.81
						c0.51-0.12,13.01-3.02,63.65-0.04c23.22,1.37,63.49,13.16,110.48,32.36c42.66,17.43,80.1,36.65,95.37,48.97
						c30.6,24.68,86.36,63.55,86.92,63.94c0.68,0.47,0.85,1.41,0.37,2.09C1319.44,1116.78,1318.97,1117,1318.5,1117z"/>
				</g>
			</g>
			<g>
				<g>
					<path class="st1" d="M1492.5,1073.5c0,0-91.2-72.67-167.6-104.33c-76.4-31.67-139.4-82.67-175.4-89.67s-101-12-101-12"/>
				</g>
				<g>
					<path d="M1492.5,1075c-0.33,0-0.66-0.11-0.93-0.33c-0.91-0.72-91.91-72.9-167.24-104.12c-37.73-15.64-71.71-35.69-101.7-53.39
						c-29.73-17.54-55.4-32.69-73.41-36.19c-35.5-6.9-100.18-11.93-100.83-11.98c-0.83-0.06-1.44-0.78-1.38-1.61
						c0.06-0.83,0.8-1.45,1.61-1.38c0.65,0.05,65.5,5.09,101.17,12.02c18.52,3.6,44.4,18.87,74.37,36.55
						c29.9,17.64,63.79,37.64,101.32,53.2c75.72,31.38,167.05,103.82,167.96,104.55c0.65,0.52,0.75,1.46,0.24,2.11
						C1493.38,1074.81,1492.94,1075,1492.5,1075z"/>
				</g>
			</g>
			<g>
				<g>
					<path class="st1" d="M1530.5,982.5c0,0-146-93-196-122s-70-47-97-55s-129-34-131-36"/>
				</g>
				<g>
					<path d="M1530.5,984c-0.28,0-0.55-0.08-0.8-0.23c-1.46-0.93-146.55-93.31-195.95-121.97c-18.07-10.48-31.95-19.35-44.19-27.17
						c-21.33-13.63-35.42-22.63-52.48-27.69c-11.55-3.42-37.31-10.27-62.22-16.89c-55.91-14.86-68.24-18.32-69.41-19.49
						c-0.59-0.59-0.59-1.54,0-2.12c0.54-0.54,1.39-0.58,1.97-0.13c2.73,1.44,37.5,10.68,68.21,18.84
						c24.93,6.62,50.71,13.47,62.31,16.91c17.46,5.17,31.7,14.27,53.24,28.04c12.22,7.81,26.07,16.66,44.08,27.11
						c49.45,28.68,194.59,121.1,196.05,122.03c0.7,0.45,0.9,1.37,0.46,2.07C1531.48,983.75,1530.99,984,1530.5,984z M1107.56,768.43
						C1107.56,768.44,1107.56,768.44,1107.56,768.43C1107.56,768.44,1107.56,768.44,1107.56,768.43z"/>
				</g>
			</g>
			<g>
				<g>
					<path class="st1" d="M930.53,972.52c6.74-1.76,14.65-2.28,21.85-1.43"/>
				</g>
				<g>
					<path d="M930.52,974.02c-0.67,0-1.27-0.45-1.45-1.12c-0.21-0.8,0.27-1.62,1.07-1.83c6.89-1.8,15.06-2.34,22.41-1.46
						c0.82,0.1,1.41,0.84,1.31,1.67c-0.1,0.82-0.86,1.41-1.67,1.31c-6.99-0.83-14.75-0.32-21.29,1.39
						C930.78,974,930.65,974.02,930.52,974.02z"/>
				</g>
			</g>
			<g>
				<g>
					<path class="st1" d="M995.89,851.06c12.71-0.1,26.34,3.56,37.61,10.08"/>
				</g>
				<g>
					<path d="M1033.49,862.64c-0.26,0-0.51-0.07-0.75-0.2c-11.01-6.37-24.46-10.01-36.84-9.88c-0.84-0.04-1.51-0.66-1.51-1.49
						c-0.01-0.83,0.66-1.5,1.49-1.51c0.16,0,0.33,0,0.49,0c12.79,0,26.56,3.74,37.88,10.28c0.72,0.42,0.96,1.33,0.55,2.05
						C1034.52,862.37,1034.01,862.64,1033.49,862.64z"/>
				</g>
			</g>
		</g>
		<g>
			<g>
				<path class="st1" d="M1058.39,750.41c13.85,2.04,28.33,8.04,39.96,16.55"/>
			</g>
			<g>
				<path d="M1098.35,768.47c-0.31,0-0.62-0.09-0.88-0.29c-11.41-8.35-25.73-14.28-39.3-16.28c-0.82-0.12-1.39-0.88-1.27-1.7
					c0.12-0.82,0.88-1.39,1.7-1.27c14.04,2.07,28.84,8.2,40.63,16.83c0.67,0.49,0.81,1.43,0.33,2.1
					C1099.27,768.25,1098.82,768.47,1098.35,768.47z"/>
			</g>
		</g>
	</g>
	<g>
		<g>
			<path class="st2" d="M1297.99,1179.39"/>
		</g>
	</g>
	<g>
		<g>
			<path class="st1" d="M1660.37,1038.03c0,0,7.63-22.03,3.63-48.53"/>
		</g>
		<g>
			<path d="M1660.37,1039.53c-0.16,0-0.33-0.03-0.49-0.08c-0.78-0.27-1.2-1.12-0.93-1.91c0.08-0.22,7.46-22.02,3.57-47.82
				c-0.12-0.82,0.44-1.58,1.26-1.71c0.81-0.12,1.58,0.44,1.71,1.26c4.01,26.56-3.38,48.33-3.7,49.25
				C1661.57,1039.14,1660.99,1039.53,1660.37,1039.53z"/>
		</g>
	</g>
	<g>
		<g>
			<line class="st1" x1="1662.76" y1="976.17" x2="1664" y2="979.1"/>
		</g>
		<g>
			<path d="M1664,980.6c-0.59,0-1.14-0.34-1.38-0.92l-1.24-2.93c-0.32-0.76,0.04-1.64,0.8-1.97c0.77-0.32,1.64,0.04,1.96,0.8
				l1.24,2.93c0.32,0.76-0.04,1.64-0.8,1.97C1664.39,980.56,1664.2,980.6,1664,980.6z"/>
		</g>
	</g>
	<g>
		<g>
			<polygon class="st1" points="1099,84 1102,23 1418,202 1404,245 			"/>
		</g>
	</g>
</g>
</svg>
