<?xml version="1.0" encoding="utf-8"?>
<!-- Generator: Adobe Illustrator 27.0.0, SVG Export Plug-In . SVG Version: 6.00 Build 0)  -->
<svg version="1.1" xmlns="http://www.w3.org/2000/svg" xmlns:xlink="http://www.w3.org/1999/xlink" x="0px" y="0px"
	 viewBox="0 0 500 500" style="enable-background:new 0 0 500 500;" xml:space="preserve">
<style type="text/css">
	.st0{fill:#A4ACA3;}
	.st1{opacity:0.8;}
	.st2{fill:#181818;}
	.st3{fill:#FFFFFF;}
	.st4{fill:#FFFFFF;stroke:#000000;stroke-miterlimit:10;}
	.st5{fill:none;stroke:#000000;stroke-miterlimit:10;}
	.st6{fill:#969696;stroke:#263238;stroke-miterlimit:10;}
	.st7{fill:#FFFFFF;stroke:#263238;stroke-miterlimit:10;}
	.st8{fill:none;stroke:#263238;stroke-miterlimit:10;}
</style>
<g id="Background_Simple">
	<g>
		<g>
			<path class="st0" d="M125.2,464.3c-3-1.3-5.9-2.6-8.8-4c-38.5-19-67.4-54.5-82.7-90.5C26.9,354,22.5,337.6,20,321
				C3.5,211.9,95.2,160.9,116,122.8c20.8-38.1,57.1-97,146.8-100.1c68.2-2.4,136.9,26.5,173.7,89.3c4.1,6.9,7.7,14.2,11,22
				c6,14.4,10.6,30.2,13.3,47.5c7.9,49.6-0.3,91.6-28.2,134.8c-6.5,10.1-13.9,20.2-13.5,32.2c0.3,8.8,4.5,16.6,12.5,6.6
				c9.3-11.9,31.4-1.8,20,26.9c-18.9,47.9-68.6,72.3-120.2,87C268,487,187.1,490.7,125.2,464.3z"/>
			<g class="st1">
				<path class="st0" d="M125.2,464.3c-3-1.3-5.9-2.6-8.8-4c-38.5-19-67.4-54.5-82.7-90.5C26.9,354,22.5,337.6,20,321
					C3.5,211.9,95.2,160.9,116,122.8c20.8-38.1,57.1-97,146.8-100.1c68.2-2.4,136.9,26.5,173.7,89.3c4.1,6.9,7.7,14.2,11,22
					c6,14.4,10.6,30.2,13.3,47.5c7.9,49.6-0.3,91.6-28.2,134.8c-6.5,10.1-13.9,20.2-13.5,32.2c0.3,8.8,4.5,16.6,12.5,6.6
					c9.3-11.9,31.4-1.8,20,26.9c-18.9,47.9-68.6,72.3-120.2,87C268,487,187.1,490.7,125.2,464.3z"/>
			</g>
		</g>
	</g>
</g>
<g id="Threads">
	<g>
		<path class="st2" d="M386.1,218c14.1-17.4,7.9-37.9-2.7-51.3c-12.8-16.2-37-28.6-60-17.5c-3.2,1.5-7.8,4.3-13.4,8
			c-2.6-1.2-5.2-2.4-7.8-3.5c-10.5-24.3-32.2-33.4-47.7-28.2c-5.9,2-11.6,6.5-14.8,13.8c-0.2,0-0.4,0-0.5,0
			c-34.3,0-49.8,5.1-60.6,21.8c-5.1,2.8-9.1,6.3-12.1,10.4c-5.7,8-6.7,17.7-3.1,28.2c1.2,3.4,2.7,5.9,4.6,7.8
			c-0.3,2.3-0.5,4.6-0.5,6.9c-6.8-9.3-13.6-16-19.6-18.4c-4.4-1.7-8.4-1.2-11.6,1.5c-12.2,10.1-9.1,34.3,1.2,49.8
			c5.6,8.4,12.5,13.3,19.9,14.5c8.1,6.1,18.1,11.2,27.9,14.8c-0.2,2.8-0.3,5.5-0.3,8.2c-5.2,1.1-10.2,3-14.6,5.9
			c-13.9,9-19.3,22.5-14.4,35.9c4.7,12.8,19.6,25.3,41.5,22.7c3.3,4,7.5,7.5,12.4,10.3c20.5,11.6,41,14.8,56.9,9.5
			c7.3,2.6,14.6,3.1,21.3,1.2c17.6-4.9,20.4-25.2,22.6-45.6c0,0,0,0,0,0c8.5,0,18.1-2.2,27.5-6.4c-1.4,2.4-1.8,4.8-0.8,7
			c1.2,2.7,2.7,4.3,4.7,4.9c3.6,1.1,7.5-1.3,12.1-4.2c2.1-1.3,4.3-2.7,6.6-3.8l0.2-0.1c0.1,0,5.8-3.9,12.1-1.3
			c9.7,4,9.7,8.5,8.5,12.1c-0.8,2.4-7.1,5.1-12.2,7.2c-7.9,3.3-16,6.7-16.5,12.6c-0.1,1.8,0.4,4.2,3,6.5c-1.2,1.4-2.3,3.2-3.5,5.4
			c-5.7,11.4,2.2,17.6,8.6,22.7c4.3,3.4,8.4,6.6,8.5,10.8c0.2,6.4-2.8,7-7.4,7.8c-2.7,0.5-5.5,1-7.6,2.9c-2.7,2.4-3.3,6.4-1.7,10.4
			c1.6,4,5.6,7.9,11.1,7.9c0.1,0,0.2,0,0.3,0c4.3-0.1,7.1-2.4,7.6-6.2c0.4-3.2-1-7.3-3.6-8.1l-1.2,3.8c-0.1,0-0.2-0.1-0.2-0.1
			c0.5,0.4,1.4,2.6,0.8,4.5c-0.2,0.5-0.6,2-3.6,2c-3.7,0.1-6.5-2.6-7.6-5.4c-0.8-1.9-1-4.4,0.7-5.9c1.3-1.1,3.4-1.5,5.6-1.9
			c4.7-0.8,11.1-2,10.7-11.9c-0.2-6.1-5.2-10-10-13.8c-6.3-4.9-11.7-9.2-7.5-17.7c1-2,2-3.6,3.2-4.9c0.2,0.1,0.5,0.2,0.7,0.4
			c5.1,2.6,14.8,4.8,17.8,2.2c0.9-0.8,1.2-2,0.8-3.1c-0.9-2.8-5.4-7-11-7.4c-2.5-0.2-5.6,0.3-8.7,2.8c-1.1-0.9-1.9-2.1-1.8-3.4
			c0.3-3.5,7.9-6.7,14.1-9.3c7-2.9,13.1-5.5,14.4-9.6c2.4-7.4-1.3-13.1-10.8-17c-7.8-3.2-14.7,1-15.8,1.7c-2.5,1.2-4.8,2.7-6.8,4
			c-3.6,2.2-6.9,4.3-8.8,3.8c-0.8-0.3-1.6-1.2-2.2-2.7c-1-2.3,2.2-6.1,6.2-10c1.8-1.1,3.6-2.2,5.4-3.5
			c19.4-13.4,29.8-31.5,28.6-49.7c-0.5-7.5-4.5-15.3-10.4-23c0-1.7,0-3.5-0.1-5.3c-0.1-1.5-0.2-2.9-0.3-4.4
			C376.4,226.3,381.8,223.3,386.1,218z M367.1,357.4c3.2,0.2,5.7,2.2,6.9,3.7c-2.3,0.2-7.4-0.6-11.6-2.6
			C363.8,357.6,365.4,357.3,367.1,357.4z M310.3,161.8c1.8,0.9,3.5,1.8,5.2,2.7c-2-0.7-4.1-1.4-6.2-2
			C309.6,162.2,309.9,162,310.3,161.8z M331.5,281.7c3.1-3.5,5.7-7,7.7-10.5c1.3,0,2.5,0.2,3.8,0.5c4.5,1.1,8.5,4,11.5,7.4
			c-2.9,4.3-6.3,8.3-10.2,11.8c-9.4,8.5-20.7,14-31.8,17.1c0.7-4.5,1.5-8.8,2.6-12.8C321.2,291.5,326.8,287,331.5,281.7z M317.3,289
			c1.3-3.1,2.9-5.9,4.9-8.2c3.8-4.4,7.7-7.4,11.7-8.7c-1.5,2.3-3.3,4.7-5.4,7C325.2,282.8,321.4,286.2,317.3,289z M344,267.8
			c-0.8-0.2-1.7-0.4-2.7-0.5c3.2-6.6,4.5-12.6,4.2-16.9c-0.1-1.8-1.1-3.6-2.8-5.5c5.2-5,9.1-10.6,11.8-16.3c1,0.1,2,0.1,2.9,0.2
			c3.5,3.4,6.5,6.8,9.1,10c-0.3,13.8-3.6,26.1-9.8,36.6C353.2,271.9,348.8,268.9,344,267.8z M305.9,191.2c0.1,2.8,0,5.5-0.1,8.3
			c-4.3-2.3-9.6-4.1-15.5-5.2c1.2-1.8,2.2-3.5,2.8-5.2c0.1-0.3,0.2-0.7,0.3-1c1-0.8,1.9-1.5,2.9-2.3
			C299.6,187.6,302.8,189.4,305.9,191.2z M299.9,183.2c1-0.8,2.1-1.5,3.1-2.2c0.8,0,1.5,0,2.2,0c0.2,1.8,0.4,3.7,0.5,5.5
			C303.8,185.4,301.8,184.3,299.9,183.2z M313.6,231.8c1.7,0.9,3.5,1.8,5.2,2.7c0.5,1.5,0.9,3,1.2,4.5c-4,2.4-8.5,4.6-13.2,6.4
			c-2.2,0.8-4.3,1.4-6.4,1.7c2-6.1,3.9-12.5,5.4-19.1c0.1-0.1,0.2-0.1,0.3-0.2C308.6,229.1,311.1,230.5,313.6,231.8z M307,222
			c0-0.1,0-0.1,0-0.2c0,0,0.1,0,0.1,0C307.1,222,307,222,307,222z M352.1,224c-0.1,0.2-0.1,0.3-0.2,0.5c-3-0.3-6-0.8-9.2-1.3
			c1-1.6,2-3.2,2.7-4.8C347.8,220.2,350,222.1,352.1,224z M347.6,214.9c2.6-0.7,5.1-1.6,7.4-2.7c-0.2,2.5-0.7,5.1-1.5,7.7
			C351.6,218.2,349.6,216.5,347.6,214.9z M343.9,211.6c-0.1,0-0.2,0-0.3,0.1c-11.3-8.8-22.7-16.1-30.2-20.7c-1.1-0.7-2.3-1.4-3.4-2
			c-0.1-2.6-0.3-5.2-0.6-7.8c20.2,1.1,32.9,8.4,35.1,20.2C345,204.7,344.8,208.1,343.9,211.6z M315.8,216.6c6.1-1,12.2-1.3,18-0.7
			c2.8,0.3,5.7,0.3,8.5-0.1c-1,2.2-2.2,4.3-3.7,6.5c-6.3-1.3-12.9-2.9-19.8-4.6c-1-0.3-2-0.5-3.1-0.8
			C315.7,216.8,315.8,216.7,315.8,216.6z M315,208c-1.1-2.2-2.9-4.2-5.3-6c0.2-2.8,0.3-5.6,0.3-8.4c0.4,0.2,0.8,0.5,1.2,0.7
			c9.8,5.9,18.6,11.9,26.5,17.8c-1.1,0-2.3-0.1-3.4-0.2c-5.8-0.6-11.8-0.4-17.9,0.6C316.2,210.7,315.6,209.2,315,208z M309.3,206.9
			c0.9,0.9,1.7,1.9,2.2,2.9c0.6,1.2,0.9,2.3,0.8,3.4c-1.3,0.3-2.6,0.6-4,0.9C308.7,211.8,309,209.3,309.3,206.9z M315.3,228.2
			c-1.9-1-3.8-2-5.8-3.1c0.5-0.4,0.9-0.8,1.3-1.2C312.6,225.2,314.1,226.6,315.3,228.2z M268.7,278.4c3.4-3,7-5.7,10.7-8
			c0.2,3.6-0.1,7.2-1.2,10.6C274.5,280.6,271.2,279.8,268.7,278.4z M276.7,284.8c-1,2.1-2.3,4-3.9,5.9c-2.5-2.8-5.3-5.6-8.3-8.4
			c0.4-0.4,0.8-0.7,1.1-1.1C268.6,283.2,272.5,284.3,276.7,284.8z M265.6,275.7c-2.8-3.6-3-9.5-0.7-17.9c1-3.5,2.3-6.8,3.9-9.9
			c1.8,1.6,3.5,3.5,4.8,5.5c2.5,3.7,4.3,8.1,5.2,12.6C274.1,268.7,269.7,272,265.6,275.7z M262.5,278.2c0.1,0.1,0.1,0.2,0.2,0.2
			c-0.4,0.4-0.8,0.7-1.1,1.1c-2.3-2.1-4.8-4.1-7.3-6.1c-2.6-2.1-5.2-4.2-7.8-6.3c-0.1-10,3.7-19.1,9.7-21.9c3.3-1.5,6.5-1.1,9.5,0.4
			c-1.9,3.5-3.4,7.2-4.5,11.1C258.4,266.5,258.9,273.5,262.5,278.2z M253.1,288.7c-3.3-4.5-4.9-9.2-5.6-12.3
			c-0.3-1.2-0.5-2.5-0.7-3.8c1.6,1.3,3.3,2.7,5,4c2.4,1.9,4.8,3.9,7,5.8C256.8,284.5,255,286.6,253.1,288.7z M253.2,294.9
			c1.5,1.5,3.1,2.8,4.9,4c-1.1-0.3-2.3-0.7-3.4-1c-0.8-0.6-1.6-1.2-2.4-1.8C252.5,295.8,252.9,295.3,253.2,294.9z M223.9,312.4
			c-0.7-3.8-0.7-7.7-0.2-11.7c5.6-0.8,10.6-1.1,15.2-1c1.3,0.8,2.5,1.6,3.7,2.4c-1.7,2.3-3.4,4.5-5,6.8c-3.5,4.8-6.9,9.5-10.4,13.8
			C225.5,319.1,224.4,315.6,223.9,312.4z M226.4,330.4c-0.1,0-0.3,0-0.4,0c0.1-0.1,0.2-0.2,0.3-0.3
			C226.3,330.3,226.3,330.4,226.4,330.4z M201.3,283.7c-0.3-1-0.6-1.9-1-2.9c7,1.3,13.3,1.6,18,0.4c0.3-0.1,0.6-0.2,0.9-0.3
			c1.4,1.4,2.7,2.9,4.1,4.2c-0.3,0.9-0.6,1.9-0.9,2.8C215.6,285.7,208.4,284.1,201.3,283.7z M221.3,291.8c-0.5,1.8-0.9,3.7-1.2,5.5
			c-0.4,0.1-0.9,0.1-1.4,0.2c-4.7,0.8-9,2.1-12.7,3.8c-0.9-4.3-2.1-8.9-3.5-13.5C208.9,288.3,215.2,289.7,221.3,291.8z M192.5,260.2
			c0.8-2.5,1.7-4.9,2.8-7.3c3.4,4.8,6.9,9.5,10.6,13.6c1.2,1.4,2.5,2.8,3.7,4.1c2.1,2.4,4.2,4.7,6.4,7c-4.6,0.8-10.6,0.3-17.3-1.1
			C196.9,271,194.8,265.6,192.5,260.2z M194.1,275.2c-1.5-0.4-3.1-0.9-4.6-1.4c0.3-2.4,0.7-4.8,1.3-7.3
			C191.9,269.4,193.1,272.3,194.1,275.2z M248,236.6c2.9-1.6,5.6-3.3,8.1-4.9c1.5-0.9,3-1.9,4.5-2.8c3,3.6,6.1,6.9,9.3,9.9
			c-0.8,1.1-1.6,2.3-2.4,3.4c-4.3-2.3-9-2.6-13.2-0.6c-6.8,3.2-11.1,12-11.9,22.3c-1.2-1-2.4-2-3.6-3c0-0.1,0.1-0.1,0.1-0.2
			c2-3.7,3.8-7.2,5.2-10.3C245.9,246.7,247.3,241.9,248,236.6z M245.5,208.5C245.5,208.5,245.5,208.5,245.5,208.5
			c0.3,0.4,0.7,0.9,1,1.3c-0.1,0-0.3,0-0.4,0.1C245.9,209.4,245.7,208.9,245.5,208.5z M278.2,179.5c-5.7,4.1-11.6,8.5-17.6,12.9
			c-3.8-3.7-7.3-7.7-10.1-11.9c0.5-0.2,0.9-0.3,1.4-0.5C261.9,178.9,271.2,178.6,278.2,179.5z M267.1,175.2c1.7-0.5,3.4-1,5-1.5
			c1.3,0.6,2.6,1.2,3.9,1.8c-2.4-0.2-4.9-0.3-7.6-0.3C268,175.2,267.5,175.2,267.1,175.2z M301.9,225.6c-5.3,3.1-10.8,4.2-15.9,3.2
			c3.3-2.3,6.9-4.4,10.5-6.1C298.4,223.6,300.1,224.6,301.9,225.6z M301.2,220.7c0.2-0.1,0.5-0.2,0.7-0.3c0.4,0.1,0.8,0.2,1.2,0.3
			c-0.1,0.3-0.1,0.6-0.2,0.9C302.4,221.3,301.8,221,301.2,220.7z M281.4,227.2c-1.7-0.8-3.2-1.8-4.8-3c-0.7-0.6-1.4-1.2-2.1-1.9
			c4.8-1.5,10.2-2.5,16.9-2.6c0.3,0.2,0.6,0.4,1,0.6C288.5,222.3,284.8,224.6,281.4,227.2z M271.8,219c-1.3-1.8-2.3-3.8-3.1-5.8
			c0.2-0.2,0.5-0.3,0.7-0.5c4.1,0.2,8.3,0.7,12.4,1.3c1.1,0.7,2.2,1.4,3.4,2.1C280.2,216.6,275.8,217.6,271.8,219z M256.8,224.1
			c0.4,0.6,0.9,1.1,1.3,1.7c-1.4,0.8-2.7,1.7-4.1,2.5c-0.5,0.3-1.1,0.7-1.6,1C253.8,227.5,255.3,225.8,256.8,224.1z M248.7,227.6
			c0-1.4,0-2.8-0.1-4.1c1.9-0.8,3.7-1.6,5.5-2.4C252.3,223.2,250.4,225.4,248.7,227.6z M255.6,215.8c-0.7-1-1.4-1.9-2.1-2.9
			c2.7-0.3,5.5-0.4,8.2-0.4c0,0-0.1,0.1-0.1,0.1C259.6,213.7,257.6,214.8,255.6,215.8z M263.8,216.1c0.5-0.3,1-0.6,1.5-0.9
			c0.7,1.8,1.6,3.6,2.7,5.3c-2.3,1-4.4,2.1-6.5,3.2c-0.7-0.9-1.4-1.8-2.1-2.8C260.9,219.4,262.3,217.7,263.8,216.1z M265.2,194
			c0.2-0.2,0.4-0.3,0.6-0.5c-0.1,0.1-0.1,0.3-0.2,0.4C265.5,193.9,265.3,194,265.2,194z M267.3,206.6c-0.1-1-0.1-2-0.1-3
			c0.6,0.5,1.1,0.9,1.7,1.3C268.4,205.5,267.9,206.1,267.3,206.6z M271.8,202.1c-1.3-1-2.6-2-3.9-3.1c0.1-0.4,0.3-0.9,0.4-1.3
			c0-0.1,0.1-0.2,0.1-0.3c2.9-0.3,5.8-0.5,8.7-0.5C275.3,198.7,273.6,200.4,271.8,202.1z M261.3,198.7c0.7,0.6,1.5,1.3,2.2,1.9
			c-0.4,2.6-0.4,5.3,0,7.9c-4.2,0-8.5,0.2-12.6,0.7c-0.7-1-1.4-2.1-2.1-3.1c1.6-1.2,3.2-2.3,4.8-3.5c1.3-1,2.7-2,4-2.9
			C258.8,199.3,260.1,199,261.3,198.7z M249,213.5c1,1.4,1.9,2.7,2.9,4.1c-1.2,0.6-2.5,1.1-3.7,1.6c-0.2-1.9-0.6-3.7-1-5.5
			C247.8,213.7,248.4,213.6,249,213.5z M218.1,247.2c3.4,3.4,7,6.7,10.7,10c-2.4,4.9-3.9,9.2-4.4,12.6c-2.2-2.5-4.3-4.9-6.2-7.1
			c-2.5-2.8-4.6-5.3-6.5-7.3c-1.7-1.9-3.5-4.1-5.2-6.7C210.7,248.3,214.6,247.8,218.1,247.2z M205.1,244.7c-0.3,0-0.7,0-1,0.1
			c-0.7-1.2-1.4-2.4-2-3.6c0.7-1,1.5-2,2.3-2.9c1-0.7,2-1.4,3-2.1c2.3,2.5,4.8,5,7.3,7.5C211.6,244.1,208.5,244.5,205.1,244.7z
			 M222.9,246.2c6-1.3,11-3,15.5-4.9c-3,4.3-5.6,8.4-7.6,12.2C228,251.1,225.4,248.7,222.9,246.2z M225.7,277.1
			c0.2,0.2,0.4,0.4,0.6,0.6c-0.5,1.1-0.9,2.2-1.4,3.3c-0.6-0.6-1.2-1.2-1.8-1.8C224.1,278.6,225,277.9,225.7,277.1z M226.5,288.3
			c0.7,0.7,1.5,1.4,2.2,2c-0.8-0.3-1.7-0.7-2.5-1C226.3,288.9,226.4,288.6,226.5,288.3z M225.1,293.1c2.3,0.9,4.5,1.8,6.6,2.8
			c-2.4,0.1-4.8,0.4-7.4,0.7C224.5,295.5,224.8,294.3,225.1,293.1z M228,284.2c0.4-1.1,0.8-2.2,1.3-3.3c5,5.2,10.6,10.6,16.6,15.4
			c-1-0.1-2-0.2-3-0.3C238,293.3,233,289.1,228,284.2z M228,273.7c-0.1-0.1-0.2-0.2-0.2-0.3c0.3-0.9,0.5-1.8,0.6-2.7
			c0.3-2.9,1.5-6.6,3.6-10.8c0.7,0.6,1.3,1.2,2,1.8C232,265.5,229.9,269.5,228,273.7z M233.8,256.3c2.4-4.4,5.5-9.3,9.1-14.5
			c-0.6,2.6-1.4,4.9-2.3,6.8c-1.3,2.8-3,6.1-4.8,9.5C235.1,257.5,234.4,256.9,233.8,256.3z M244.3,233.1c-0.4,0.5-0.8,1-1.1,1.5
			c-6.3,3.3-13.8,6.3-23.8,8.2c-3.1-3-6-6-8.8-9c1.5-1.1,3.1-2.2,4.7-3.4c8.4,0.8,19.2-1.7,29.3-5.5
			C244.7,227.7,244.6,230.5,244.3,233.1z M220.7,226.6c4-2.9,8.1-5.9,12.3-8.9c3.4-1.3,6.8-2.3,10.3-3.1c0.5,2,0.9,4.1,1.1,6.3
			C235.8,224.1,227.5,226.2,220.7,226.6z M231,214.1c-1.9,0.7-3.7,1.6-5.6,2.5c-5.3,2.6-9.9,5.7-14.1,9c-2.7-0.9-4.5-2.4-5.5-4.6
			c7-2.2,15.5-6,25.3-10.5c2.9-1.3,5.8-2.7,8.9-4c0.1,0.2,0.3,0.4,0.4,0.7C237.3,209.5,234.1,211.8,231,214.1z M229.5,206.9
			c-9.4,4.3-17.7,8.1-24.5,10.2c0-0.3,0-0.6,0-0.9c0.1-4.2,1.6-8.3,4.6-12.3c5.8-1.9,11.6-3.6,16.9-4.1c4.4-0.4,8,0.8,10.9,3.5
			C234.7,204.6,232.1,205.8,229.5,206.9z M208,228.5c-0.4,0.4-0.9,0.8-1.3,1.2c-2.2-2.4-4.4-4.9-6.4-7.3c0.5-0.1,1.1-0.2,1.7-0.3
			C203.1,224.9,205.1,227.1,208,228.5z M201,216.1c0,0.7,0,1.4,0.1,2.1c-1.3,0.3-2.6,0.5-3.8,0.6c-1.7-2.2-3.4-4.3-5-6.4
			c-0.1-0.9-0.2-1.8-0.3-2.7c3.8-1.1,7.7-2.4,11.6-3.8C201.9,209.3,201.1,212.7,201,216.1z M195.5,222.9c2.6,3.2,5.4,6.4,8.4,9.6
			c-0.8,0.9-1.6,1.8-2.4,2.8c-0.6,0.4-1.2,0.8-1.7,1.2c-2-4.3-3.8-8.9-5.1-13.6C195,222.9,195.2,222.9,195.5,222.9z M197.4,248.7
			c1.5,0.1,3,0.2,4.5,0.1c2.3,3.6,4.6,6.7,6.9,9.2c1.9,2,4,4.4,6.4,7.3c2.3,2.7,4.9,5.7,7.7,8.8c-0.7,0.8-1.5,1.5-2.6,2.1
			c-2.5-2.7-5-5.5-7.6-8.4c-1.2-1.4-2.5-2.8-3.7-4.1C205,259.3,201.1,254.1,197.4,248.7C197.4,248.7,197.4,248.7,197.4,248.7z
			 M240.8,311.3c1.6-2.2,3.3-4.5,5-6.8c5,3.8,8.9,7.9,11.5,12c-8.2,6.5-17.4,11.3-26.7,13.3c-0.5-1-1.1-2-1.6-2.9
			C233,322,236.8,316.7,240.8,311.3z M231,276.9c1.9-4.4,4.1-8.5,6.1-12.4c1.8,1.5,3.6,3.1,5.4,4.6c0.1,2.7,0.5,5.5,1.2,8.3
			c1.4,5.7,3.7,10.5,6.9,14.6c-0.5,0.6-1,1.2-1.5,1.8C242.4,288.5,236.4,282.6,231,276.9z M264.1,226.9c2-1.1,4.1-2.2,6.4-3.1
			c1.1,1.3,2.3,2.5,3.6,3.5c1.3,1,2.6,1.9,4,2.7c-2,1.8-3.9,3.7-5.7,5.7C269.6,233.1,266.8,230.1,264.1,226.9z M282.1,231.8
			c6,2.1,12.5,1.7,18.8-1.2c-1.5,5.7-3.2,11.3-4.9,16.7c-7.3-0.2-14.1-3.6-20.6-8.9C277.4,236,279.7,233.8,282.1,231.8z M305.5,204
			c-0.3,3.4-0.7,6.9-1.2,10.2c-6.9-1.6-13.9-3-20.9-4.1c-1.8-1.1-3.5-2.3-5.2-3.4c3.8-2.9,6.9-5.9,9.5-8.8
			C294.9,199,301.1,201.2,305.5,204z M278.5,201.2c1.4-1.3,2.8-2.6,4.2-3.9h0C281.4,198.6,280,199.9,278.5,201.2z M281.2,193.3
			c-3.5-0.2-7.1-0.2-10.7,0.1c3.4-5.2,9.3-8.8,17.4-10.7c0.2,0.1,0.3,0.3,0.5,0.4c1,0.9,1.5,1.8,1.4,2.9
			C287,188.3,284.1,190.7,281.2,193.3z M284.3,175.1c-2.2-1.1-4.3-2.1-6.4-3.1c6.9-2,13-3.6,17.5-4.8
			C291.9,169.7,288.2,172.3,284.3,175.1z M272.3,169.4c-8-3.6-15.8-6.7-23-9.2c13.3-1.6,29.9-0.7,46.3,2.8
			C290.1,164.4,281.7,166.7,272.3,169.4z M266.4,171.2c-5.4,1.6-10.9,3.4-16.3,5.2c-0.7,0.1-1.4,0.2-2.2,0.3c-2-3.5-3.6-7.2-4.7-11
			c-0.4-1.2-0.7-2.4-0.9-3.6C249.8,164.4,257.9,167.5,266.4,171.2z M257.3,194.8c-0.5,0.4-1.1,0.8-1.6,1.2c-2.7,0.8-5.3,1.7-7.9,2.8
			c-1,0.4-2.1,0.9-3.1,1.3c-3.3-4.8-6.5-9.4-9.7-13.8c3.5-1.5,7.4-3,11.6-4.5C249.5,186.5,253.2,190.8,257.3,194.8z M239.8,200.1
			c-3.2-2.8-7.1-4.3-11.6-4.3c-0.7,0-1.4,0-2.1,0.1c-3.5,0.3-7.2,1.1-10.8,2.1c3.1-2.7,7-5.3,11.6-7.8c1.3-0.7,2.8-1.4,4.3-2.2
			C234,191.8,236.9,195.9,239.8,200.1z M225,186.7c-7.8,4.3-13.8,8.9-17.8,13.8c-1.6,0.5-3.2,1.1-4.8,1.7c-3.8,1.3-7.4,2.5-10.6,3.5
			c-0.1-2.5,0-5,0.4-7.4c1.4-1,2.9-1.9,4.3-2.7c8.2-4.6,19.7-8.5,31.8-11.4c0.2,0.2,0.3,0.4,0.5,0.6
			C227.4,185.4,226.1,186.1,225,186.7z M194.5,192.1c-0.4,0.2-0.7,0.4-1.1,0.6c0.9-2.7,2.2-5.3,4-7.5c5.7-7.1,10.3-11.9,15.6-15.3
			c4.2,2.3,8.3,6.1,12.5,10.9C213.4,183.8,202.3,187.7,194.5,192.1z M194.2,182.7c-3,3.8-4.9,8.3-5.8,13.3c-1.8,1.4-3.2,2.8-4.3,4.2
			c-2.4-4.1-4.3-8-5.7-11.6c4.9-8.9,12.2-16.5,21.4-20c2.9-1.1,5.8-1.2,8.7-0.5C203.8,171.6,199.4,176.3,194.2,182.7z M187.8,206
			c-0.5-0.7-0.9-1.3-1.3-2c0.4-0.6,0.8-1.3,1.3-1.9C187.7,203.4,187.7,204.7,187.8,206z M188.6,214.1c0.1,0.8,0.3,1.6,0.4,2.5
			c-1.2-1.3-2.1-3-2.8-5.4c0.1,0,0.1,0,0.2,0C187.1,212.1,187.8,213.1,188.6,214.1z M188.9,221.4c0.4,0.2,0.9,0.4,1.4,0.6
			c1.5,5.8,3.7,11.6,6.2,16.8c-1.4,0.9-2.7,1.9-4,2.7c-7-10.1-13.7-19.7-20.9-24.7c-0.1-2.2,0-4.5,0.2-6.8c3.1,1.5,6.6,1.9,10.5,1.6
			C183.4,216.5,185.7,219.7,188.9,221.4z M188.4,242.8c-2-0.7-3.7-1.7-5.3-2.7c-2.8-5.4-5.7-10.6-8.7-15.4
			C179,229.4,183.7,235.9,188.4,242.8z M190.7,247.6c0.4,0.1,0.8,0.2,1.2,0.3c0.3,0.4,0.5,0.7,0.8,1.1c-0.9,1.9-1.8,3.8-2.5,5.7
			c-0.8-1.7-1.6-3.5-2.4-5.2C188.7,249,189.7,248.3,190.7,247.6z M189.1,277.9c2.2,0.7,4.4,1.3,6.6,1.9c0.4,1.3,0.9,2.5,1.3,3.8
			c-2.7,0-5.4,0.1-8.1,0.5C188.9,282,189,279.9,189.1,277.9z M198.2,287.5c1.7,5.5,3.1,10.8,4.1,15.7c-3.3,2-6.1,4.4-8.3,7.2
			c-2.3-5.4-3.9-11.6-4.7-18.3c-0.2-1.3-0.3-2.7-0.4-4C192,287.6,195.1,287.4,198.2,287.5z M203.2,307.4c0.2,1.4,0.5,2.7,0.6,4
			c0.9,6.5,2.6,12.1,5,16.8c-5-2.5-9.4-7.3-12.8-13.7C197.8,311.7,200.2,309.3,203.2,307.4z M207.8,310.8c-0.2-1.8-0.6-3.7-0.9-5.6
			c3.6-1.7,7.8-3,12.6-3.8c0,0,0.1,0,0.1,0c-0.4,4-0.3,7.9,0.3,11.7c0.7,3.9,2.2,8.4,4.4,13.1c-1.3,1.5-2.6,3-3.9,4.4
			c-2-0.1-4-0.3-5.9-0.7C211.3,325,208.8,318.6,207.8,310.8z M222.2,334.7c2.1,0,4.2-0.2,6.3-0.5c2.2,3.7,4.7,7.4,7.6,11
			c-5.6-1-11.2-3.8-16-8.3C220.8,336.1,221.5,335.4,222.2,334.7z M232.7,333.3c9.2-2.2,18.3-7,26.5-13.4c1.4,3.2,2.1,6.3,1.8,9.3
			c-0.8,9.6-8.2,16.1-19,16.3c-0.1,0-0.2,0-0.3,0C238.3,341.7,235.3,337.5,232.7,333.3z M260.3,313.9c-2.4-3.7-5.7-7.3-9.9-10.8
			c1.8,0.4,3.7,0.6,5.6,0.5c3.1,2,6.3,3.8,9.5,5.3C263.9,310.7,262.1,312.4,260.3,313.9z M263.8,297.6c-3.3-1.6-5.9-3.6-8-5.8
			c1.9-2.3,3.9-4.5,6-6.7c3,2.8,5.7,5.6,8.2,8.4C267.9,295.3,265.8,296.6,263.8,297.6z M272.5,296.5c0.6,0.7,1.2,1.4,1.7,2.1
			c-0.4,0.6-0.9,1.2-1.3,1.7c-1.5-0.2-2.9-0.5-4.3-0.9C270,298.6,271.2,297.6,272.5,296.5z M274.7,304.6c1.3,0.1,2.7,0.2,4.1,0.2
			c1.2,1.7,2.2,3.5,3.2,5.2c-0.2-0.1-0.4-0.2-0.7-0.4c-2.5-1.4-5-2.8-7.4-4C274.1,305.3,274.4,304.9,274.7,304.6z M276.6,295.2
			c-0.4-0.5-0.8-1-1.2-1.4c2.4-2.6,4.2-5.5,5.5-8.5c0.4,0,0.8,0,1.2,0.1C280.6,288.6,278.7,292,276.6,295.2z M277,251.2
			c-1.8-2.8-3.9-5.1-6.1-6.8c0.7-1,1.3-2,2.1-3c6.7,5.5,13.9,9.3,21.7,9.8c-1.1,3.2-2.2,6.4-3.3,9.4c-3.1,0.9-6,2.1-8.8,3.4
			C281.4,259.4,279.5,255,277,251.2z M283.2,268.2c2-1.1,4.2-2,6.3-2.8c-0.1,0.2-0.1,0.4-0.2,0.5c-1.6,4.4-3.1,8.5-4.4,12.3
			c-0.3,1-0.7,2-1.1,3c-0.5,0-1,0-1.5-0.1C283.5,277,283.7,272.6,283.2,268.2z M288.7,279.6c1.3-3.8,2.8-7.9,4.4-12.2
			c0.4-1.1,0.8-2.3,1.2-3.4c2.5-0.6,5-1.1,7.7-1.4c6-0.6,11.4-1.7,16.4-3.3c-3.6,12.2-11.3,22.3-18.2,22.1c-2.7-0.1-5.6,0-8.4,0
			c-1.2,0-2.5,0-3.7,0C288.3,280.8,288.5,280.2,288.7,279.6z M301.6,258.6c-1.9,0.2-3.8,0.5-5.7,0.8c1-2.7,1.9-5.4,2.9-8.2
			c3-0.2,6.1-0.9,9.2-2.1c4.4-1.7,8.5-3.6,12.3-5.8c0.1,1.5,0.1,2.8,0,4c-0.1,2.4-0.4,4.9-0.9,7.3
			C314.3,256.6,308.3,258,301.6,258.6z M313.5,221c0.1-0.1,0.2-0.2,0.3-0.4c1.3,0.3,2.7,0.7,4,1c6.2,1.5,12.3,3,18,4.3
			c-2.5,3-5.6,5.8-9,8.5c-1.5-0.8-3.1-1.7-4.8-2.6C320.1,227.2,317.3,223.6,313.5,221z M324.3,241c1-0.6,1.9-1.3,2.8-1.9
			c3.7,2.1,7,4.1,9.5,6c-3.6,3-7.8,5.6-12.6,7.8c0.3-1.8,0.4-3.6,0.5-5.4C324.5,245.2,324.5,243,324.3,241z M330.5,236.4
			c3.7-3,6.9-6.3,9.6-9.7c3.4,0.7,6.8,1.2,10,1.6c-2.5,4.8-6,9.7-10.5,14C337.3,240.4,334.2,238.5,330.5,236.4z M363,228.8
			c1.1-0.1,2.2-0.2,3.2-0.3c0.1,1.3,0.2,2.5,0.3,3.8c0,0.1,0,0.1,0,0.2C365.3,231.3,364.2,230.1,363,228.8z M359,224.9
			c-0.7-0.7-1.5-1.4-2.2-2.1c0.1-0.2,0.1-0.3,0.2-0.5c1.3-4.2,2.1-8.5,2.2-12.6c0.6-0.4,1.1-0.8,1.7-1.2c2.2,4.9,3.9,10.3,4.8,16
			C363.5,224.8,361.3,224.9,359,224.9z M359,204.8C359,204.8,359,204.8,359,204.8C359,204.8,359,204.8,359,204.8
			C359,204.8,359,204.8,359,204.8z M355,191.3c-1.9-3.6-4.4-6.7-7.5-9.4c-1.9-1.6-3.9-3.2-6-4.6c-4.3-3.7-8.8-7-13.3-9.9
			c9.5-3.2,17.2-3,23,0.5c12.9,8,18.2,17.6,15,27c-0.9,2.6-2.3,5-4.3,7.1C360,198.2,357.6,194.7,355,191.3z M339,180.4
			c4.6,3.9,8.9,8.3,12.7,13.2c2.1,4.2,3.3,8.9,3.5,13.9c-2.2,1.2-4.5,2.3-7,3c0.7-3.3,0.8-6.7,0.2-9.9c-2.6-14-16.9-22.4-39.6-23.5
			c3.5-2.2,7-4.2,10.5-5.9c0.4-0.2,0.8-0.4,1.3-0.6C327.2,173.3,333.5,176.6,339,180.4z M315.4,168.6c-2.4,1.3-4.9,2.7-7.4,4.3
			c-0.5-2.4-1-4.8-1.7-7.2C309.4,166.6,312.4,167.6,315.4,168.6z M306.1,159.8c-0.4,0.3-0.9,0.6-1.3,0.9c-0.2-0.6-0.4-1.2-0.6-1.7
			C304.8,159.2,305.5,159.5,306.1,159.8z M302.5,167.1c0.7,2.7,1.3,5.4,1.8,8.2c-0.9,0.6-1.7,1.2-2.6,1.8c-4.3,0.1-8.1,0.4-11.5,1
			c-0.6-0.3-1.2-0.6-1.9-1C293.4,173.5,298.2,170.1,302.5,167.1z M255.7,129.3c13-4.4,31,2.9,41,22.2c-19.4-7.5-38.7-11.3-52.8-12.1
			C246.6,134.1,251,130.9,255.7,129.3z M242.3,143.3c14.4,0.6,35.8,4.9,56.8,13.4c0.1,0.2,0.2,0.5,0.3,0.8c0.3,0.8,0.6,1.7,0.9,2.5
			c-12.8-3-25.9-4.6-37.7-4.6c-5.5,0-10.7,0.3-15.5,1c-2,0.3-3.9,0.6-5.7,0.8C240.7,151.8,241.1,147.2,242.3,143.3z M239.4,166.8
			c1.1,3.6,2.5,7.1,4.3,10.5c-4.6,0.7-9.3,1.6-13.9,2.6c-4.2-5-8.5-9.3-12.8-12.2c5.6-2.7,12.1-4.3,21.2-5.8
			C238.5,163.4,238.9,165.1,239.4,166.8z M238.2,143.2c-1,3.8-1.4,8.2-0.9,13.3c-8.2-2.2-15.4-3.4-21-3.4c-11.7,0-21.9,1.6-30.3,4.6
			C195.8,146.8,210.2,143.3,238.2,143.2z M177.6,171c1.2-2.5,2.4-4.8,3.7-6.9c8.7-4.5,20.7-6.9,35-6.9c4.2,0,9.2,0.7,14.9,2
			c-7.5,1.5-13.3,3.4-18.4,6.3c-4.6-2-9.4-2.4-14.4-0.5c-9,3.4-16.3,10.2-21.5,18.4C175.8,178.5,176,174.4,177.6,171z M181.9,204.4
			c-0.3,1.1-0.5,2.3-0.4,3.4c-3.6,0.3-6.7-0.3-9.1-1.9c0.8-4.1,2-8.3,3.7-12.3C177.6,196.9,179.6,200.5,181.9,204.4z M167.2,198.3
			c-3.2-9.2-2.3-17.7,2.5-24.5c1.3-1.8,2.8-3.4,4.5-4.9c-0.1,0.1-0.1,0.3-0.2,0.4c-2.4,5.1-2.4,11.4,0,19c-2.3,4.5-4,9.2-5.1,14
			C168.3,201.1,167.7,199.8,167.2,198.3z M140.8,245c-9.4-14-12.2-36-2-44.5c1.3-1,2.7-1.6,4.2-1.6c1.1,0,2.2,0.2,3.4,0.7
			c4.7,1.8,10,6.7,15.4,13.6c-0.1,0-0.2,0-0.3,0c-6.1-0.2-12,3.5-17.8,11.1c-5.4,7.1-5.4,15.3,0.1,23.7c0.9,1.4,1.9,2.7,3,4
			C144.1,249.7,142,247,140.8,245z M158.9,258c-4.9-3.7-9-7.8-11.7-12c-4.6-7-4.7-13.4-0.3-19.1c5-6.6,9.8-9.7,14.5-9.6
			c1.3,0,2.7,0.3,4,0.8c0.9,1.2,1.7,2.5,2.6,3.8c0.1,0.8,0.3,1.6,0.5,2.4c1.8,8,5.8,14.3,11.5,18.4c0.9,1.8,1.8,3.6,2.7,5.4
			c-4.8,3.1-8.9,5.6-12.2,7.3C166.2,257.7,162.4,258.3,158.9,258z M164.3,261.8c2.7-0.4,5.3-1.3,8-2.7c3.3-1.7,7.4-4.2,12.1-7.2
			c1.3,2.8,2.6,5.7,3.8,8.6c-1.2,4-2.1,8-2.6,12C178.3,269.7,170.8,266,164.3,261.8z M159.7,325.1c-4.2-11.6,0.5-23.3,12.8-31.2
			c3.8-2.5,8.1-4.2,12.6-5.2c0.1,1.3,0.2,2.5,0.3,3.8c0.9,8.1,3.1,15.6,6.1,21.8c-1.2,2.3-2,4.8-2.5,7.4c-1.4,7.9,0.8,16.4,5.6,23.8
			C177,346.6,163.8,336.4,159.7,325.1z M199.2,344.9c-5.1-6.9-7.6-15.1-6.3-22.5c0.2-1.3,0.5-2.5,1-3.7c4.7,7.8,11,13.2,18.1,14.9
			c0,0,0,0,0.1,0c0.7,1.1,1.5,2.1,2.3,3C209.5,340.8,204.5,343.7,199.2,344.9z M211.8,356c-3.7-2.1-7-4.7-9.8-7.7
			c5.4-1.5,10.3-4.6,15.1-8.7c6.7,6.5,15,9.7,22.7,10c4.9,5.5,10.6,10.5,16.7,14.4c1.4,0.9,2.9,1.7,4.3,2.5
			C246.7,369.4,229.3,365.9,211.8,356z M258.6,360.6c-4.8-3-9.4-6.9-13.5-11.2c11.1-1.4,19-9.1,19.8-19.8c0.3-4-0.6-8.1-2.7-12.2
			c2.5-2.1,4.8-4.4,7.1-6.7c3.7,1.5,7.4,2.6,11.2,3.3c1.4,0.8,2.9,1.6,4.4,2.4c2.1,5,3.4,10,3.8,14.8c0.8,9.3-2,17.7-7.9,24.2
			c-3.9,4.3-8.7,7.5-14.2,9.5C264,363.7,261.3,362.3,258.6,360.6z M286.9,366.4c-4.6,1.3-9.4,1.4-14.4,0.2c4.3-2.2,8.1-5,11.4-8.6
			c6.7-7.4,9.8-16.8,8.9-27.2c-0.3-3.8-1.2-7.7-2.5-11.7c1.8,0.9,3.7,1.8,5.7,2.7c3.1,1.4,6.7,2.3,10.5,2.6
			C304.4,344.1,301.8,362.2,286.9,366.4z M307,320.5c-3.4-0.3-6.6-1.1-9.3-2.3c-2.4-1.1-4.7-2.3-6.9-3.4c5.3,0.1,11.1-0.5,17.1-1.6
			C307.5,315.6,307.2,318.1,307,320.5z M308.3,309c-7.7,1.7-15.1,2.1-21.6,1.7c-1-2-2.1-4-3.4-5.9c9.6-0.6,18.7-3,27-7
			C309.5,301.3,308.9,305.1,308.3,309z M281.2,300.8c-0.1,0-0.3,0-0.4,0c-0.5-0.8-1.1-1.5-1.7-2.3c2.9-4.2,5.3-8.7,7.3-13.1
			c1.8,0,3.6,0,5.4,0c2.7,0,5.6-0.1,8.2,0c0.1,0,0.2,0,0.3,0c10.3,0,19.2-13.3,22.6-27.8c6.5-2.6,12-6,16.6-9.9
			c1.1,1.1,1.7,2.2,1.8,3.1c0.3,3.9-1.2,10-4.7,16.6c-5.2,0.6-11.3,3.4-17.6,10.8c-3.4,3.9-5.7,8.8-7.4,14.2
			C302.7,297.5,292.3,300.4,281.2,300.8z M348.2,306.9c-1.3,1.2-2.5,2.4-3.7,3.6c-11.3,6.6-23.4,10.2-33.6,10.2
			c0.3-2.8,0.6-5.7,1-8.5c12.2-3.1,24.7-9,35.1-18.4c3.8-3.5,7.2-7.3,10.1-11.5c1.6,2.5,2.8,4.9,3.3,7
			C361.6,294.3,354.5,301,348.2,306.9z M370.3,244c4.1,6.1,6.4,11.7,6.7,16.7c0.8,12.1-4.1,24.3-13.8,34.8c1.1-2.4,1.6-4.8,1-7.1
			c-0.7-3.1-2.4-6.5-4.8-9.7C365.6,268.7,369.3,257,370.3,244z M369.6,223.8c-1.1-6.5-3-12.4-5.6-18c2.8-2.8,4.9-6.1,6.1-9.6
			c3.8-11.2-2.3-22.7-16.7-31.7c-7.5-4.6-17.3-4.6-29.4,0.2c-2.1-1.3-4.3-2.5-6.4-3.6c-1.2-0.6-2.3-1.2-3.5-1.8
			c4.5-2.9,8.3-5.2,11-6.5c21-10.1,43.3,1.4,55.1,16.4c9.6,12.2,15.4,30.8,2.8,46.3C379.4,219.8,374.9,222.4,369.6,223.8z"/>
		<path class="st3" d="M376.9,183.4c-2.8-2.9-6.1-5.6-9.7-7.9c-6.4-4.2-14-6.5-22.4-8c-3.4-3.4-7.7-6.2-12.6-8.2
			c-3.4-1.4-6.9-2.4-10.5-3c-0.7-4.3-1.7-8.4-2.9-12c-4.7-14.1-12.7-22.5-22-23.1c-7.9-0.5-16.6,0.5-23.9,2.9
			c-0.3-0.3-0.6-0.5-0.8-0.8c-6.5-5.9-10.9-5.8-13.4-4.7c-5.3,2.4-8.5,6-9.4,10.6c-2.2,10.9,8.3,24.3,14.8,31.4
			c2.5,2.7,7.2,5.2,13.4,7.5c-4.2,2.3-8.4,4.7-12.5,7.1c-0.7-2.1-1.4-4.1-2.1-6.2c-5.6-16.4-10.8-32-27.2-31.4
			c-4.3,0.2-8.4,0.9-12.3,2.1c-2-1.1-4.2-2-6.2-2.9c-2.5-1.1-5.1-2.2-7.4-3.6c-13.2-7.4-17.5-20.7-17.5-20.8l-0.2-0.8l-0.8-0.2
			c-0.9-0.3-0.9-0.3-8.5,6.3c-3.6,3-7.3,6.3-7.9,6.8c-6.1,5.6-12.3,10.6-20.9,11.6c-5.8,0.6-11.4-0.7-17.2-2.1
			c-5.4-1.3-10.9-2.6-16.7-2.3c-1.9,0.1-3.9,0.4-5.8,0.8c-0.8-0.4-1.7-0.8-2.6-1.1c-9.6-3.6-23.5-1.9-30.5,1.9
			c-9.1,5-12.9,15.8-9.6,27.7c1.3,4.7,4.7,9.4,8.1,13.9c6.4,8.7,12.4,17,5.2,25.1l2.2,2c8.8-9.9,1.4-20-5-28.8
			c-3.3-4.6-6.4-8.9-7.6-13c-2.2-7.9-1.4-19,8.2-24.2c6.2-3.4,18.4-4.9,27.2-2c-4.8,2-8.9,5.2-10.3,9.8c-1.5,4.8,0.9,10.5,5.5,12.8
			c4.4,2.3,10.2,1.3,13.8-2.4c3.4-3.5,4.5-9,2.8-13.7c-0.8-2.1-2.1-4-3.9-5.6c0.8-0.1,1.7-0.2,2.5-0.2c5.3-0.3,10.4,0.9,15.8,2.2
			c5.8,1.4,11.9,2.8,18.2,2.2c9.5-1,16.1-6.4,22.6-12.3c0.9-0.8,9.7-8.4,13.3-11.4c2,4.7,7.6,14.7,18.2,20.6
			c2.5,1.4,5.1,2.5,7.7,3.7c1.2,0.5,2.5,1.1,3.6,1.6c-1.9,0.8-3.7,1.8-5.4,2.9c-7.3-2.1-14.4-2.8-21-2c-10.4,1.3-18.9,6.3-24.6,14.4
			c-3.2,4.5-4.9,11.5-5.7,19.8c-1.8-1.7-3.7-3.3-5.7-4.7c-0.1-0.1-13.1-8.1-25,7.3c-3.3,4.3-4.3,10-2.9,16.7
			c0.9,4.2,2.6,8.5,5.1,12.8c-11.7,10.9-13.7,24.6-10.8,36c-7.6,7.2-13.3,14.9-15.9,22.9c-5.4,16.7-5.1,29.9,0.7,39.5
			c5.5,9,15.7,14.6,31.4,17.2c2,0.3,3.9,0.5,5.8,0.5c14.5,0,22.5-9.6,23.6-10.9c9.7-8.3,16-26,17.7-48.4c1.8,2.2,3.8,4.5,5.9,7.1
			c4.1,4.9,8.8,9.7,13.9,14.2c-3.1,8.7-2.1,17.3,1.5,24.9c-13.1,6.1-18.2,10.3-15.1,24c2.2,9.9,14.1,21.9,28.3,28.6
			c6.7,3.2,13.2,4.8,19,4.8c4.1,0,7.8-0.8,11.1-2.4c5.4-2.7,9-5.8,10.7-9.2c3.1-0.9,5.9-2.3,8.3-4.1c4.6-3.4,7.2-8.1,7.6-13.6
			c0.4-5.9-4.3-11.5-11.5-17.3c0.2-1.8,0.2-3.6-0.1-5.5c3.7,3.4,8.9,5.8,15.2,6.8v0c2.5,0.4,5.1,0.6,7.7,0.6
			c11.9,0,24.7-4.1,34.4-11.3c0.3-0.2,0.6-0.5,0.9-0.7c14.7,2.6,25,0,37.7-15.7c5-6.2,9.4-14.1,12.6-22.8c6.3-5.7,11-13.1,13.9-22.7
			c0.8-2.6,1.4-5.2,2-7.7C395.9,219.1,391,197.8,376.9,183.4z M118.7,141.7c1.3,3.6,0.5,8-2.1,10.6c-2.6,2.7-7.1,3.5-10.3,1.8
			c-3.3-1.7-5.1-5.8-4-9.3c1.4-4.5,6.2-7.4,11.5-8.9C116.1,137.4,117.8,139.3,118.7,141.7z M372.2,272.3c-8,7-18.8,11.2-32,13.8
			c0.8-5.8,1-11.4,0.6-16.6c1.9-0.5,3.7-1,5.3-1.6c11.5-4.3,19.3-12.6,21.3-22.8c2.4-12.2-5.5-27.8-19.7-38.9
			c-0.4-0.3-0.9-0.7-1.3-1c2.6-2.9,4.7-6,6-9.3c0.4-0.4,0.9-0.8,1.3-1.1c7.5,4.1,13.6,8.9,16.8,14.4
			C381.6,228,379.4,252.7,372.2,272.3z M323.7,309.1c-4.3-0.8-9.2-2.1-14.7-3.7c-1.4-0.4-2.9-0.9-4.3-1.4c3.9-3.3,7.4-7.3,10.5-11.7
			c0.3,0,0.7,0,1-0.1c7.1-0.6,13.9-1.4,20.2-2.5C334.2,298.7,328.7,305,323.7,309.1z M266.7,312.9c-0.9-1.1-1.7-2.2-2.3-3.5
			c0-0.1-0.1-0.2-0.1-0.3c7.4-2.7,14.8-5.6,21.9-8.9c0.7-0.3,1.4-0.7,2-1.1c3.6,2.3,7.1,4.2,10.6,5.7c-5.1,3.7-10.7,6.3-16.2,7.5
			C277.7,313.5,272.4,313.6,266.7,312.9z M260.1,354.1c-0.1,0.3-0.2,0.6-0.3,0.9c-10.6,2.7-24.1,0-34.1-7.6c-2-1.5-3.8-3.2-5.5-5
			c-3.1-3.5-4.3-6.5-3.6-9.2c0.5-2,2-3.8,4.2-5.6c2.2,1.8,4.5,3.3,6.9,4.7c5.8,3.3,12.5,5.4,18.8,5.4c2.4,0,4.7-0.3,6.9-1
			C258.6,343.9,261.2,349.4,260.1,354.1z M229.3,329.6c-2-1.1-4-2.4-5.9-3.9c4.3-2.8,10.4-5.4,17.2-8c1.1,2.7,2.4,5.1,4.1,7.3
			c2.6,3.3,4.9,6.3,6.9,9C244.7,335.7,236.3,333.6,229.3,329.6z M212.2,313.1c1-0.5,2-0.9,3.1-1.4c2.6-1.2,5.6-2.5,8.8-4
			c2.5-1.2,5.1-2.3,7.9-3.4c1.4,0.7,2.8,1.5,4.2,2.1c0.7,0.3,1.4,0.7,2.1,1c0.2,2.6,0.7,5,1.4,7.3c-7.6,2.9-14.1,5.7-18.7,8.9
			C217.5,320.7,214.5,317.1,212.2,313.1z M211.7,282.6c3.5,5.2,8.5,10.1,14.2,14.8c-5.4-3.4-10.7-7.3-15.7-11.5
			c0-0.1,0.1-0.2,0.1-0.3C210.8,284.6,211.2,283.6,211.7,282.6z M184.3,253.9c0,1.3,0,2.5-0.1,3.8c-5.6-6.6-9.5-11.6-12-17
			c0.1,0,0.2,0.1,0.2,0.1c3.6,1.5,7.4,2.4,11.5,2.8C184.2,247.1,184.3,250.6,184.3,253.9z M173.7,238.1c-1-0.4-1.9-0.8-2.9-1.3
			c-1.7-5.5-2-11.7-1-20.5c2.9-1.7,5.8-3.4,8.8-5c2.8,9.5,4.4,19.6,5.2,29.3C180.2,240.2,176.8,239.3,173.7,238.1z M165.4,211.2
			c-0.1-5.4-0.2-10.9-0.2-16.1c2.1-1,4-1.9,5.8-2.7c0.1,0.2,0.2,0.4,0.3,0.6c-1.5,5.2-2.6,10.5-3.5,15.6c-0.3,2-0.6,3.9-0.9,5.8
			c-0.5,0.3-1,0.6-1.6,0.9C165.4,214,165.4,212.6,165.4,211.2z M296.9,171.4c-4.3-1.3-8.4-2.5-12.2-3.8c1.4-0.8,2.9-1.6,4.2-2.4
			c0.6-0.3,1.2-0.7,1.9-1c1.2,0.3,2.4,0.5,3.6,0.7C295.3,167.1,296.1,169.2,296.9,171.4z M272.1,127.5c6.7,6.9,14.1,18.7,20.3,32.7
			c-0.7,0.3-1.3,0.6-2,0.9c-7.6-1.8-14.6-4.4-20.6-8.6c-5.5-3.8-11.6-9.7-9.5-15.6C261.6,133.2,266,129.9,272.1,127.5z M350.5,182.5
			c0.7,2.4,0.8,4.8,0.4,7.3c-5.7-2.8-12.1-5.3-18.8-7.6c-2.8-2.4-6-3.8-9.5-4.3c0.3-3.2,0.3-6.5,0.2-9.8c7.1,0.6,14,1.2,20.5,2.2
			C346.8,173.9,349.3,178,350.5,182.5z M315.6,286.3c-0.6,1.1-1.3,2.1-2,3.1c-5,0.1-10.3-0.7-15.7-2.4c0.8-2.1,1.4-4.5,1.7-7
			c0.6-4.6,0.5-9.6-0.1-15c0.3-0.2,0.7-0.4,1-0.7c7.4,3.6,14.8,5.5,21.6,6.2C321,275.5,318.8,280.9,315.6,286.3z M195.9,187.4
			c0.1,0.9,0.2,1.8,0.4,2.8c-0.1-0.2-0.3-0.3-0.4-0.4C195.9,188.9,195.9,188.2,195.9,187.4z M233.8,176.3c4.2,3.7,7.6,8.2,10.7,13.3
			c-5.7,4.9-10.2,10.2-12.9,15.9c-2.4,0.2-4.7,0.4-7.1,0.3c-9.5-0.1-17-3.2-21.4-8.5c13.3-7.8,24-15.1,29.2-22.1
			C232.8,175.5,233.3,175.9,233.8,176.3z M330.6,184.9c0.2,0.2,0.3,0.3,0.5,0.5c3.7,3.7,5.9,8.6,6.6,14.4c-5.9-3-12-5-18.3-5.8
			c1.3-3.7,2.2-7.7,2.8-11.8C325,183,327.8,183.9,330.6,184.9z M326.4,234.9c-4.8-4.5-10.7-7.7-17.4-9.4c0.2-2.1,0.3-4.3,0.3-6.4
			c10.7,0.7,20.2-2.1,27.4-6.2C335,219.8,331.6,227.4,326.4,234.9z M306,212.1c0.1,1.2,0.1,2.4,0.2,3.6c-1.6-0.2-3.2-0.5-4.8-0.9
			C303,214,304.6,213.1,306,212.1z M306.2,218.8c0,2-0.1,4.1-0.2,6.1c-4.4-0.8-9.1-1.1-14.1-0.8c-1.6,0.1-3.2,0.2-4.7,0.4
			c-0.5-1.1-1-2.3-1.5-3.4c4.1-1.3,8.1-2.7,11.6-4.3C300.3,217.7,303.3,218.4,306.2,218.8z M282.3,248.2c3.4-1,6.8-1.6,10-2
			c1.2,4,2.2,7.9,3,11.7c0,0.1-0.1,0.2-0.2,0.2c-2.4-1.4-4.7-3.1-7.1-4.9c-0.6-0.5-1.3-1-1.9-1.5l0,0
			C284.8,250.6,283.6,249.4,282.3,248.2z M279.9,245.8c-4.2-4.5-7.8-9.3-10.9-14.3c5.3-1.8,10.8-3.1,16.4-3.8
			c2.2,5.2,4.2,10.4,5.9,15.6C287.7,243.7,283.9,244.6,279.9,245.8z M295.2,245.9c2-0.1,4-0.1,5.9,0c-1.1,2.9-2.4,5.6-3.7,8.1
			C296.8,251.4,296.1,248.7,295.2,245.9z M298.3,242.8c-1.3,0-2.6,0.1-4,0.2c-1.7-5.2-3.7-10.4-5.9-15.6c1.2-0.1,2.4-0.2,3.7-0.3
			c4.9-0.3,9.4,0,13.6,0.8c-0.5,4.6-1.4,9.1-2.8,13.3c-0.2,0.6-0.4,1.2-0.6,1.8C301,242.8,299.6,242.8,298.3,242.8z M284.2,224.8
			c-5.7,0.8-11.3,2.2-16.7,4.1c-0.4-0.8-0.9-1.5-1.3-2.3c0.8-0.2,1.7-0.5,2.5-0.7c4.9-1.3,9.6-2.6,14.2-4
			C283.3,222.9,283.7,223.8,284.2,224.8z M267.9,223c-1.1,0.3-2.1,0.6-3.2,0.9c-1.3-2.4-2.5-4.8-3.6-7.2c0.3-0.2,0.6-0.3,0.9-0.5
			c4.7-2.5,9.5-5.1,14.2-7.6c1.9,3.5,3.7,7,5.4,10.6C277.2,220.5,272.6,221.7,267.9,223z M261.7,224.7c-8.5,2.3-17.1,4.9-24.9,8.2
			c-0.5-1-1-2-1.4-3c7.6-3.7,15.4-7.8,23-11.9C259.5,220.2,260.6,222.4,261.7,224.7z M263.2,227.4c0.5,0.8,0.9,1.7,1.4,2.5
			c-7.9,3-15.5,7-22.5,12c-1.4-2.2-2.7-4.3-3.9-6.4C245.9,232.3,254.5,229.8,263.2,227.4z M266.2,232.5c3,5,6.5,9.8,10.6,14.3
			c-1.7,0.6-3.4,1.2-5.2,2c-3.3,1.4-6.5,3.2-9.6,5.5c-0.5-1.2-1.3-2.3-2.2-3.2c-2.7-2.6-6.9-3.4-12.9-2.5c-1.1-1.4-2.2-2.9-3.2-4.3
			C250.8,239.4,258.3,235.4,266.2,232.5z M262.2,278.1c0.1,0.1,0.3,0.3,0.4,0.4c-0.2,0-0.3,0.1-0.5,0.1
			C262.2,278.5,262.2,278.3,262.2,278.1z M262.7,274.2c0.2-1.4,0.3-2.8,0.4-4.2c2.4,2.1,5,4.2,7.6,6.1c-1.6,0.6-3.1,1-4.6,1.5
			C265,276.5,263.8,275.4,262.7,274.2z M259.9,271.5c-1.8-1.8-3.6-3.7-5.4-5.6c0.6-0.7,1.2-1.5,1.8-2.2c1.3,1.3,2.6,2.6,4,3.8
			C260.2,268.8,260.1,270.1,259.9,271.5z M260.5,263.6c-0.7-0.7-1.4-1.4-2.1-2.1c0.6-0.7,1.3-1.3,2-1.9
			C260.5,260.9,260.5,262.2,260.5,263.6z M256.2,259.4c-2.5-2.6-4.9-5.3-7.1-8c0.8-0.1,1.5-0.1,2.2-0.1c2.9,0,5,0.7,6.4,2
			c0.8,0.8,1.4,1.8,1.8,3C258.4,257.2,257.3,258.3,256.2,259.4z M243.8,249.3c-1,0.3-2,0.6-3,1c-0.6-0.7-1.2-1.5-1.8-2.2
			c0.8-0.7,1.7-1.3,2.5-2C242.2,247.2,243,248.2,243.8,249.3z M245.8,251.9c2.6,3.2,5.4,6.5,8.4,9.6c-0.6,0.7-1.2,1.4-1.8,2.1
			c-3.1-3.4-6.3-7.1-9.6-10.9C243.8,252.4,244.8,252.1,245.8,251.9z M250.5,266.1c-2.8,3.8-5.2,8-7.1,12.6c-2-2.5-4-5-6.1-7.6
			c-1.9-2.4-3.9-4.8-5.9-7.2c0-0.1,0.1-0.3,0.1-0.4c1.2-4,4.2-7.3,8.4-9.4C243.5,258.2,247.1,262.3,250.5,266.1z M252.7,268.4
			c2.3,2.5,4.6,4.8,6.8,7.1c0,0.1,0,0.2,0,0.4c-0.1,1.1-0.3,2.3-0.4,3.5c-5.2,1-9.5,1-12.9,0.6C248,275.8,250.1,271.9,252.7,268.4z
			 M261.8,281.8c1.1-0.2,2.2-0.5,3.4-0.8c1.3,1.2,2.6,2.4,3.9,3.6c-2.6,1.6-5.2,3.1-7.8,4.4C261.4,286.6,261.6,284.2,261.8,281.8z
			 M268.7,280c1.6-0.5,3.3-1.1,5-1.7c0.8,0.5,1.5,1,2.3,1.5c-1.4,1-2.7,2-4.1,3C270.7,281.9,269.7,280.9,268.7,280z M277,276.9
			c0.2-0.1,0.4-0.1,0.6-0.2c1.4-0.6,2.7-1.2,4.1-1.8c-1.1,1-2.2,2-3.3,2.9C277.9,277.5,277.5,277.2,277,276.9z M276.4,273.9
			c-0.8,0.3-1.6,0.6-2.4,1c-3.6-2.6-7.1-5.4-10.7-8.6c0.2-3.3,0.1-6.4-0.4-9c3.1-2.4,6.4-4.4,9.8-5.8c2.1-0.9,4.2-1.6,6.3-2.3
			c1.6,1.7,3.4,3.3,5.2,4.8l1-1.2l-1,1.2c0.6,0.5,1.3,1.1,2,1.6c2.4,1.9,4.9,3.6,7.3,5.1c-1.9,2.9-3.8,5.5-5.9,7.9
			C284.1,270.5,280.4,272.3,276.4,273.9z M296.1,262.3c0.1,0.4,0.1,0.8,0.2,1.2c-0.6,0.4-1.2,0.7-1.8,1.1
			C295.1,263.9,295.6,263.1,296.1,262.3z M298.7,260.2c-0.1-0.6-0.2-1.1-0.3-1.7c2.1-3.7,4.1-7.8,5.8-12.3c2.9,0.4,5.6,1.2,7.9,2.4
			c0.6,0.3,1.2,0.6,1.8,1c-4.1,4-8.7,7.8-13.8,11.4C299.7,260.7,299.2,260.5,298.7,260.2z M313.5,245.9c-2.5-1.2-5.2-2.1-8.2-2.6
			c0.1-0.4,0.3-0.9,0.4-1.3c1.5-4.4,2.4-9,3-13.6c6.3,1.7,11.6,4.6,16,8.8c-2.5,3.4-5.4,6.8-8.6,10.1
			C315.3,246.9,314.4,246.4,313.5,245.9z M309.2,216.1c0-1.7-0.1-3.4-0.2-5.1c2,0.3,4.1,0.5,6.1,0.5c7.9,0,15.6-2.3,22.7-5.8
			c-0.1,1.1-0.2,2.2-0.3,3.3C330.4,213.5,320.5,216.9,309.2,216.1z M340.8,205c0.3,0.2,0.6,0.4,0.9,0.6c-0.3,0.3-0.7,0.6-1,0.9
			C340.8,206,340.8,205.5,340.8,205z M336.7,202.6c-8,4.1-16.9,6.5-25.8,5.5c1.6-1.6,3.1-3.4,4.4-5.5l0,0c1.1-1.8,2.1-3.8,3-5.8
			C324.6,197.6,330.8,199.5,336.7,202.6z M314,201.8l-1.3-0.8c-1.2,2-2.6,3.7-4.1,5.2c0,0-0.1,0-0.1,0.1c-0.4-3.3-0.9-6.5-1.4-9.6
			c2.7-0.3,5.3-0.3,8-0.2c-0.7,1.6-1.5,3.1-2.3,4.5L314,201.8z M305.6,207.2c-0.8-0.2-1.6-0.5-2.4-0.7c-3.8-1.3-7.6-3.3-11.4-5.6
			c4-1.8,8.1-3,12.2-3.7C304.7,200.5,305.2,203.8,305.6,207.2z M302.2,209.3c0.6,0.2,1.2,0.4,1.8,0.6c-2.1,1.3-4.4,2.6-6.9,3.7
			c-2.2-0.7-4.4-1.7-6.6-2.8c-3-1.5-5.7-3.4-8-5.5c2.1-1,4.1-2,6.1-3C293.1,205.2,297.6,207.7,302.2,209.3z M289.2,213.5
			c1.3,0.7,2.6,1.2,3.9,1.8c-2.7,1.1-5.7,2.1-8.7,3c-1.8-3.7-3.7-7.4-5.6-11.1c0.3-0.1,0.6-0.3,0.8-0.4
			C282.4,209.4,285.5,211.6,289.2,213.5z M277.3,204.6c0-0.1-0.1-0.1-0.1-0.2C277.3,204.5,277.3,204.5,277.3,204.6
			C277.4,204.6,277.3,204.6,277.3,204.6z M274.7,205.9c-4.8,2.5-9.5,5-14.2,7.6c-0.3,0.1-0.5,0.3-0.8,0.4c-0.9-2-1.9-4-2.8-6
			c-0.7-1.6-1.5-3.2-2.2-4.7c5.1-1.7,10.1-3.7,15-5.7C271.5,200.1,273.1,203,274.7,205.9z M254.3,209.1c0.9,2,1.9,4.1,2.9,6.2
			c-7.6,4.1-15.3,8.1-22.8,11.8c-0.9-2.4-1.5-4.6-1.9-6.7c-0.7-4.3-0.2-8.3,1.3-12.2c6-0.8,12.2-2.3,18.2-4.2
			C252.7,205.7,253.5,207.4,254.3,209.1z M235.2,205c2.4-4.5,6.2-8.7,10.8-12.8c1.6,2.9,3.1,5.9,4.6,9.1
			C245.5,202.9,240.3,204.3,235.2,205z M201.4,194.8c-0.5-0.8-0.9-1.6-1.3-2.5c-2.8-6.9-1.2-15.2,3.8-20c4.9-4.8,12-5.5,20-2.1
			c2.1,0.9,4.1,2,6,3.3C225,180,214.3,187.2,201.4,194.8z M197.9,196.9c-0.4,0.2-0.9,0.5-1.3,0.7c-0.1-1-0.2-2-0.3-2.9
			C196.8,195.4,197.3,196.1,197.9,196.9z M224.5,208.8c1.9,0,3.9-0.1,5.9-0.2c-1.3,3.9-1.7,8-0.9,12.4c0.4,2.3,1.1,4.8,2.2,7.4
			c-2,0.9-4,1.9-6,2.7c-1.7-2.3-3.5-4.6-5.3-7c-5.9-8-10.3-14.6-14-20C211.2,207.1,217.3,208.7,224.5,208.8z M232.8,231.2
			c0.4,0.9,0.9,1.9,1.4,2.9c-1.6,0.7-3.1,1.5-4.6,2.2c-0.7-0.9-1.4-1.8-2.1-2.7C229.2,232.8,231,232,232.8,231.2z M235.5,236.6
			c1.3,2.3,2.7,4.6,4.3,7c-0.9,0.7-1.8,1.4-2.7,2.1c-1.9-2.3-3.8-4.7-5.7-7.1C232.7,237.9,234.1,237.3,235.5,236.6z M234.7,247.7
			c-3.2,2.7-6.2,5.7-9.1,8.8c-0.6-0.7-1.1-1.4-1.7-2.2c-1.7-2.2-3.5-4.6-5.2-7c2.8-2.8,6.2-5.2,10-7.3
			C230.7,242.7,232.8,245.2,234.7,247.7z M236.6,250c0.4,0.5,0.9,1.1,1.3,1.6c-4.1,2.2-7.2,5.5-8.8,9.4c-0.6-0.7-1.1-1.4-1.7-2.1
			C230.4,255.7,233.4,252.8,236.6,250z M235,272.9c1.4,1.7,2.7,3.3,4.1,5c-1.8-0.8-3.1-1.8-4-2.6c-2.2-2-3.5-4.5-3.9-7.1
			C232.4,269.8,233.7,271.4,235,272.9z M244.3,284.6c2.5,3.1,4.8,6.1,6.9,9.1c-3.3,1.4-6.7,2.7-9.9,3.9c0.3-2.8,0.8-5.6,1.6-8.5
			C243.4,287.6,243.8,286.1,244.3,284.6z M246.9,282.9c3.3,0.3,7.2,0.2,11.9-0.6c-0.3,2.7-0.5,5.4-0.5,8.2c-1.4,0.7-2.8,1.3-4.2,1.9
			C251.8,289.4,249.4,286.2,246.9,282.9z M258.2,293.9c0,1.7,0.1,3.5,0.3,5.2c-0.8-1.3-1.8-2.7-2.7-4.1
			C256.6,294.6,257.4,294.2,258.2,293.9z M261.2,292.4c3.5-1.7,6.9-3.6,10.3-5.8c4.8,4.1,9.4,7.7,13.9,10.7
			c-0.1,0.1-0.3,0.1-0.4,0.2c-7,3.3-14.4,6.2-21.8,8.9C261.7,302.1,261.2,297.3,261.2,292.4z M274.2,284.8c1.5-1,3-2.1,4.5-3.3
			c4.9,3,10,5.6,15.2,7.4c-1.4,2.7-3.2,4.9-5.5,6.6C283.7,292.6,279,289,274.2,284.8z M281.1,279.5c3-2.6,5.9-5.4,8.6-8.6
			c2.4-1.3,4.7-2.7,7-4.1c0.5,4.6,0.5,8.9-0.1,12.8c-0.3,2.4-0.9,4.5-1.6,6.5C290.4,284.5,285.8,282.3,281.1,279.5z M303.3,262.4
			c4.8-3.5,9.2-7.2,13.1-11.1c2.8,2.3,4.7,5.3,5.7,8.8c0.6,2.1,0.7,4.7,0.4,7.5C316.4,267,309.9,265.4,303.3,262.4z M325,259.4
			c-1.2-4-3.4-7.5-6.5-10.1c3.1-3.2,5.8-6.4,8.3-9.7c4.2,4.7,7.2,10.8,9.1,18c0.8,3,1.3,6.2,1.7,9.6c-3.7,0.7-7.8,1-12.1,0.8
			C325.9,264.7,325.7,261.8,325,259.4z M338.8,256.8c-2.1-7.9-5.6-14.5-10.3-19.7c6.1-8.7,9.9-17.5,11.5-25.3
			c0.1-0.4,0.1-0.7,0.2-1.1c0.8-0.5,1.5-1.1,2.2-1.7c0.6-0.5,1.3-1.1,1.9-1.6c0.5,0.4,1.1,0.8,1.6,1.2c13.1,10.2,20.7,25,18.6,36
			c-1.8,9.1-8.8,16.6-19.4,20.6c-1.4,0.5-2.9,1-4.5,1.4C340.2,263.1,339.6,259.9,338.8,256.8z M342.9,202.8c1.2-0.7,2.3-1.5,3.4-2.2
			c-0.7,1-1.5,2-2.4,2.9C343.6,203.2,343.2,203,342.9,202.8z M349.9,193.9c-2.8,2.3-5.9,4.5-9.2,6.5c-0.4-5.1-1.9-9.7-4.5-13.5
			c4.9,1.9,9.6,3.8,14,6C350.1,193.3,350,193.6,349.9,193.9z M319.7,164.9c-7.7-0.6-15.6-1.2-23.1-2.5c-0.1-0.2-0.2-0.4-0.2-0.5
			c7.4-2.7,15.2-3.6,22.7-2.8C319.4,161,319.6,162.9,319.7,164.9z M319.9,167.9c0.1,3.3,0,6.5-0.3,9.7c-0.6,0-1.2,0-1.8,0
			c-4.5-1.4-9.1-2.7-13.6-4c-1.2-0.4-2.5-0.7-3.7-1.1c-0.8-2.3-1.7-4.6-2.6-6.9C305.1,166.7,312.5,167.3,319.9,167.9z M301.7,176
			c0.6,0.2,1.1,0.3,1.7,0.5c2.3,0.7,4.6,1.4,7,2c-2.3,0.5-4.8,1.1-7.3,1.9C302.7,178.9,302.2,177.3,301.7,176z M317.5,180.6
			c0.6,0.2,1.2,0.4,1.7,0.5c-0.6,4.5-1.6,8.7-2.9,12.4c-3.2-0.2-6.5-0.2-9.7,0.2c-0.8-3.7-1.6-7.2-2.5-10.4
			C308.9,181.8,313.4,180.8,317.5,180.6z M303.5,194.2c-4.7,0.8-9.3,2.2-13.7,4.3c-0.3,0.1-0.6,0.3-0.9,0.4
			c-2.8-1.9-5.5-3.9-8.3-6.1c0.1,0,0.1-0.1,0.2-0.1c7.2-3.1,14-6.1,20.3-8.4C302,187.6,302.8,190.9,303.5,194.2z M285.7,200.4
			c-1.8,0.9-3.7,1.8-5.6,2.8c-2.3-2.3-4.2-4.9-6-7.6c1.1-0.5,2.1-0.9,3.2-1.4C280.2,196.3,283,198.4,285.7,200.4z M272.6,192.9
			c-0.8-1.5-1.6-3-2.4-4.6c1.5,1.2,3,2.5,4.5,3.6C274,192.3,273.3,192.6,272.6,192.9z M265.7,185.5c-0.5-0.7-0.9-1.4-1.4-2.1
			c0.3,0.2,0.6,0.5,0.8,0.7C265.3,184.6,265.5,185.1,265.7,185.5z M268.2,194.8c-4.8,2-9.7,3.9-14.7,5.6c-1.7-3.5-3.4-6.9-5.2-10.1
			c3.5-2.8,7.3-5.5,11.4-8.2C262.5,186,265.4,190.3,268.2,194.8z M246.8,187.7c-3.1-5.2-6.7-9.8-11.1-13.6c-0.6-0.5-1.2-1-1.8-1.5
			c0.6-1.2,1.1-2.4,1.4-3.5c0.4-1.6,0.7-3,0.9-4.5c6.7,3,13.1,7.2,19.4,12c0.8,1,1.6,2.1,2.4,3.1C254,182.3,250.2,184.9,246.8,187.7
			z M236.5,161.5c0.1-1.1,0.1-2.1,0-3.1c2.7,1.9,5.3,3.9,7.9,6.1c0.9,0.8,1.9,1.7,2.9,2.7C243.8,165,240.2,163.1,236.5,161.5z
			 M233.6,160.3c-4.6-1.7-9.4-2.9-14.3-3.2c-5.6-0.4-10.5,0-14.9,0.9c0.2-0.3,0.3-0.5,0.5-0.8c2.8-3.9,6.1-7.1,9.9-9.6
			c6.2,1.9,12.5,4.9,18.6,8.8C233.5,157.5,233.6,158.8,233.6,160.3z M219.1,160.1c4.9,0.3,9.6,1.5,14.3,3.3c-0.2,1.5-0.5,3.2-0.9,5
			c-0.2,0.8-0.5,1.6-0.9,2.5c-2-1.3-4.1-2.5-6.4-3.4c-9-3.9-17.5-2.9-23.2,2.7c-2.9,2.8-4.8,6.5-5.6,10.5c0.8-7.1,2.7-13.5,5.9-19.1
			C207.1,160.1,212.7,159.6,219.1,160.1z M192.9,186.9c-2.1-1.6-4.3-2.3-6.9-2.3c-2.6,0-5.6,0.8-9.4,2.2c4.9-12.3,11.8-20.2,21.4-24
			C194.7,169.9,193,178.1,192.9,186.9z M187.9,187.8c1.8,0.4,3.4,1.4,5.1,3.1c0.1,2.7,0.4,5.5,0.8,8.3c-3.4,1.9-6.8,3.9-10.3,5.8
			c-1.1,0.6-2.1,1.2-3.2,1.8c-1.6-4.9-3.5-9.6-5.7-14c0.2-0.8,0.5-1.6,0.7-2.3C181.1,188.1,184.8,187.1,187.9,187.8z M177.7,208.3
			c-2.4,1.4-4.9,2.8-7.4,4.2c0.2-1.1,0.3-2.2,0.5-3.4c0.7-4.3,1.6-8.3,2.5-12C175,200.7,176.4,204.4,177.7,208.3z M165.4,183.8
			c1.5,1.9,2.8,3.9,4.1,6c-1.4,0.6-2.8,1.3-4.3,2C165.2,189,165.3,186.3,165.4,183.8z M162.4,235.9c-0.5,15.1-2.7,27.2-9.7,30
			c-8.3,3.3-19-3.9-24.3-16.5c-0.5-1.2-1-2.5-1.4-3.8c6.8-6.2,15-12.1,23.8-17.9C154.4,230.7,158.3,233.5,162.4,235.9z M138.3,209.3
			c3.3-2.8,7.4-5.3,12.4-7.6c4.3-1.9,8.1-3.7,11.5-5.3c0,4.9,0.1,9.9,0.2,14.8c0,1.9,0.1,3.9,0.1,5.8c-3.8,2.3-7.7,4.6-11.4,6.9
			C146,219.5,141.6,214.5,138.3,209.3z M153.5,226.1c3-1.9,6-3.7,9-5.5c0.1,4.1,0.1,8,0,11.9C159.4,230.5,156.3,228.4,153.5,226.1z
			 M165.5,218.8c0.4-0.2,0.7-0.4,1.1-0.6c-0.7,6.8-0.5,12.2,0.6,16.9c-0.1,0-0.2-0.1-0.2-0.1l-0.7,1.3l0.7-1.3
			c-0.5-0.2-0.9-0.5-1.4-0.8c0,0,0,0,0,0C165.6,229.3,165.6,224.1,165.5,218.8z M181.2,209.8c1.3-0.7,2.5-1.4,3.8-2.1
			c3.2-1.8,6.3-3.5,9.3-5.3c0.6,3.4,1.4,6.9,2.5,10.4c0.2,0.7,0.4,1.3,0.6,2c2.5,7.8,6.5,15.5,11.1,22.8c-8.1,2.4-15.2,3.5-21.6,3.2
			C186,230.6,184.2,219.9,181.2,209.8z M200.2,213.8c-0.2-0.6-0.4-1.3-0.6-1.9c-1.1-3.8-2-7.5-2.6-11.1c0.9-0.5,1.7-1,2.5-1.5
			c1.2,1.7,2.4,3.6,3.9,5.7c3.7,5.5,8.3,12.4,14.5,20.8c1.6,2.2,3.2,4.3,4.8,6.5c-0.5,0.2-1.1,0.5-1.6,0.7c-3.4,1.4-6.6,2.6-9.8,3.6
			C206.8,229.3,202.7,221.6,200.2,213.8z M222.3,235.8c0.8-0.3,1.6-0.7,2.3-1c0.8,1,1.5,2,2.2,2.9c-3.7,2.1-7,4.5-9.9,7.2
			c-1.3-1.9-2.6-3.8-3.9-5.7C216,238.2,219.1,237.1,222.3,235.8z M221.6,256.2c0.7,0.9,1.4,1.8,2,2.6c-4.6,5.3-8.6,11.2-12,17.4
			c-2.2-4.9-2.8-10-1.2-15.5c1.3-4.3,3.4-7.9,6.2-11.2C218.3,251.9,220,254.1,221.6,256.2z M225.5,261.2c0.9,1.1,1.8,2.2,2.7,3.4
			c-0.7,4.8,1,9.6,4.8,13c1.6,1.4,4.4,3.3,9,4.5c-0.7,2-1.4,4.1-2,6.2c-0.9,3.6-1.6,7.1-1.8,10.5c-0.2,0.1-0.3,0.1-0.5,0.2
			c-1.1,0.4-2.2,0.8-3.2,1.2c-8.8-6.4-16.8-13.3-21.3-20.7C216.7,272.9,220.8,266.8,225.5,261.2z M237.5,302.3
			c0.2-0.1,0.4-0.1,0.6-0.2c0,0.2,0,0.4,0,0.6C237.9,302.6,237.7,302.4,237.5,302.3z M246.8,312.2c-1.5,0.5-2.9,1.1-4.3,1.6
			c-0.4-1.5-0.8-3.2-1-4.8c0.4,0.2,0.8,0.3,1.2,0.5C244,310.4,245.4,311.3,246.8,312.2z M247.1,323.1c-1.5-1.9-2.7-4.1-3.7-6.5
			c2.1-0.8,4.3-1.6,6.5-2.3c4.7,3.2,9.3,6.3,13.2,9.3c-0.4,1.4-0.9,2.7-1.8,3.9c-1.8,2.6-4.1,4.4-6.7,5.5
			C252.4,329.8,249.8,326.6,247.1,323.1z M253,310c-3-0.9-6-2-9-3.3c-1-0.7-1.9-1.3-2.9-2c0-1.3-0.1-2.5,0-3.9
			c3.9-1.5,7.9-3,11.9-4.7c2.8,4,5.2,7.8,6.9,11.4C257.7,308.4,255.4,309.2,253,310C253.1,310,253,310,253,310z M261.2,310.3
			c0.3,0.7,0.5,1.3,0.8,1.9c-1.3-0.2-2.6-0.5-3.9-0.8C259.1,311,260.2,310.7,261.2,310.3z M291,297.3c2.4-2,4.3-4.4,5.7-7.3
			c4.9,1.5,9.9,2.4,14.7,2.5c-3,3.9-6.3,7.4-9.9,10.3C298.1,301.3,294.6,299.5,291,297.3z M317.3,289.2c0.3-0.5,0.6-0.9,0.8-1.4
			c3.5-5.8,5.8-11.7,6.9-17c1.1,0.1,2.1,0.1,3.2,0.1c3.4,0,6.6-0.3,9.6-0.8c0.3,5.1,0.1,10.6-0.7,16.2c0,0.1,0,0.2-0.1,0.3
			C330.9,287.8,324.4,288.6,317.3,289.2z M353.9,190.4c0.4-2.9,0.3-5.8-0.5-8.6c-1-3.8-2.8-7.3-5.3-10.5c6,1.3,11.5,3.2,16.3,6.1
			C362.1,181.4,358.5,186,353.9,190.4z M331.1,162.1c3,1.2,5.7,2.8,8.1,4.6c-5.3-0.7-10.8-1.2-16.4-1.6c-0.1-1.9-0.3-3.8-0.5-5.6
			C325.3,160.1,328.2,160.9,331.1,162.1z M296.7,124.2c8,0.5,15,8.2,19.3,21.1c1.1,3.4,2,7,2.6,10.7c-7.8-0.8-15.8,0.3-23.4,3.1
			c-5.9-13.4-13.1-25.1-20-32.6C281.5,124.6,289.1,123.7,296.7,124.2z M266.3,158.6c-10.4-11.2-15.5-21.7-14.1-28.7
			c0.7-3.7,3.3-6.5,7.7-8.5c0.5-0.2,1.1-0.3,1.7-0.3c2.2,0,5,1.5,8.2,4.3c-6.1,2.5-10.7,6.1-12.3,10.7c-1.5,4.2-0.8,11,10.6,19
			c5.5,3.8,11.7,6.4,18.4,8.2c-1.6,0.9-3.3,1.8-5,2.8c-0.2,0.1-0.4,0.2-0.6,0.3C274.1,163.8,268.8,161.3,266.3,158.6z M281.2,169.6
			c5,1.8,10.8,3.5,17,5.3c0.7,2.1,1.4,4.3,2.1,6.5c-6.5,2.3-13.4,5.3-20.7,8.5c-0.6,0.2-1.1,0.5-1.7,0.7c-2.3-1.9-4.7-3.8-7.1-5.8
			c-1.1-0.9-2.1-1.7-3.2-2.6c-0.5-1.4-1.1-2.7-1.6-4.1C271,175.2,276.1,172.4,281.2,169.6z M235.8,140.8
			c14.1-0.5,18.6,12.7,24.2,29.4c0.8,2.2,1.5,4.5,2.3,6.8c-0.3,0.2-0.5,0.3-0.8,0.5c-1.3-1.1-2.7-2.1-4-3.1c-4-5-7.8-9.1-11.1-12.1
			c-3.4-2.9-6.8-5.5-10.4-7.8c-1.3-5.9-4.7-9.6-9-12.4C229.8,141.3,232.8,140.9,235.8,140.8z M223.2,143.2c4,2.2,7.2,4.8,9,8.9
			c-4.7-2.7-9.4-5-14.1-6.6C219.7,144.6,221.4,143.8,223.2,143.2z M171.1,158.4c5.2-7.4,13-12,22.5-13.2c1.7-0.2,3.4-0.3,5.1-0.3
			c4,0,8.1,0.6,12.3,1.6c-3.2,2.5-6.1,5.5-8.6,8.9c-0.8,1.2-1.6,2.4-2.3,3.6c-14.6,4.6-22.6,16.1-27.2,29.3
			c-0.2,0.1-0.4,0.2-0.6,0.3c-2-3.3-4.1-6.4-6.6-9.2C166.4,170.4,167.9,162.9,171.1,158.4z M132.3,195.2c-1.2-5.8-0.4-10.7,2.4-14.3
			c5.2-6.7,10.4-8.3,14.4-8.3c3.8,0,6.4,1.6,6.6,1.7c2.5,1.8,4.8,3.8,7,6.2c-0.3,4-0.4,8.3-0.4,12.7c-0.2,0.1-0.4,0.2-0.6,0.3
			c-3.5,1.6-7.6,3.5-12.1,5.6c-5,2.3-9.2,4.9-12.7,7.7C134.6,202.8,133,199,132.3,195.2z M136.1,211.3c3.3,5,7.5,10,12.4,14.4
			c-8.2,5.3-15.8,10.9-22.3,16.6C124.2,232.3,126.2,220.8,136.1,211.3z M167.1,311.6l-0.2,0.2c-0.4,0.5-9.5,12.3-26.5,9.4
			c-9.4-1.6-22.7-4.9-29.3-15.8c-5.3-8.8-5.5-21.2-0.4-37c2.3-7.2,7.3-14,14-20.6c0.3,0.9,0.7,1.8,1,2.7c6,14.1,18.4,22,28.2,18.1
			c8.3-3.3,10.9-15.5,11.6-31.2c0.1,0,0.1,0.1,0.2,0.1l0,0c0.9,0.5,1.8,0.9,2.7,1.4c2.7,7.6,7.9,13.9,15.8,23.2
			C182.8,285,176.6,303.6,167.1,311.6z M195.1,270.6c-2.9-3.5-5.5-6.6-7.9-9.4c0,0-0.1-0.1-0.1-0.1c0.1-2.4,0.2-4.7,0.2-7.2
			c0-3.3-0.1-6.7-0.3-10.1c0.5,0,1,0,1.5,0c6.5,0,13.6-1.2,21.6-3.6c1.6,2.4,3.2,4.7,4.8,7c-3.3,3.6-5.8,7.9-7.3,12.8
			c-2.1,7.1-0.9,13.6,2.3,19.7c-0.7,1.4-1.4,2.8-2,4.2C203.3,279.7,199,275.3,195.1,270.6z M209.1,288.8c6.1,5.1,12.7,9.7,19.5,13.7
			c-2,0.8-4,1.7-5.8,2.5c-3.2,1.5-6.1,2.8-8.7,4c-1.1,0.5-2.2,1-3.3,1.5C207.7,303.9,206.7,296.5,209.1,288.8z M250.1,364
			c-7,3.5-16.8,2.7-27.4-2.4c-13.2-6.3-24.7-17.7-26.7-26.6c-2.6-11.6,0.7-14.7,13.6-20.6c2.3,4.1,5.4,7.9,9,11.2
			c-2.5,2.1-4.1,4.3-4.8,6.8c-1,3.8,0.4,7.7,4.2,11.9c1.8,2,3.8,3.8,5.9,5.4c8,6,18.1,9.1,27.5,9.1c2.2,0,4.3-0.2,6.4-0.5
			C256.2,360.4,253.6,362.2,250.1,364z M275,339.5c-0.3,4.6-2.6,8.6-6.4,11.5c-1.6,1.2-3.4,2.1-5.3,2.9c0.8-5.4-2.2-11.6-6.8-18.4
			c2.8-1.4,5.3-3.4,7.3-6.3c0.8-1.2,1.4-2.4,1.9-3.6C271.5,330.5,275.3,335.1,275,339.5z M254.1,313.5c3,0.9,6,1.5,8.9,2
			c0.4,1.6,0.6,3.2,0.6,4.6C260.7,318,257.5,315.8,254.1,313.5z M281.9,320.7l-0.2,1.5L281.9,320.7c-4.5-0.8-8.4-2.3-11.5-4.4
			c4.5,0.2,8.8-0.1,12.8-1c6.5-1.4,12.9-4.6,18.8-9.1c2.1,0.8,4.2,1.5,6.2,2.1c4.5,1.2,8.5,2.3,12.3,3.2
			C309.4,319.2,294.4,322.8,281.9,320.7z M359.9,294.7c-11.2,13.8-19.7,16.8-32.4,15.1c6.4-5.8,10.5-12.8,12.1-20.6
			c12-2.4,22.2-5.9,30.4-11.6C367.1,284.3,363.6,290.2,359.9,294.7z M385.9,250.3c-2,6.8-5,12.4-8.8,17c1.2-4,2.2-8.1,2.9-12.2
			c2.1-12.7,2.7-31.2-6.9-47.5c-3.4-5.9-9.5-10.8-17-15.1c4.7-4.5,8.4-9.3,10.9-13.6c2.9,2,5.5,4.2,7.8,6.6c13.4,13.7,18,34,13,57.3
			C387.3,245.2,386.6,247.8,385.9,250.3z"/>
	</g>
</g>
<g id="Hand_2">
	<g>
		<path class="st4" d="M499.6,487.2c-8.2-7.5-23-31.3-27.7-39.7c-4.7-8.4-14.1-17.2-17.3-23.4c-3.3-6.2,1.8-39.1,3.7-49.3
			c1.8-10.2,1.5-25.9,0.7-30.7c-0.7-4.7,3.1-21.7,2.6-29.8c-0.5-8-1.6-11.5-16.2-20.3c-14.6-8.8-36.5-13.9-39.8-13.9
			c-3.3,0-1.3,6-1.3,6s-2.7,0.2-9.7,0.4c-6.9,0.2-15,1.6-16.6,2.4c-1.6,0.7-0.7,7.1,7.5,10.8c8.2,3.7,14.2,2.2,16.6,2.2
			s13.7,6,13.7,6s-2.6-1.3-16.1-0.9c-13.5,0.4-18.3,0.5-26.5,2.4c-8.2,1.8-12,1.6-11.9,4.6c0.2,2.9,2.4,5.5,2.4,5.5s-4.6,1.5-4,6
			c0.5,4.6,6.9,15.7,11.5,25c4.6,9.3,9.1,25.6,12,38.3c2.9,12.8,7.7,25.2,15.3,37.1c7.7,11.9,19.7,29,27.4,39.4
			c7.7,10.4,13.1,17,18.3,30.3c2.6,6.7,1.4,2.8,2.1,4.7 M417.4,359.3c-1.3,4.6-10.8,7.8-14.8,5.5s-8.9-14.8-12.8-25.6
			c-3.8-10.8-10.6-16.2-10.6-16.2l5.3-2.6c0,0,2.2,0.9,8.2,3.3c6,2.4,13.6,2,16.7,7C412.6,335.6,418.7,354.7,417.4,359.3z"/>
		<path class="st5" d="M363.6,319.5c0,0,10.2-3.5,15.7,3.5"/>
		<path class="st5" d="M436.9,333.7c1,1.6,1.8,2.9,2.3,3.5"/>
		<path class="st5" d="M415.6,308c0,0,7.1,1.1,8.4,3.7c0.9,1.8,6.7,11.9,11,19"/>
		<path class="st5" d="M404.1,286.3c0,0,34,8,39.1,11.1c5.1,3.1,10.6,28.5,11.5,32.7c0.9,4.2,1.1,7.1,1.1,7.1"/>
		<path class="st5" d="M447.9,349.8c0,0,2.2,8.4,0.9,12.4c-1.3,4-2.6,5.1-2.6,5.1"/>
		<path class="st5" d="M401.4,363.5c0,0,5.1,4.7,10.6,7.9"/>
	</g>
</g>
<g id="Hand_1">
	<g>
		<path class="st6" d="M195.5,114.1c0,0-4.4,4.7-5,4.3c-0.7-0.4-7.2-5.8-7.6-7.9c-0.4-2.1,2.1-9.9,2.1-9.9l-3.8-8.4
			c0,0,0.1,5.5-3.5,9.9c-3.5,4.5-4.6,5.6-4.6,5.6l-14.5-6.6l10.4-12.6l-3.8-18.9l-2.4-2c0,0,1,11.5-0.5,14.2
			c-1.5,2.7-13.8,13.8-14.7,14.3c-0.9,0.5-1.6,2.5-3.2,1.7c-1.5-0.8-6.2-3.6-5.7-6.8c0.5-3.2,5.4-9.8,7.4-12.4s3-4,3-4l-1.6-5.7
			c0,0,4.9-14.6,20.6-7.9c15.7,6.7,21.3,21.3,23.8,29.3C194.2,98.4,195.5,114.1,195.5,114.1z"/>
		<path class="st7" d="M1.5,82.8C9.3,83.9,15.6,85,18.6,86c11.2,3.8,43.4,16.2,59.5,21.7c16,5.5,45.4,9.5,59.8,10.3
			c14.4,0.8,26.1,7,33.8,8.7c7.7,1.7,18,5.4,21.6,0.8c3.6-4.7,0.3-10.4,0.3-10.4s-7.6-10.2-19-13.3c-11.4-3.1-32.1-8.5-36.9-11.5
			c-4.8-3-1.4-12.2,2.1-16.5c3.5-4.3,14.7-6.3,23.2-4.6c8.5,1.7,19.3,7.1,21.2,10c2,2.9,6.5,20.4,6.6,22.4c0.1,2,2.8,13.6,2.8,13.6
			s3.8,5.5,7,6.5c3.2,1.1,5.2-1.9,5.7-5.4c0.6-3.5,0.9-12,0.8-18.2c-0.1-6.2-6.4-32.4-7.9-36.1c-1.5-3.7-3.4-8.3-9.9-11
			c-6.5-2.7-30.6-17-39.1-20.8c-8.5-3.8-9.6-6.9-18.4-3.2S70,45.3,64.3,46.3c-5.7,1-6.6,2.1-18.2-2.6S28.7,36.5,21.9,37
			c-2.4,0.2-10.8-1.9-20.4-4.7"/>
		<path class="st8" d="M158.2,41.5c-4.5-2.7-10.8-7.1-14.5-7.3c-4.6-0.1-8.1,2.7-8.1,2.7"/>
		<path class="st8" d="M199.1,63.7c0,0-4.5-5.5-6.6-6.1c-1.7-0.5-19.3-8.9-27.6-12.7"/>
	</g>
</g>
</svg>
