<?xml version="1.0" encoding="utf-8"?>
<!-- Generator: Adobe Illustrator 27.0.0, SVG Export Plug-In . SVG Version: 6.00 Build 0)  -->
<svg version="1.1" id="Capa_1" xmlns="http://www.w3.org/2000/svg" xmlns:xlink="http://www.w3.org/1999/xlink" x="0px" y="0px"
	 viewBox="0 0 32 32" style="enable-background:new 0 0 32 32;" xml:space="preserve">
<style type="text/css">
	.st0{fill:#A2ADA2;}
</style>
<path class="st0" d="M24.4,11.7c-1.6-0.4-1.1-1.4-0.4-1.4c0.1,0,0.1,0,0.2,0c0.4,0.2,3.3,1,5.1,2.3c0.1,0.1,0.3,0.2,0.5,0.2h0
	c0.3,0,0.6-0.1,0.7-0.8c0.1-1.1-1.8-2.3-2.7-2.7C27,8.9,26.1,9,26.5,8.5c0.4-0.4,2-0.9,2-1.5s-2.7-2.8-4.2-2.8
	c-1.5,0-1.6-1.3-1.8-1.6c-0.2-0.3-1.5-2.2-3.1-2.2c-1.6,0-2.9,1.3-2.9,2.1s0.1,2.1-0.6,2.1c-0.7,0-0.6-1.2-0.6-2.1s-1.3-2.1-2.9-2.1
	S9.7,2.3,9.5,2.7C9.3,3,9.1,4.2,7.6,4.2S3.5,6.5,3.5,7s1.6,1,2,1.5C5.9,9,5,8.9,4.1,9.4C3.3,9.8,1.4,11,1.5,12.1
	c0,0.7,0.4,0.8,0.7,0.8h0c0.2,0,0.4-0.1,0.5-0.2c1.8-1.4,4.7-2.1,5.1-2.3c0.1,0,0.1,0,0.2,0c0.7,0,1.1,1-0.4,1.4
	c-3.9,0.9-6.2,3.3-6.1,5.1c0.1,1.8,0.8,3.1,1.5,3.1c0,0,0,0,0,0c0.7,0,1.8-1.8,2.2-2.3c0.3-0.4,0.6-0.4,0.6-0.4l0,0
	c0,0,0.3,0.1,0.7,0.1c0.1,0,0.3,0,0.4-0.1c1.3-0.6,0.8-1.3,1.4-1.9c0.2-0.2,0.4-0.2,0.6-0.2c0.6,0,1.1,0.4,0.7,0.8
	c-0.5,0.5-0.8,1.9-0.5,2.5c0.3,0.5,0.2,1.4-0.3,1.4c-0.4,0-0.5-0.3-1.2-1.1c-0.3-0.3-0.6-0.4-0.9-0.4c-0.4,0-0.8,0.2-0.8,0.2
	s-2.6,2.1-2.6,3.1c0,0.5,0.2,0.5,0.4,1.1C3.4,24.3,4.5,26,5.6,26c1.2,0,1.5-1.4,1.8-1.8c0.2-0.3,0.6-0.9,1.2-0.9
	c0.1,0,0.3,0,0.4,0.1c0.8,0.3,0.2,1.2,0.2,1.2S6,27.1,7.1,29.4c0.9,2,2,2.1,4.3,2.1c0.4,0,0.8,0,1.2,0c3.2,0,2.8-5.7,2.8-5.7
	s0-0.8,0-3.4c0-2.1-0.2-4.2-0.4-5.1c0-0.3,0.1-0.5,0.4-0.6c0.2-0.1,0.4-0.1,0.6-0.1c0.2,0,0.4,0,0.6,0.1c0.3,0.1,0.4,0.3,0.4,0.6
	c-0.1,0.9-0.4,3.1-0.4,5.1c0,2.7,0,3.4,0,3.4s-0.3,5.7,2.8,5.7c0.4,0,0.8,0,1.2,0c2.3,0,3.3-0.1,4.3-2.1c1.1-2.3-2.1-4.9-2.1-4.9
	s-0.7-0.8,0.2-1.2c0.1-0.1,0.3-0.1,0.4-0.1c0.6,0,1,0.6,1.2,0.9c0.3,0.4,0.6,1.8,1.8,1.8s2.3-1.6,1.8-3.4c0.2-0.5,0.4-0.6,0.4-1.1
	c0-1-2.6-3.1-2.6-3.1s-0.3-0.2-0.8-0.2c-0.3,0-0.7,0.1-0.9,0.4c-0.6,0.8-0.7,1.1-1.2,1.1c-0.4,0-0.6-0.9-0.3-1.4
	c0.3-0.5,0-1.9-0.5-2.5c-0.4-0.4,0.2-0.8,0.7-0.8c0.2,0,0.5,0.1,0.6,0.2c0.6,0.6,0.1,1.3,1.4,1.9c0.1,0.1,0.3,0.1,0.4,0.1
	c0.4,0,0.7-0.1,0.7-0.1l0,0c0,0,0.3,0,0.6,0.4c0.3,0.4,1.5,2.3,2.2,2.3c0,0,0,0,0,0c0.7,0,1.4-1.3,1.5-3.1
	C30.6,15,28.3,12.6,24.4,11.7z M5.3,15.2C5,15.6,4.8,16,4.5,16c-0.1,0-0.2,0-0.3-0.1c-0.4-0.4,0.7-1.6,1.9-1.6c0.2,0,0.3,0,0.5,0.1
	C6.5,14.4,5.7,14.7,5.3,15.2z M8.2,7c-0.5-0.2-1.8,0-1.8-0.8c0-0.7,0.9-0.7,1-0.7l0,0c0,0,0.8,0,1.5,0.8C9,6.4,9.1,6.5,9.3,6.5
	c0.8,0,2-1.4,2-1.7c0.1-0.3,0.3-1.6,1-1.6c0.7,0,0.8,1.1,0.3,2.1c-0.4,1-0.5,1.2-0.6,2.3c0,0.5-0.3,0.8-0.6,0.8
	c-0.3,0-0.6-0.2-0.7-0.6c-0.1-0.2-0.2-0.3-0.3-0.3C10.1,7.5,9.6,8,9.2,8C8.6,8,8.7,7.1,8.2,7z M8.9,13c0.1-0.1,0.2-0.2,0.4-0.2
	c0,0,0.1,0,0.1,0c0.1,0,0.2,0,0.3,0c0.5,0,1.1-0.2,1.3-1.1c0.3-1.2,1.5-2.5,2.2-2.5c0.1,0,0.2,0,0.3,0.1c0.5,0.5-0.9,1.3-1.2,2.5
	c-0.2,1.2-0.3,2.2-1.8,2.2C9.2,14.1,8.6,13.4,8.9,13z M13.3,18.8c-0.5,0.7-1,1-1,1s-0.4,0.2-0.2,1.3c0.1,1.1,0.6,6.4-0.2,7.6
	c-0.1,0.2-0.4,0.3-0.7,0.3c-0.7,0-1.4-0.6-0.8-1.7c0.9-1.6,1-3.4,0.7-4.8c-0.3-1.4-0.4-4.3,1.3-5.1c0.2-0.1,0.3-0.1,0.4-0.1
	c0.4,0,0.5,0.3,0.5,0.3S13.7,18.3,13.3,18.8z M17,15c-0.2,0-0.5,0.1-1,0.1c-0.4,0-0.8,0-1-0.1c-0.3,0-0.5-0.3-0.5-0.6
	c0-7.1,1.3-7.3,1.4-7.3h0l0,0l0,0l0,0l0,0c0,0,0,0,0,0c0.2,0,1.4,0.2,1.4,7.3C17.4,14.7,17.2,15,17,15z M19.6,3.3
	c0.7,0,0.9,1.2,1,1.6c0.1,0.3,1.2,1.7,2,1.7c0.2,0,0.3-0.1,0.5-0.2c0.7-0.7,1.5-0.8,1.5-0.8l0,0c0.1,0,1,0,1,0.7
	c0,0.7-1.3,0.6-1.8,0.8c-0.5,0.2-0.4,1.1-1,1.1c-0.4,0-0.9-0.5-1.3-0.5c-0.1,0-0.2,0.1-0.3,0.3c-0.1,0.4-0.4,0.6-0.7,0.6
	S20,8.2,19.9,7.7c-0.1-1.1-0.2-1.2-0.6-2.3C18.9,4.4,18.9,3.3,19.6,3.3z M20.7,29c-0.3,0-0.5-0.1-0.7-0.3c-0.8-1.2-0.3-6.5-0.2-7.6
	c0.1-1-0.2-1.3-0.2-1.3s-0.5-0.4-1-1c-0.4-0.6-0.2-1.1-0.2-1.1s0.1-0.3,0.5-0.3c0.1,0,0.3,0,0.4,0.1c1.7,0.8,1.6,3.7,1.3,5.1
	c-0.3,1.4-0.3,3.2,0.7,4.8C22.1,28.4,21.4,29,20.7,29z M21.5,14.1c-1.5,0-1.6-1-1.8-2.2c-0.2-1.2-1.7-1.9-1.2-2.5
	c0.1-0.1,0.2-0.1,0.3-0.1c0.7,0,1.9,1.2,2.2,2.5c0.2,0.9,0.8,1.1,1.3,1.1c0.1,0,0.2,0,0.3,0c0,0,0.1,0,0.1,0c0.2,0,0.3,0.1,0.4,0.2
	C23.4,13.4,22.8,14.1,21.5,14.1z M27.8,15.9C27.7,16,27.6,16,27.5,16c-0.3,0-0.5-0.4-0.8-0.8c-0.4-0.5-1.2-0.8-1.2-0.8
	c0.2,0,0.3-0.1,0.5-0.1C27.2,14.3,28.3,15.5,27.8,15.9z"/>
</svg>
