<?xml version="1.0" encoding="utf-8"?>
<!-- Generator: Adobe Illustrator 24.0.0, SVG Export Plug-In . SVG Version: 6.00 Build 0)  -->
<svg version="1.1" id="Capa_1" xmlns="http://www.w3.org/2000/svg" xmlns:xlink="http://www.w3.org/1999/xlink" x="0px" y="0px"
	 viewBox="0 0 32 32" style="enable-background:new 0 0 32 32;" xml:space="preserve">
<style type="text/css">
	.st0{fill:#7D8C7D;}
	.st1{fill:#FFFFFF;}
</style>
<circle class="st0" cx="16" cy="16" r="16"/>
<path class="st1" d="M50.4,16.3c-0.8-0.2-0.5-0.6-0.2-0.6c0.1,0,0.1,0,0.1,0c0.2,0.1,1.6,0.5,2.4,1.1c0.1,0.1,0.1,0.1,0.2,0.1l0,0
	c0.1,0,0.3-0.1,0.3-0.3c0.1-0.5-0.9-1.1-1.3-1.3c-0.3-0.2-0.8-0.1-0.6-0.3c0.2-0.2,0.9-0.4,0.9-0.7c0-0.3-1.3-1.3-2-1.3
	c-0.7,0-0.8-0.6-0.9-0.8C49.4,12,48.8,11,48.1,11s-1.3,0.6-1.3,1s0.1,1-0.3,1c-0.3,0-0.3-0.5-0.3-1s-0.6-1-1.3-1
	c-0.7,0-1.3,0.9-1.4,1.1c-0.1,0.1-0.2,0.7-0.9,0.7s-1.9,1-1.9,1.3s0.7,0.5,0.9,0.7c0.2,0.2-0.2,0.2-0.6,0.4
	c-0.4,0.2-1.3,0.8-1.2,1.3c0,0.3,0.2,0.3,0.3,0.3l0,0c0.1,0,0.2-0.1,0.2-0.1c0.9-0.6,2.2-1,2.4-1.1c0.1,0,0.1,0,0.1,0
	c0.3,0,0.5,0.5-0.2,0.6c-1.8,0.4-2.9,1.6-2.8,2.4c0.1,0.9,0.3,1.4,0.7,1.4l0,0c0.3,0,0.9-0.9,1-1.1c0.1-0.2,0.3-0.2,0.3-0.2l0,0
	c0,0,0.1,0.1,0.3,0.1c0.1,0,0.1,0,0.2-0.1c0.6-0.3,0.3-0.6,0.6-0.9c0.1-0.1,0.2-0.1,0.3-0.1c0.3,0,0.5,0.2,0.3,0.3
	c-0.2,0.2-0.3,0.9-0.2,1.2c0.1,0.2,0.1,0.6-0.1,0.6c-0.2,0-0.2-0.1-0.5-0.5c-0.1-0.1-0.3-0.2-0.4-0.2c-0.2,0-0.3,0.1-0.3,0.1
	s-1.2,1-1.2,1.4c0,0.2,0.1,0.2,0.2,0.5c-0.1,0.7,0.3,1.5,0.9,1.5c0.5,0,0.7-0.6,0.9-0.9c0.1-0.1,0.3-0.4,0.5-0.4
	c0.1,0,0.1,0,0.2,0.1c0.4,0.3,0.1,0.7,0.1,0.7s-1.6,1.2-1,2.3c0.4,0.9,0.9,1,2,1c0.2,0,0.3,0,0.5,0c1.5,0,1.3-2.7,1.3-2.7
	s0-0.3,0-1.6c0-1-0.1-2-0.2-2.4c0-0.1,0.1-0.2,0.2-0.3s0.2-0.1,0.3-0.1c0.1,0,0.2,0,0.3,0.1s0.2,0.1,0.2,0.3
	c-0.1,0.4-0.2,1.4-0.2,2.4c0,1.3,0,1.6,0,1.6s-0.1,2.7,1.3,2.7c0.2,0,0.3,0,0.5,0c1.1,0,1.6-0.1,2-1c0.5-1.1-1-2.3-1-2.3
	s-0.3-0.3,0.1-0.5c0.1-0.1,0.1-0.1,0.2-0.1c0.3,0,0.5,0.3,0.5,0.4c0.1,0.2,0.3,0.9,0.9,0.9s1.1-0.8,0.9-1.6c0.1-0.2,0.2-0.3,0.2-0.5
	c0-0.5-1.2-1.4-1.2-1.4s-0.1-0.1-0.3-0.1c-0.1,0-0.3,0.1-0.4,0.2C50,19.8,50,20,49.8,20c-0.2,0-0.3-0.4-0.1-0.6
	c0.1-0.2,0-0.9-0.2-1.2c-0.2-0.2,0.1-0.3,0.3-0.3c0.1,0,0.2,0.1,0.3,0.1c0.3,0.3,0.1,0.6,0.6,0.9c0.1,0.1,0.1,0.1,0.2,0.1
	c0.2,0,0.3-0.1,0.3-0.1l0,0c0,0,0.1,0,0.3,0.2c0.1,0.2,0.7,1.1,1,1.1l0,0c0.3,0,0.6-0.6,0.7-1.4C53.3,17.8,52.2,16.7,50.4,16.3z
	 M41.5,17.9c-0.2,0.2-0.2,0.3-0.3,0.3c-0.1,0-0.1,0-0.1-0.1c-0.2-0.2,0.3-0.8,0.9-0.8c0.1,0,0.1,0,0.2,0.1
	C42,17.5,41.7,17.7,41.5,17.9z M42.9,14.1c-0.2-0.1-0.9,0-0.9-0.3c0-0.3,0.4-0.3,0.5-0.3l0,0c0,0,0.3,0,0.7,0.3
	c0.1,0.1,0.1,0.1,0.2,0.1c0.3,0,0.9-0.6,0.9-0.8c0.1-0.1,0.1-0.8,0.5-0.8c0.3,0,0.4,0.5,0.2,0.9c-0.2,0.4-0.2,0.5-0.2,1
	c0,0.2-0.1,0.3-0.3,0.3c-0.1,0-0.3-0.1-0.3-0.3C44,14.3,44,14.3,44,14.3c-0.2,0-0.4,0.2-0.6,0.2C43,14.6,43.1,14.2,42.9,14.1z
	 M43.2,16.9c0.1-0.1,0.1-0.1,0.2-0.1h0.1c0.1,0,0.1,0,0.1,0c0.2,0,0.5-0.1,0.6-0.5c0.1-0.5,0.7-1.2,1-1.2c0.1,0,0.1,0,0.1,0.1
	c0.2,0.2-0.4,0.6-0.5,1.2c-0.1,0.5-0.1,1-0.9,1C43.3,17.4,43,17.1,43.2,16.9z M45.2,19.6c-0.2,0.3-0.5,0.5-0.5,0.5s-0.2,0.1-0.1,0.6
	c0.1,0.5,0.3,3-0.1,3.5c-0.1,0.1-0.2,0.1-0.3,0.1c-0.3,0-0.6-0.3-0.3-0.8c0.4-0.8,0.5-1.6,0.3-2.2c-0.1-0.6-0.2-2,0.6-2.4
	c0.1-0.1,0.1-0.1,0.2-0.1c0.2,0,0.2,0.1,0.2,0.1S45.4,19.4,45.2,19.6z M47,17.8c-0.1,0-0.2,0.1-0.5,0.1c-0.2,0-0.3,0-0.5-0.1
	c-0.1,0-0.2-0.1-0.2-0.3c0-3.3,0.6-3.4,0.6-3.4l0,0l0,0l0,0l0,0l0,0l0,0c0.1,0,0.6,0.1,0.6,3.4C47.1,17.7,47,17.8,47,17.8z
	 M48.2,12.4c0.3,0,0.4,0.5,0.5,0.8c0.1,0.1,0.5,0.8,0.9,0.8c0.1,0,0.1-0.1,0.2-0.1c0.3-0.3,0.7-0.3,0.7-0.3l0,0c0.1,0,0.5,0,0.5,0.3
	c0,0.3-0.6,0.3-0.8,0.4c-0.3,0.1-0.2,0.5-0.5,0.5c-0.2,0-0.4-0.2-0.6-0.2c-0.1,0-0.1,0.1-0.1,0.1c-0.1,0.2-0.2,0.3-0.3,0.3
	s-0.2-0.2-0.3-0.4c-0.1-0.5-0.1-0.5-0.3-1.1C47.8,12.9,47.8,12.4,48.2,12.4z M48.6,24.3c-0.1,0-0.2-0.1-0.3-0.1
	c-0.3-0.5-0.1-3-0.1-3.5c0.1-0.5-0.1-0.6-0.1-0.6s-0.2-0.2-0.5-0.5c-0.2-0.3-0.1-0.5-0.1-0.5s0.1-0.1,0.2-0.1c0.1,0,0.1,0,0.2,0.1
	c0.8,0.3,0.8,1.7,0.6,2.4c-0.1,0.6-0.1,1.5,0.3,2.2C49.3,24.1,49,24.3,48.6,24.3z M49,17.4c-0.7,0-0.8-0.5-0.9-1
	c-0.1-0.5-0.8-0.9-0.5-1.2c0.1-0.1,0.1-0.1,0.1-0.1c0.3,0,0.9,0.5,1,1.2c0.1,0.4,0.3,0.5,0.6,0.5c0.1,0,0.1,0,0.1,0h0.1
	c0.1,0,0.1,0.1,0.2,0.1C49.9,17.1,49.6,17.4,49,17.4z M51.9,18.2c0,0.1-0.1,0.1-0.1,0.1c-0.1,0-0.2-0.2-0.3-0.3
	c-0.2-0.2-0.5-0.3-0.5-0.3c0.1,0,0.1-0.1,0.2-0.1C51.7,17.5,52.2,18,51.9,18.2z"/>
<g>
	<g>
		<path class="st1" d="M12.3,16.7H6.4c-0.1,0-0.1,0-0.1,0.1v1.9c0,0.7,0.2,1.3,0.6,1.8c0.4,0.5,0.9,0.7,1.6,0.7c0.6,0,1-0.2,1.4-0.5
			c0.4-0.3,0.6-0.8,0.8-1.3c0.1-0.2,0.1-0.2,0.3-0.2l1.3,0.1c0.1,0,0.1,0,0.2,0.1c0.1,0.1,0.1,0.1,0.1,0.2c-0.1,1-0.6,1.8-1.3,2.4
			c-0.7,0.6-1.6,0.9-2.8,0.9c-1.2,0-2.2-0.4-3-1.1C4.8,21,4.4,20,4.4,18.8v-5.6c0-1.2,0.4-2.1,1.1-2.9c0.7-0.7,1.7-1.1,3-1.1
			c1.3,0,2.2,0.4,3,1.1c0.7,0.7,1.1,1.7,1.1,2.9v3.3C12.6,16.6,12.5,16.7,12.3,16.7z M6.9,11.5c-0.4,0.5-0.6,1.1-0.6,1.8v1.7
			c0,0.1,0,0.1,0.1,0.1h4.3c0.1,0,0.1,0,0.1-0.1v-1.7c0-0.7-0.2-1.4-0.6-1.8c-0.4-0.5-1-0.7-1.6-0.7C7.8,10.8,7.3,11,6.9,11.5z"/>
		<path class="st1" d="M26.7,10.4c0.6,0.8,0.9,1.8,0.9,3.2v8.8c0,0.2-0.1,0.3-0.3,0.3H26c-0.2,0-0.3-0.1-0.3-0.3v-8.6
			c0-0.9-0.2-1.6-0.6-2.1c-0.4-0.5-0.9-0.8-1.5-0.8c-0.7,0-1.2,0.3-1.6,0.8c-0.4,0.5-0.6,1.2-0.6,2.1v8.7c0,0.2-0.1,0.3-0.3,0.3H20
			c-0.2,0-0.3-0.1-0.3-0.3v-8.6c0-0.9-0.2-1.6-0.6-2.1c-0.4-0.5-0.9-0.8-1.4-0.8c-0.7,0-1.2,0.3-1.6,0.8c-0.4,0.5-0.6,1.2-0.6,2.1
			v8.7c0,0.2-0.1,0.3-0.3,0.3H14c-0.2,0-0.3-0.1-0.3-0.3V9.7c0-0.2,0.1-0.3,0.3-0.3h1.3c0.2,0,0.3,0.1,0.3,0.3v0.8c0,0,0,0.1,0,0.1
			c0,0,0.1,0,0.1,0c0.3-0.4,0.7-0.8,1.2-1c0.5-0.2,0.9-0.3,1.4-0.3c0.7,0,1.2,0.2,1.7,0.5c0.5,0.3,0.9,0.8,1.1,1.4
			c0,0,0,0.1,0.1,0.1c0,0,0.1,0,0.1-0.1c0.3-0.6,0.7-1.1,1.3-1.4c0.5-0.3,1.1-0.4,1.7-0.4C25.4,9.2,26.2,9.6,26.7,10.4z"/>
	</g>
</g>
</svg>
