<?xml version="1.0" encoding="utf-8"?>
<!-- Generator: Adobe Illustrator 24.0.0, SVG Export Plug-In . SVG Version: 6.00 Build 0)  -->
<svg version="1.1" id="Capa_1" xmlns="http://www.w3.org/2000/svg" xmlns:xlink="http://www.w3.org/1999/xlink" x="0px" y="0px"
	 viewBox="0 0 32 32" style="enable-background:new 0 0 32 32;" xml:space="preserve">
<style type="text/css">
	.st0{fill:#A2ADA2;}
</style>
<path class="st0" d="M24.6,11.6c-1.6-0.4-1.1-1.4-0.4-1.4c0.1,0,0.1,0,0.2,0c0.4,0.2,3.4,1,5.2,2.4c0.1,0.1,0.3,0.2,0.5,0.2l0,0
	c0.3,0,0.6-0.1,0.7-0.8c0.1-1.1-1.9-2.4-2.8-2.8c-0.8-0.4-1.7-0.3-1.3-0.8c0.4-0.4,2.1-0.9,2.1-1.5s-2.8-2.9-4.3-2.9
	c-1.5,0-1.6-1.3-1.9-1.6C22.5,2,21.1,0,19.5,0s-3,1.3-3,2.2s0.1,2.2-0.6,2.2c-0.7,0-0.6-1.2-0.6-2.2S13.9,0,12.3,0s-2.8,2-3,2.4
	c-0.2,0.3-0.4,1.5-2,1.5S3.1,6.3,3.1,6.8s1.6,1,2.1,1.5c0.4,0.5-0.5,0.4-1.4,0.9C2.9,9.7,1,10.9,1.1,12c0,0.7,0.4,0.8,0.7,0.8l0,0
	c0.2,0,0.4-0.1,0.5-0.2c1.9-1.4,4.8-2.2,5.2-2.4c0.1,0,0.1,0,0.2,0c0.7,0,1.1,1-0.4,1.4c-4,0.9-6.4,3.4-6.3,5.2
	c0.1,1.9,0.8,3.2,1.5,3.2l0,0c0.7,0,1.9-1.9,2.3-2.4c0.3-0.4,0.6-0.4,0.6-0.4l0,0c0,0,0.3,0.1,0.7,0.1c0.1,0,0.3,0,0.4-0.1
	c1.3-0.6,0.8-1.3,1.4-2c0.2-0.2,0.4-0.2,0.6-0.2c0.6,0,1.1,0.4,0.7,0.8c-0.5,0.5-0.8,2-0.5,2.6c0.3,0.5,0.2,1.4-0.3,1.4
	c-0.4,0-0.5-0.3-1.2-1.1c-0.3-0.3-0.6-0.4-0.9-0.4c-0.4,0-0.8,0.2-0.8,0.2s-2.7,2.2-2.7,3.2c0,0.5,0.2,0.5,0.4,1.1
	c-0.3,1.5,0.8,3.3,2,3.3c1.2,0,1.5-1.4,1.9-1.9c0.2-0.3,0.6-0.9,1.2-0.9c0.1,0,0.3,0,0.4,0.1C9.6,24,9,24.9,9,24.9s-3.3,2.6-2.2,4.9
	c0.9,2.1,2.1,2.2,4.4,2.2c0.4,0,0.8,0,1.2,0c3.3,0,2.9-5.9,2.9-5.9s0-0.8,0-3.5c0-2.2-0.2-4.3-0.4-5.2c0-0.3,0.1-0.5,0.4-0.6
	c0.2-0.1,0.4-0.1,0.6-0.1c0.2,0,0.4,0,0.6,0.1c0.3,0.1,0.4,0.3,0.4,0.6c-0.1,0.9-0.4,3.2-0.4,5.2c0,2.8,0,3.5,0,3.5S16.3,32,19.5,32
	c0.4,0,0.8,0,1.2,0c2.4,0,3.4-0.1,4.4-2.2c1.1-2.4-2.2-5-2.2-5s-0.7-0.8,0.2-1.2c0.1-0.1,0.3-0.1,0.4-0.1c0.6,0,1,0.6,1.2,0.9
	c0.3,0.4,0.6,1.9,1.9,1.9s2.4-1.6,1.9-3.5c0.2-0.5,0.4-0.6,0.4-1.1c0-1-2.7-3.2-2.7-3.2s-0.3-0.2-0.8-0.2c-0.3,0-0.7,0.1-0.9,0.4
	c-0.6,0.8-0.7,1.1-1.2,1.1c-0.4,0-0.6-0.9-0.3-1.4c0.3-0.5,0-2-0.5-2.6c-0.4-0.4,0.2-0.8,0.7-0.8c0.2,0,0.5,0.1,0.6,0.2
	c0.6,0.6,0.1,1.3,1.4,2c0.1,0.1,0.3,0.1,0.4,0.1c0.4,0,0.7-0.1,0.7-0.1l0,0c0,0,0.3,0,0.6,0.4c0.3,0.4,1.5,2.4,2.3,2.4l0,0
	c0.7,0,1.4-1.3,1.5-3.2C31,15,28.7,12.6,24.6,11.6z M5,15.2c-0.3,0.4-0.5,0.8-0.8,0.8c-0.1,0-0.2,0-0.3-0.1c-0.4-0.4,0.7-1.6,2-1.6
	c0.2,0,0.3,0,0.5,0.1C6.2,14.4,5.4,14.7,5,15.2z M8,6.8C7.5,6.6,6.1,6.8,6.1,6c0-0.7,0.9-0.7,1-0.7l0,0c0,0,0.8,0,1.5,0.8
	c0.1,0.1,0.2,0.2,0.4,0.2c0.8,0,2.1-1.4,2.1-1.7c0.1-0.3,0.3-1.6,1-1.6S13,4,12.5,5c-0.4,1-0.5,1.2-0.6,2.4c0,0.5-0.3,0.8-0.6,0.8
	c-0.3,0-0.6-0.2-0.7-0.6c-0.1-0.2-0.2-0.3-0.3-0.3C9.9,7.3,9.4,7.8,9,7.8C8.4,7.8,8.5,6.9,8,6.8z M8.7,13c0.1-0.1,0.2-0.2,0.4-0.2
	h0.1c0.1,0,0.2,0,0.3,0c0.5,0,1.1-0.2,1.3-1.1c0.3-1.2,1.5-2.6,2.3-2.6c0.1,0,0.2,0,0.3,0.1c0.5,0.5-0.9,1.3-1.2,2.6
	C12,13,11.9,14,10.3,14C9,14.1,8.4,13.4,8.7,13z M13.2,18.9c-0.5,0.7-1,1-1,1s-0.4,0.2-0.2,1.3c0.1,1.1,0.6,6.6-0.2,7.8
	c-0.1,0.2-0.4,0.3-0.7,0.3c-0.7,0-1.4-0.6-0.8-1.7c0.9-1.6,1-3.5,0.7-4.9c-0.3-1.4-0.4-4.4,1.3-5.2c0.2-0.1,0.3-0.1,0.4-0.1
	c0.4,0,0.5,0.3,0.5,0.3S13.6,18.4,13.2,18.9z M17,15c-0.2,0-0.5,0.1-1,0.1c-0.4,0-0.8,0-1-0.1c-0.3,0-0.5-0.3-0.5-0.6
	c0-7.3,1.3-7.5,1.4-7.5l0,0l0,0l0,0l0,0l0,0l0,0c0.2,0,1.4,0.2,1.4,7.5C17.4,14.7,17.2,15,17,15z M19.7,3c0.7,0,0.9,1.2,1,1.6
	c0.1,0.3,1.2,1.7,2.1,1.7c0.2,0,0.3-0.1,0.5-0.2c0.7-0.7,1.5-0.8,1.5-0.8l0,0c0.1,0,1,0,1,0.7S24.5,6.7,24,6.9C23.5,7.1,23.6,8,23,8
	c-0.4,0-0.9-0.5-1.3-0.5c-0.1,0-0.2,0.1-0.3,0.3c-0.1,0.4-0.4,0.6-0.7,0.6c-0.3,0-0.5-0.4-0.6-0.9c-0.1-1.1-0.2-1.2-0.6-2.4
	C19,4.1,19,3,19.7,3z M20.8,29.4c-0.3,0-0.5-0.1-0.7-0.3c-0.8-1.2-0.3-6.7-0.2-7.8c0.1-1-0.2-1.3-0.2-1.3s-0.5-0.4-1-1
	c-0.4-0.6-0.2-1.1-0.2-1.1s0.1-0.3,0.5-0.3c0.1,0,0.3,0,0.4,0.1c1.7,0.8,1.6,3.8,1.3,5.2c-0.3,1.4-0.3,3.3,0.7,4.9
	C22.3,28.8,21.6,29.4,20.8,29.4z M21.7,14.1c-1.5,0-1.6-1-1.9-2.3c-0.2-1.2-1.7-2-1.2-2.6c0.1-0.1,0.2-0.1,0.3-0.1
	c0.7,0,2,1.2,2.3,2.6c0.2,0.9,0.8,1.1,1.3,1.1c0.1,0,0.2,0,0.3,0h0.1c0.2,0,0.3,0.1,0.4,0.2C23.6,13.4,23,14.1,21.7,14.1z
	 M28.1,15.9c-0.1,0.1-0.2,0.1-0.3,0.1c-0.3,0-0.5-0.4-0.8-0.8c-0.4-0.5-1.2-0.8-1.2-0.8c0.2,0,0.3-0.1,0.5-0.1
	C27.5,14.3,28.7,15.5,28.1,15.9z"/>
</svg>
