<?xml version="1.0" encoding="utf-8"?>
<!-- Generator: Adobe Illustrator 24.0.0, SVG Export Plug-In . SVG Version: 6.00 Build 0)  -->
<svg version="1.1" id="Capa_1" xmlns="http://www.w3.org/2000/svg" xmlns:xlink="http://www.w3.org/1999/xlink" x="0px" y="0px"
	 viewBox="0 0 545.5 442.4" style="enable-background:new 0 0 545.5 442.4;" xml:space="preserve">
<style type="text/css">
	.st0{fill:#F2F2F2;}
	.st1{fill:#BABABA;}
</style>
<g>
	<g>
		<g>
			<polygon class="st0" points="373.2,67 359.2,67 359.2,89.8 373.2,81.7 			"/>
			<g>
				<path class="st0" d="M100.6,98.8c-3.4-2-7.4-3-12-3c-5,0-9.4,1.2-13.2,3.6c-3.8,2.4-6.6,5.7-8.4,9.9c-1.2,2.4-1.7,5.7-1.7,10
					l-0.1,56.2c0,4.5,0.9,8.6,2.7,12.2c1.8,3.6,4.4,6.4,7.8,8.4s7.4,3.1,12.2,3.1c2.9,0,5.6-0.4,8.2-1.3c0.2-0.5,0.4-0.9,0.6-1.3
					c1.1-1.7,6-9.1,13.2-11.5c1-2.7,1.5-5.8,1.5-9.2v-6.1h-14v5.8c0,2.8-0.8,5.1-2.3,7c-1.6,1.8-3.7,2.7-6.5,2.7
					c-2.7,0-4.9-0.8-6.6-2.5c-1.7-1.6-2.6-3.8-2.6-6.3V169c0-3,1.5-4.8,4.4-5.6c5.5-1.3,10.3-2.6,14.4-3.9c4.1-1.3,7.4-3.5,9.7-6.4
					c2.3-2.9,3.6-7.3,3.7-13.2v-20.7c0-4.5-1-8.6-2.9-12.1C106.7,103.6,104,100.8,100.6,98.8z M96.1,144.1c-0.9,1.3-2.4,2.4-4.4,3.2
					s-4.9,1.6-8.6,2.4c-1.4,0.3-2.6,0.6-3.8,1l0.1-32.2c0-2.5,0.8-4.6,2.5-6.3c1.7-1.7,3.8-2.5,6.5-2.5c2.2,0,4,0.6,5.6,1.8
					c1.6,1.2,2.7,2.9,3.2,5.2l0.2,23.2C97.3,141.6,96.9,143,96.1,144.1z"/>
				<path class="st0" d="M187.9,98.9c-3.5-2.1-7.4-3.1-11.6-3.1c-4.2,0-8.1,1-11.5,3.1c-1.6,1-3.1,2.1-4.5,3.4
					c-1.3-1.3-2.8-2.4-4.4-3.4c-3.5-2.1-7.4-3.1-11.6-3.1c-4.2,0-8.1,1-11.6,3.1s-6.3,4.8-8.3,8.3c-2.1,3.5-3.1,7.3-3.1,11.5v67
					c5.7,2.3,9.9,7,10.3,11.4c0.2-2.4,1.6-4.9,3.7-7v-70.7c0-2.5,0.8-4.7,2.4-6.6c1.6-1.9,3.8-2.9,6.4-2.9c0.8,0,1.7,0.1,2.7,0.3
					c4.4,1.6,6.6,4.7,6.6,9.2v65.8c7.1,2.4,12.1,9.8,13.1,11.5c0.3,0.5,0.5,1,0.7,1.5h0.2v-78.8c0-2.5,0.8-4.7,2.4-6.6
					c1.6-1.9,3.8-2.9,6.4-2.9c0.8,0,1.7,0.1,2.7,0.3c4.4,1.6,6.6,4.7,6.6,9.2v78.8h14v-79.4c0-4.2-1-8-3.1-11.5
					C194.2,103.8,191.4,101,187.9,98.9z"/>
				<polygon class="st0" points="310.8,67.4 301.4,56 281.9,75.5 288.7,85.3 				"/>
				<path class="st0" d="M307.7,197.7c1.2,0.3,2.5,0.5,3.8,0.5c0.9,0,1.8-0.1,2.8-0.2l0.1-0.1c1.5-0.2,3-0.7,4.6-1.4l0.1-9h-4.7V121
					c0-4.6-0.9-8.6-2.7-12.2c-1.8-3.5-4.4-6.3-7.8-8.4c-3.4-2-7.4-3.1-12.2-3.1c-4.2,0-8.1,0.9-11.6,2.6s-6.4,4.3-8.6,7.8
					c-2.2,3.4-3.3,7.7-3.3,12.9v6h14.1v-5.8c0-2.8,0.8-5.1,2.3-7c1.6-1.8,3.7-2.7,6.5-2.7c2.7,0,4.9,0.8,6.6,2.5
					c1.7,1.6,2.6,3.8,2.6,6.3v7.2h-0.5c-0.7,2.9-2.7,4.9-6.1,6c-1.4,0.5-3.4,1.1-6.2,1.8c-4.1,0.9-7.5,2.2-10.4,3.8
					s-5.1,3.8-6.6,6.6c-1.5,2.9-2.3,6.8-2.3,11.7v18.8h0.1c0,0.2,0.2,1.9,0.6,5c1.6,7.9,5.6,13.1,11.9,15.6c2.2,0.9,4.6,1.3,7.1,1.3
					c4.3,0,8.5-1.6,12.5-4.9C302.1,195.3,304.6,196.9,307.7,197.7z M297.8,182.6c-2,1.9-4.2,2.8-6.6,2.8c-2.5,0-4.6-0.9-6.4-2.6
					c-1.8-1.7-2.6-4-2.6-6.6l-0.1-18.6c0-2.2,0.5-4,1.4-5.3s2.4-2.4,4.4-3.2s4.8-1.6,8.5-2.4c1.4-0.3,2.6-0.6,3.8-1l-0.1,26.7H300
					v4.9c-0.2,1.9-0.8,3.5-2,4.9L297.8,182.6z"/>
				<path class="st0" d="M340.1,87.8V67h-14v109.9c0,4.4,1,8.3,3.1,11.9c2.1,3.5,4.9,6.3,8.4,8.4c3.5,2,7.3,3.1,11.5,3.1h2.1v-14
					h-1.9c-2.6,0-4.8-0.8-6.6-2.5c-1.8-1.7-2.7-4-2.7-7v-67.2c0-3,0.9-5.3,2.7-7c1.8-1.7,4-2.5,6.6-2.5h1.9v-14h-2.1
					C345.9,85.9,342.9,86.6,340.1,87.8z"/>
				<polygon class="st0" points="373.2,92.6 359.2,100.2 359.2,200.2 373.2,200.2 				"/>
				<path class="st0" d="M425.3,187.6c2.1-3.5,3.1-7.4,3.1-11.6v-18.7h-14v18.5c0,1.9-0.4,3.5-1.3,4.9s-2,2.4-3.4,3.2
					s-2.9,1.1-4.4,1.1c-2.5,0-4.6-0.9-6.3-2.6c-1.7-1.7-2.6-3.9-2.6-6.6v-57c0-2.3,0.7-4.3,2-6l0.4-0.4c2-1.9,4.2-2.8,6.6-2.8
					c2.5,0,4.6,0.9,6.4,2.6s2.6,4,2.6,6.6V131h14v-12.4c0-4.3-1-8.1-3.1-11.6s-4.8-6.3-8.3-8.3c-3.5-2.1-7.3-3.1-11.6-3.1
					c-4.2,0-8,1-11.5,3.1c-3.5,2-6.3,4.8-8.4,8.3s-3.1,7.4-3.1,11.6v57.3c0,4.2,1,8.1,3.1,11.6s4.9,6.3,8.3,8.3
					c3.5,2.1,7.3,3.1,11.6,3.1c4.3,0,8.1-1,11.6-3.1C420.5,193.9,423.2,191.1,425.3,187.6z"/>
				<path class="st0" d="M447.3,196.7c2.2,0.9,4.6,1.3,7.1,1.3c4.3,0,8.5-1.6,12.5-4.9c2,2.3,4.5,3.8,7.5,4.6
					c1.2,0.3,2.5,0.5,3.8,0.5c0.9,0,1.8-0.1,2.8-0.2l0.1-0.1c1.5-0.2,3-0.7,4.6-1.4l0.1-9h-4.7V121c0-4.6-0.9-8.6-2.7-12.2
					c-1.8-3.5-4.4-6.3-7.8-8.4c-3.4-2-7.4-3.1-12.2-3.1c-4.2,0-8.1,0.9-11.6,2.6s-6.4,4.3-8.6,7.8c-2.2,3.4-3.3,7.7-3.3,12.9v6H449
					v-5.8c0-2.8,0.8-5.1,2.3-7c1.6-1.8,3.7-2.7,6.5-2.7c2.7,0,4.9,0.8,6.6,2.5c1.7,1.6,2.6,3.8,2.6,6.3v7.2h-0.5
					c-0.7,2.9-2.7,4.9-6.1,6c-1.4,0.5-3.4,1.1-6.2,1.8c-4.1,0.9-7.5,2.2-10.4,3.8s-5.1,3.8-6.6,6.6c-1.5,2.9-2.3,6.8-2.3,11.7v18.8
					h0.1c0,0.2,0.2,1.9,0.6,5C437.1,189,441,194.2,447.3,196.7z M450.2,152.3c0.9-1.3,2.4-2.4,4.4-3.2s4.8-1.6,8.5-2.4
					c1.4-0.3,2.6-0.6,3.8-1l-0.1,26.7h-0.1v4.9c-0.2,1.9-0.8,3.5-2,4.9l-0.4,0.4c-2,1.9-4.2,2.8-6.6,2.8c-2.5,0-4.6-0.9-6.4-2.6
					c-1.8-1.7-2.6-4-2.6-6.6l-0.1-18.6C448.8,155.4,449.3,153.6,450.2,152.3z"/>
				<path class="st0" d="M276.1,241.9c-3.5-2.1-7.4-3.1-11.6-3.1s-8.1,1-11.5,3.1c-1.6,1-3.1,2.1-4.5,3.4c-1.3-1.3-2.8-2.4-4.4-3.4
					c-3.5-2.1-7.4-3.1-11.6-3.1c-3.2,0-6.2,0.6-9,1.8v-50.1c4,3.3,8.2,5,12.5,5c2.5,0,4.9-0.4,7.1-1.3c6.3-2.4,10.2-7.6,11.9-15.6
					l0.6-4.7v-55.2c0-4.2-1-8.1-3.1-11.6s-4.9-6.3-8.3-8.3c-3.5-2.1-7.3-3.1-11.6-3.1s-8.1,1-11.6,3.1s-6.3,4.9-8.3,8.4
					c-2.1,3.5-3.1,7.4-3.1,11.6v142.4c0,0.2,0,0.3,0,0.5v79.4h14v-75.5v-3.3c0-0.1,0-0.1,0-0.2c0-2.4,0.8-4.5,2.4-6.4
					c1.6-1.9,3.8-2.9,6.4-2.9c0.8,0,1.7,0.1,2.7,0.3c4.4,1.6,6.6,4.7,6.6,9.2v78.8h14v-78.8c0-2.5,0.8-4.7,2.4-6.6s3.8-2.9,6.4-2.9
					c0.8,0,1.7,0.1,2.7,0.3c4.4,1.6,6.6,4.7,6.6,9.2v78.8h14v-79.4c0-4.2-1-8-3.1-11.5C282.4,246.8,279.6,244,276.1,241.9z
					 M223.5,118.9c0-2.6,0.9-4.8,2.6-6.6c1.7-1.7,3.9-2.6,6.3-2.6c1.6,0,3,0.4,4.4,1.1c1.4,0.8,2.5,1.8,3.4,3.2
					c0.9,1.4,1.3,3,1.3,4.9v54.8c0,2.7-0.9,4.9-2.6,6.6c-1.8,1.7-3.9,2.6-6.4,2.6c-2.4,0-4.7-0.9-6.6-2.8l-0.4-0.4
					c-1.4-1.7-2-3.7-2-6V118.9z"/>
				<path class="st0" d="M332.5,241.8c-3.4-2-7.4-3-12-3c-5,0-9.4,1.2-13.2,3.6c-3.8,2.4-6.6,5.7-8.4,9.9c-1.2,2.4-1.7,5.7-1.7,10
					l-0.1,56.2c0,4.5,0.9,8.6,2.7,12.2c1.8,3.6,4.4,6.4,7.8,8.4s7.4,3.1,12.2,3.1c4.2,0,8.1-0.9,11.6-2.6c3.6-1.7,6.4-4.4,8.6-7.8
					c2.2-3.5,3.3-7.7,3.3-12.9v-6.1h-14.1v5.8c0,2.8-0.8,5.1-2.3,6.9c-1.6,1.8-3.7,2.7-6.5,2.7c-2.7,0-4.9-0.8-6.6-2.5
					c-1.7-1.6-2.6-3.8-2.6-6.3V312c0-3,1.5-4.8,4.4-5.6c5.5-1.3,10.3-2.6,14.4-3.9s7.4-3.5,9.7-6.4c2.3-2.9,3.6-7.3,3.7-13.2v-20.7
					c0-4.5-1-8.6-2.9-12.1S336,243.9,332.5,241.8z M328,287.1c-0.9,1.3-2.4,2.4-4.4,3.2c-2,0.8-4.9,1.6-8.6,2.4
					c-1.4,0.3-2.6,0.6-3.8,1l0.1-32.2c0-2.5,0.8-4.6,2.5-6.3s3.8-2.5,6.5-2.5c2.2,0,4,0.6,5.6,1.8s2.7,2.9,3.2,5.2l0.2,23.2
					C329.2,284.7,328.8,286.1,328,287.1z"/>
				<path class="st0" d="M387.8,241.9c-3.5-2.1-7.4-3.1-11.6-3.1s-8.1,1-11.6,3.1s-6.3,4.8-8.3,8.3c-2.1,3.5-3.1,7.3-3.1,11.5v79.4
					h14v-78.8c0-2.5,0.8-4.7,2.4-6.6s3.8-2.9,6.4-2.9c0.8,0,1.7,0.1,2.7,0.3c4.4,1.6,6.6,4.7,6.6,9.2v78.8h14v-79.4
					c0-4.2-1-8-3.1-11.5C394.1,246.8,391.3,244,387.8,241.9z"/>
				<path class="st0" d="M422.5,230.8V210h-14v109.9c0,4.4,1,8.3,3.1,11.9c2.1,3.5,4.9,6.3,8.4,8.4c3.5,2,7.3,3.1,11.5,3.1h2.1v-14
					h-1.9c-2.6,0-4.8-0.8-6.6-2.5s-2.7-4-2.7-7v-67.2c0-3,0.9-5.3,2.7-7c1.8-1.7,4-2.5,6.6-2.5h1.9v-14h-2.1
					C428.3,229,425.3,229.6,422.5,230.8z"/>
				<path class="st0" d="M474.7,241.8c-3.4-2-7.4-3-12-3c-5,0-9.4,1.2-13.2,3.6c-3.8,2.4-6.6,5.7-8.4,9.9c-1.2,2.4-1.7,5.7-1.7,10
					l-0.1,56.2c0,4.5,0.9,8.6,2.7,12.2c1.8,3.6,4.4,6.4,7.8,8.4s7.4,3.1,12.2,3.1c4.2,0,8.1-0.9,11.6-2.6c3.6-1.7,6.4-4.4,8.6-7.8
					c2.2-3.5,3.3-7.7,3.3-12.9v-6.1h-14.1v5.8c0,2.8-0.8,5.1-2.3,6.9c-1.6,1.8-3.7,2.7-6.5,2.7c-2.7,0-4.9-0.8-6.6-2.5
					s-2.6-3.8-2.6-6.3V312c0-3,1.5-4.8,4.4-5.6c5.5-1.3,10.3-2.6,14.4-3.9s7.4-3.5,9.7-6.4c2.3-2.9,3.6-7.3,3.7-13.2v-20.7
					c0-4.5-1-8.6-2.9-12.1C480.8,246.6,478.1,243.9,474.7,241.8z M470.2,287.1c-0.9,1.3-2.4,2.4-4.4,3.2c-2,0.8-4.9,1.6-8.6,2.4
					c-1.4,0.3-2.6,0.6-3.8,1l0.1-32.2c0-2.5,0.8-4.6,2.5-6.3s3.8-2.5,6.5-2.5c2.2,0,4,0.6,5.6,1.8s2.7,2.9,3.2,5.2l0.2,23.2
					C471.4,284.7,471,286.1,470.2,287.1z"/>
			</g>
			<path class="st1" d="M173.2,243c-7.7-2-5.5-6.9-2.2-6.9c0.3,0,0.7,0.1,1,0.2c2.1,0.9,16.2,4.8,25.3,11.6c0.7,0.5,1.6,0.9,2.5,0.9
				h0.1c1.4,0,3.1-0.7,3.4-3.8c0.4-5.4-9.1-11.4-13.1-13.5s-8.8-2-6.7-4.2c2.2-2.2,10-4.7,10-7.4s-13.2-13.8-20.5-13.8
				s-8.1-6.2-9.1-7.8s-7.2-10.8-15.1-10.8s-14.2,6.2-14.2,10.5s0.5,10.4-3,10.4c-3.4,0-3-6.1-3-10.4c0-4.3-6.3-10.5-14.2-10.5
				s-14.1,9.2-15.1,10.8s-1.8,7.8-9.1,7.8c-7.3,0-20.5,11.1-20.5,13.8s7.8,5.1,10,7.4c2.2,2.2-2.6,2.1-6.7,4.2
				c-4,2.1-13.5,8-13.1,13.5c0.2,3.2,2,3.8,3.4,3.8h0.1c0.9,0,1.8-0.4,2.5-0.9c9-6.8,23.2-10.6,25.3-11.6c0.3-0.1,0.7-0.2,1-0.2
				c3.2,0,5.5,4.9-2.2,6.9c-19.4,4.4-30.7,16.1-30,25.2c0.7,9,4.1,15.2,7.4,15.2c0,0,0,0,0.1,0c3.4-0.1,9.1-9,10.9-11.3
				c1.6-2.1,2.8-2.2,3-2.2l0,0c0,0,1.5,0.7,3.4,0.7c0.7,0,1.4-0.1,2.1-0.3c6.5-2.9,4-6.5,7-9.4c0.9-0.8,2-1.2,3.1-1.2
				c2.8,0,5.6,2.1,3.6,4c-2.7,2.7-4.2,9.4-2.5,12.2c1.7,2.7,0.9,7.1-1.3,7.1c-2.1,0-2.6-1.6-5.7-5.6c-1.3-1.7-3-2.2-4.5-2.2
				c-2,0-3.7,0.9-3.7,0.9s-13,10.3-13,15.4c0,2.5,0.9,2.7,1.8,5.4c-2.4,8.6,3.1,16.6,8.8,16.6c5.7,0,7.3-6.9,8.7-8.8
				c1.1-1.6,3-4.5,6-4.5c0.6,0,1.3,0.1,2,0.4c4.2,1.6,0.8,5.7,0.8,5.7s-15.9,12.9-10.5,24.3c4.6,9.8,9.8,10.5,21.1,10.5
				c1.8,0,3.8,0,5.9,0c15.7,0,14.1-28.3,14.1-28.3s0-3.7,0-16.8c0-10.2-1.2-20.9-1.8-25.3c-0.2-1.3,0.6-2.6,1.9-3
				c0.8-0.3,1.8-0.5,3-0.5s2.2,0.2,3,0.5c1.3,0.4,2.1,1.7,1.9,3c-0.6,4.3-1.8,15.1-1.8,25.3c0,13.1,0,16.8,0,16.8
				s-1.6,28.3,14.1,28.3c2.1,0,4.1,0,5.9,0c11.3,0,16.4-0.7,21.1-10.5c5.4-11.4-10.5-24.3-10.5-24.3s-3.4-4.1,0.8-5.7
				c0.7-0.3,1.4-0.4,2-0.4c3,0,4.9,2.9,6,4.5c1.4,1.9,3,8.8,8.7,8.8s11.2-8,8.8-16.6c1-2.6,1.8-2.9,1.8-5.4c0-5-13-15.4-13-15.4
				s-1.7-0.9-3.7-0.9c-1.5,0-3.2,0.5-4.5,2.2c-3.1,4-3.6,5.6-5.7,5.6c-2.1,0-3-4.3-1.3-7.1c1.7-2.7,0.2-9.5-2.5-12.2
				c-2-1.9,0.8-4,3.6-4c1.1,0,2.3,0.3,3.1,1.2c3,2.9,0.5,6.5,7,9.4c0.7,0.3,1.4,0.3,2.1,0.3c1.9,0,3.4-0.7,3.4-0.7l0,0
				c0.2,0,1.4,0.1,3,2.2c1.7,2.2,7.5,11.2,10.9,11.3c0,0,0,0,0.1,0c3.3,0,6.8-6.2,7.4-15.2C203.9,259.2,192.7,247.4,173.2,243z
				 M78.8,260.4c-1.5,1.9-2.7,3.9-4.2,3.9c-0.5,0-1-0.2-1.6-0.7c-2.1-1.8,3.3-7.7,9.4-7.7c0.8,0,1.6,0.1,2.4,0.3
				C84.9,256.3,80.8,258,78.8,260.4z M93.1,219.6c-2.6-0.9-8.9-0.1-8.9-3.7c0-3.4,4.3-3.5,4.8-3.5l0,0c0,0,4.1,0.2,7.3,3.8
				c0.7,0.8,1.5,1.1,2.4,1.1c4.1,0,9.7-6.8,9.9-8.2c0.3-1.7,1.4-7.7,4.9-7.7c3.4,0,3.8,5.5,1.7,10.6c-2.1,5-2.7,5.9-3.1,11.1
				c-0.2,2.6-1.5,3.7-2.9,3.7s-2.9-1.1-3.4-2.9c-0.3-1.1-0.9-1.4-1.5-1.4c-1.7,0-4.3,2.4-6.3,2.4C95.2,224.9,95.7,220.4,93.1,219.6z
				 M96.4,249.6c0.5-0.6,1.2-0.9,2-0.9c0.1,0,0.3,0,0.4,0c0.4,0.1,0.8,0.1,1.4,0.1c2.3,0,5.6-0.8,6.5-5.4
				c1.3-6.1,7.3-12.2,10.7-12.2c0.6,0,1.1,0.2,1.5,0.6c2.6,2.7-4.7,6.3-5.7,12.3c-1,6.1-1.7,10.9-9,10.9
				C98.1,254.9,94.9,251.7,96.4,249.6z M118.3,278.4c-2.4,3.2-4.9,5.1-4.9,5.1s-1.8,1.2-1.1,6.2c0.7,5.4,2.9,31.8-1,37.5
				c-0.6,0.9-1.9,1.4-3.2,1.4c-3.3,0-7-2.8-3.7-8.4c4.7-7.8,4.9-16.6,3.4-23.5c-1.4-6.9-1.8-21.4,6.5-25.1c0.9-0.3,1.6-0.4,2.1-0.4
				c2.2,0,2.7,1.6,2.7,1.6S120.4,275.6,118.3,278.4z M136.4,259.4c-1.1,0.1-2.6,0.3-4.8,0.3s-3.7-0.1-4.8-0.3
				c-1.4-0.2-2.4-1.4-2.4-2.8c0.2-35.2,6.4-36.3,7.1-36.3h0.1l0,0l0,0l0,0l0,0c0,0,0,0,0.1,0c0.8,0,6.9,1.1,7.1,36.3
				C138.8,258,137.8,259.3,136.4,259.4z M149.6,201.4c3.4,0,4.5,6,4.9,7.7c0.3,1.4,5.8,8.2,9.9,8.2c0.9,0,1.7-0.3,2.4-1.1
				c3.2-3.5,7.3-3.8,7.3-3.8l0,0c0.5,0,4.8,0.1,4.8,3.5c0,3.6-6.3,2.9-8.9,3.7c-2.6,0.9-2.1,5.3-4.9,5.3c-2,0-4.6-2.4-6.3-2.4
				c-0.7,0-1.2,0.4-1.5,1.4c-0.5,1.8-2,2.9-3.4,2.9s-2.7-1.1-2.9-3.7c-0.4-5.2-1.1-6.1-3.1-11.1C145.8,207,146.2,201.4,149.6,201.4z
				 M154.9,328.5c-1.3,0-2.5-0.5-3.2-1.4c-3.9-5.7-1.7-32.1-1-37.5c0.7-5-1.1-6.2-1.1-6.2s-2.5-1.9-4.9-5.1
				c-2.1-2.8-0.9-5.6-0.9-5.6s0.4-1.6,2.7-1.6c0.6,0,1.3,0.1,2.1,0.4c8.2,3.7,7.9,18.3,6.5,25.1c-1.4,6.9-1.3,15.6,3.4,23.5
				C162,325.7,158.2,328.5,154.9,328.5z M158.9,254.9c-7.3,0-8-4.8-9-10.9c-1-6.1-8.3-9.6-5.7-12.3c0.4-0.4,0.9-0.6,1.5-0.6
				c3.4,0,9.5,6.1,10.7,12.2c0.9,4.6,4.2,5.4,6.5,5.4c0.5,0,1,0,1.4-0.1c0.1,0,0.3,0,0.4,0c0.8,0,1.5,0.3,2,0.9
				C168.2,251.7,165,254.9,158.9,254.9z M190.1,263.7c-0.6,0.5-1.1,0.7-1.6,0.7c-1.5,0-2.7-2.1-4.2-3.9c-2-2.5-6.1-4.2-6.1-4.2
				c0.8-0.2,1.6-0.3,2.4-0.3C186.8,255.9,192.2,261.9,190.1,263.7z"/>
		</g>
		<g>
			<g>
				<path class="st0" d="M103.9,374.9c0.8,0.3,1.3,0.8,1.7,1.4c0.4,0.6,0.6,1.4,0.6,2.2c0,0.9-0.2,1.6-0.6,2.2s-1,1.1-1.7,1.5
					c-0.8,0.3-1.6,0.5-2.7,0.5h-2.7v3.4h-2.2v-11.8h4.8C102.3,374.4,103.1,374.6,103.9,374.9z M103.3,380.3c0.5-0.4,0.7-1,0.7-1.7
					s-0.2-1.3-0.7-1.7c-0.5-0.4-1.2-0.6-2.2-0.6h-2.6v4.7h2.6C102.1,380.9,102.8,380.7,103.3,380.3z"/>
				<path class="st0" d="M112.9,386c-0.8-0.3-1.5-0.6-2-1l0.8-1.7c0.5,0.4,1.1,0.7,1.8,0.9c0.7,0.2,1.4,0.4,2.1,0.4
					c0.9,0,1.5-0.1,2-0.4c0.4-0.3,0.6-0.6,0.6-1.1c0-0.3-0.1-0.6-0.4-0.8c-0.2-0.2-0.5-0.4-0.9-0.5s-0.9-0.3-1.5-0.4
					c-0.9-0.2-1.6-0.4-2.2-0.6s-1-0.5-1.4-1s-0.6-1.1-0.6-1.8c0-0.6,0.2-1.2,0.5-1.8c0.4-0.5,0.9-1,1.6-1.3s1.6-0.5,2.6-0.5
					c0.7,0,1.4,0.1,2.1,0.3c0.7,0.2,1.3,0.4,1.8,0.8l-0.7,1.7c-0.5-0.3-1.1-0.5-1.6-0.7c-0.6-0.2-1.1-0.2-1.6-0.2
					c-0.9,0-1.5,0.1-1.9,0.4s-0.6,0.7-0.6,1.2c0,0.3,0.1,0.6,0.4,0.8c0.2,0.2,0.5,0.4,0.9,0.5s0.9,0.3,1.5,0.4
					c0.9,0.2,1.6,0.4,2.1,0.6c0.6,0.2,1,0.6,1.4,1s0.6,1.1,0.6,1.8c0,0.7-0.2,1.2-0.5,1.8c-0.4,0.5-0.9,0.9-1.6,1.3
					c-0.7,0.3-1.6,0.5-2.6,0.5C114.6,386.3,113.7,386.2,112.9,386z"/>
				<path class="st0" d="M125.8,374.4h2.2v11.8h-2.2V374.4z"/>
				<path class="st0" d="M136.6,385.6c-1-0.5-1.7-1.2-2.3-2.2c-0.5-0.9-0.8-2-0.8-3.1c0-1.2,0.3-2.2,0.8-3.1s1.3-1.6,2.3-2.2
					s2-0.8,3.2-0.8c1,0,1.8,0.2,2.6,0.5s1.5,0.8,2,1.5l-1.4,1.3c-0.9-0.9-1.9-1.4-3.1-1.4c-0.8,0-1.5,0.2-2.2,0.5
					c-0.6,0.4-1.1,0.8-1.5,1.5s-0.5,1.3-0.5,2.1c0,0.8,0.2,1.5,0.5,2.1c0.4,0.6,0.9,1.1,1.5,1.5s1.4,0.5,2.2,0.5
					c1.2,0,2.3-0.5,3.1-1.4l1.4,1.3c-0.5,0.6-1.2,1.1-2,1.5c-0.8,0.3-1.7,0.5-2.6,0.5C138.7,386.3,137.6,386.1,136.6,385.6z"/>
				<path class="st0" d="M151.8,385.6c-1-0.5-1.7-1.2-2.3-2.2c-0.5-0.9-0.8-2-0.8-3.1s0.3-2.2,0.8-3.1s1.3-1.6,2.3-2.2
					c1-0.5,2-0.8,3.2-0.8s2.3,0.3,3.2,0.8c1,0.5,1.7,1.2,2.3,2.2c0.5,0.9,0.8,2,0.8,3.1c0,1.2-0.3,2.2-0.8,3.1s-1.3,1.6-2.3,2.2
					c-1,0.5-2,0.8-3.2,0.8C153.9,386.3,152.8,386.1,151.8,385.6z M157.2,383.9c0.6-0.4,1.1-0.8,1.5-1.5c0.4-0.6,0.5-1.3,0.5-2.1
					c0-0.8-0.2-1.5-0.5-2.1c-0.4-0.6-0.9-1.1-1.5-1.5s-1.3-0.5-2.1-0.5s-1.5,0.2-2.1,0.5c-0.6,0.4-1.1,0.8-1.5,1.5
					c-0.4,0.6-0.5,1.3-0.5,2.1c0,0.8,0.2,1.5,0.5,2.1c0.4,0.6,0.9,1.1,1.5,1.5s1.3,0.5,2.1,0.5C155.8,384.4,156.5,384.3,157.2,383.9
					z M155.9,371.2h2.5l-2.9,2.3h-1.8L155.9,371.2z"/>
				<path class="st0" d="M167,374.4h2.2v9.9h6.1v1.8H167V374.4z"/>
				<path class="st0" d="M182.3,385.6c-1-0.5-1.7-1.2-2.3-2.2c-0.5-0.9-0.8-2-0.8-3.1s0.3-2.2,0.8-3.1s1.3-1.6,2.3-2.2
					c1-0.5,2-0.8,3.2-0.8s2.3,0.3,3.2,0.8c1,0.5,1.7,1.2,2.3,2.2c0.5,0.9,0.8,2,0.8,3.1c0,1.2-0.3,2.2-0.8,3.1s-1.3,1.6-2.3,2.2
					c-1,0.5-2,0.8-3.2,0.8C184.4,386.3,183.3,386.1,182.3,385.6z M187.7,383.9c0.6-0.4,1.1-0.8,1.5-1.5c0.4-0.6,0.5-1.3,0.5-2.1
					c0-0.8-0.2-1.5-0.5-2.1c-0.4-0.6-0.9-1.1-1.5-1.5s-1.3-0.5-2.1-0.5s-1.5,0.2-2.1,0.5c-0.6,0.4-1.1,0.8-1.5,1.5
					c-0.4,0.6-0.5,1.3-0.5,2.1c0,0.8,0.2,1.5,0.5,2.1c0.4,0.6,0.9,1.1,1.5,1.5s1.3,0.5,2.1,0.5C186.3,384.4,187,384.3,187.7,383.9z"
					/>
				<path class="st0" d="M205.6,380.2h2.1v4.7c-0.6,0.5-1.3,0.9-2.1,1.1s-1.6,0.4-2.5,0.4c-1.2,0-2.3-0.3-3.2-0.8
					c-1-0.5-1.7-1.2-2.3-2.2c-0.5-0.9-0.8-2-0.8-3.1c0-1.2,0.3-2.2,0.8-3.1s1.3-1.6,2.3-2.2s2.1-0.8,3.3-0.8c1,0,1.9,0.2,2.7,0.5
					s1.5,0.8,2,1.4l-1.4,1.3c-0.9-0.9-2-1.3-3.2-1.3c-0.8,0-1.6,0.2-2.2,0.5c-0.6,0.3-1.1,0.8-1.5,1.5c-0.4,0.6-0.5,1.3-0.5,2.1
					c0,0.8,0.2,1.5,0.5,2.1c0.4,0.6,0.9,1.1,1.5,1.5s1.4,0.5,2.2,0.5c0.9,0,1.7-0.2,2.4-0.6v-3.5H205.6z"/>
				<path class="st0" d="M216,385.6c-1-0.5-1.7-1.2-2.3-2.2c-0.5-0.9-0.8-2-0.8-3.1s0.3-2.2,0.8-3.1s1.3-1.6,2.3-2.2
					c1-0.5,2-0.8,3.2-0.8s2.3,0.3,3.2,0.8c1,0.5,1.7,1.2,2.3,2.2c0.5,0.9,0.8,2,0.8,3.1c0,1.2-0.3,2.2-0.8,3.1s-1.3,1.6-2.3,2.2
					c-1,0.5-2,0.8-3.2,0.8C218,386.3,216.9,386.1,216,385.6z M221.3,383.9c0.6-0.4,1.1-0.8,1.5-1.5c0.4-0.6,0.5-1.3,0.5-2.1
					c0-0.8-0.2-1.5-0.5-2.1c-0.4-0.6-0.9-1.1-1.5-1.5s-1.3-0.5-2.1-0.5s-1.5,0.2-2.1,0.5c-0.6,0.4-1.1,0.8-1.5,1.5
					c-0.4,0.6-0.5,1.3-0.5,2.1c0,0.8,0.2,1.5,0.5,2.1c0.4,0.6,0.9,1.1,1.5,1.5s1.3,0.5,2.1,0.5S220.7,384.3,221.3,383.9z"/>
				<path class="st0" d="M232.2,386c-0.8-0.3-1.5-0.6-2-1l0.8-1.7c0.5,0.4,1.1,0.7,1.8,0.9c0.7,0.2,1.4,0.4,2.1,0.4
					c0.9,0,1.5-0.1,2-0.4c0.4-0.3,0.6-0.6,0.6-1.1c0-0.3-0.1-0.6-0.4-0.8c-0.2-0.2-0.5-0.4-0.9-0.5s-0.9-0.3-1.5-0.4
					c-0.9-0.2-1.6-0.4-2.2-0.6c-0.6-0.2-1-0.5-1.4-1s-0.6-1.1-0.6-1.8c0-0.6,0.2-1.2,0.5-1.8c0.4-0.5,0.9-1,1.6-1.3
					c0.7-0.3,1.6-0.5,2.6-0.5c0.7,0,1.4,0.1,2.1,0.3c0.7,0.2,1.3,0.4,1.8,0.8l-0.7,1.7c-0.5-0.3-1.1-0.5-1.6-0.7
					c-0.6-0.2-1.1-0.2-1.6-0.2c-0.9,0-1.5,0.1-1.9,0.4s-0.6,0.7-0.6,1.2c0,0.3,0.1,0.6,0.4,0.8c0.2,0.2,0.5,0.4,0.9,0.5
					s0.9,0.3,1.5,0.4c0.9,0.2,1.6,0.4,2.1,0.6c0.6,0.2,1,0.6,1.4,1s0.6,1.1,0.6,1.8c0,0.7-0.2,1.2-0.5,1.8c-0.4,0.5-0.9,0.9-1.6,1.3
					c-0.7,0.3-1.6,0.5-2.6,0.5C233.9,386.3,233,386.2,232.2,386z"/>
				<path class="st0" d="M261.9,384.3v1.8h-8.8v-11.8h8.6v1.8h-6.4v3.1h5.7v1.8h-5.7v3.2h6.6V384.3z"/>
				<path class="st0" d="M268.7,386c-0.8-0.3-1.5-0.6-2-1l0.8-1.7c0.5,0.4,1.1,0.7,1.8,0.9c0.7,0.2,1.4,0.4,2.1,0.4
					c0.9,0,1.5-0.1,2-0.4c0.4-0.3,0.6-0.6,0.6-1.1c0-0.3-0.1-0.6-0.4-0.8c-0.2-0.2-0.5-0.4-0.9-0.5s-0.9-0.3-1.5-0.4
					c-0.9-0.2-1.6-0.4-2.2-0.6s-1-0.5-1.4-1s-0.6-1.1-0.6-1.8c0-0.6,0.2-1.2,0.5-1.8c0.4-0.5,0.9-1,1.6-1.3s1.6-0.5,2.6-0.5
					c0.7,0,1.4,0.1,2.1,0.3c0.7,0.2,1.3,0.4,1.8,0.8l-0.7,1.7c-0.5-0.3-1.1-0.5-1.6-0.7c-0.6-0.2-1.1-0.2-1.6-0.2
					c-0.9,0-1.5,0.1-1.9,0.4s-0.6,0.7-0.6,1.2c0,0.3,0.1,0.6,0.4,0.8c0.2,0.2,0.5,0.4,0.9,0.5s0.9,0.3,1.5,0.4
					c0.9,0.2,1.6,0.4,2.2,0.6s1,0.6,1.4,1s0.6,1.1,0.6,1.8c0,0.7-0.2,1.2-0.5,1.8c-0.4,0.5-0.9,0.9-1.6,1.3
					c-0.7,0.3-1.6,0.5-2.6,0.5C270.4,386.3,269.5,386.2,268.7,386z"/>
				<path class="st0" d="M289.1,374.9c0.8,0.3,1.3,0.8,1.7,1.4c0.4,0.6,0.6,1.4,0.6,2.2c0,0.9-0.2,1.6-0.6,2.2s-1,1.1-1.7,1.5
					c-0.8,0.3-1.6,0.5-2.7,0.5h-2.7v3.4h-2.2v-11.8h4.8C287.4,374.4,288.3,374.6,289.1,374.9z M288.5,380.3c0.5-0.4,0.7-1,0.7-1.7
					s-0.2-1.3-0.7-1.7c-0.5-0.4-1.2-0.6-2.2-0.6h-2.6v4.7h2.6C287.3,380.9,288,380.7,288.5,380.3z"/>
				<path class="st0" d="M305.6,384.3v1.8h-8.8v-11.8h8.6v1.8H299v3.1h5.7v1.8H299v3.2h6.6V384.3z"/>
				<path class="st0" d="M313.2,385.6c-1-0.5-1.7-1.2-2.2-2.2c-0.5-0.9-0.8-2-0.8-3.1c0-1.2,0.3-2.2,0.8-3.1s1.3-1.6,2.3-2.2
					c1-0.5,2-0.8,3.2-0.8c1,0,1.8,0.2,2.6,0.5c0.8,0.3,1.5,0.8,2,1.5l-1.4,1.3c-0.9-0.9-1.9-1.4-3.1-1.4c-0.8,0-1.5,0.2-2.2,0.5
					c-0.6,0.4-1.1,0.8-1.5,1.5c-0.4,0.6-0.5,1.3-0.5,2.1c0,0.8,0.2,1.5,0.5,2.1c0.4,0.6,0.9,1.1,1.5,1.5s1.4,0.5,2.2,0.5
					c1.2,0,2.3-0.5,3.1-1.4l1.4,1.3c-0.5,0.6-1.2,1.1-2,1.5c-0.8,0.3-1.7,0.5-2.6,0.5C315.3,386.3,314.2,386.1,313.2,385.6z"/>
				<path class="st0" d="M326.4,374.4h2.2v11.8h-2.2V374.4z"/>
				<path class="st0" d="M342.7,383.5h-5.9l-1.2,2.7h-2.3l5.3-11.8h2.1l5.3,11.8h-2.3L342.7,383.5z M342,381.7l-2.2-5.1l-2.2,5.1
					H342z"/>
				<path class="st0" d="M351,374.4h2.2v9.9h6.1v1.8H351V374.4z"/>
				<path class="st0" d="M364.3,374.4h2.2v11.8h-2.2V374.4z"/>
				<path class="st0" d="M381.9,384.3v1.8h-10v-1.5l6.9-8.4H372v-1.8h9.7v1.5l-6.9,8.4H381.9z"/>
				<path class="st0" d="M395.4,383.5h-5.9l-1.2,2.7H386l5.3-11.8h2.1l5.3,11.8h-2.3L395.4,383.5z M394.7,381.7l-2.2-5.1l-2.2,5.1
					H394.7z"/>
				<path class="st0" d="M403.7,374.4h5.1c1.3,0,2.4,0.2,3.3,0.7c1,0.5,1.7,1.2,2.3,2.1c0.5,0.9,0.8,1.9,0.8,3.1s-0.3,2.2-0.8,3.1
					s-1.3,1.6-2.3,2.1s-2.1,0.7-3.3,0.7h-5.1V374.4z M408.7,384.3c0.9,0,1.6-0.2,2.3-0.5c0.7-0.3,1.2-0.8,1.5-1.4
					c0.4-0.6,0.5-1.3,0.5-2.1c0-0.8-0.2-1.5-0.5-2.1c-0.4-0.6-0.9-1.1-1.5-1.4c-0.7-0.3-1.4-0.5-2.3-0.5h-2.9v8.1h2.9V384.3z"/>
				<path class="st0" d="M423.2,385.6c-1-0.5-1.7-1.2-2.3-2.2c-0.5-0.9-0.8-2-0.8-3.1s0.3-2.2,0.8-3.1s1.3-1.6,2.3-2.2
					s2-0.8,3.2-0.8s2.3,0.3,3.2,0.8s1.7,1.2,2.3,2.2c0.5,0.9,0.8,2,0.8,3.1c0,1.2-0.3,2.2-0.8,3.1s-1.3,1.6-2.3,2.2
					c-1,0.5-2,0.8-3.2,0.8C425.2,386.3,424.1,386.1,423.2,385.6z M428.5,383.9c0.6-0.4,1.1-0.8,1.5-1.5c0.4-0.6,0.5-1.3,0.5-2.1
					c0-0.8-0.2-1.5-0.5-2.1c-0.4-0.6-0.9-1.1-1.5-1.5s-1.3-0.5-2.1-0.5c-0.8,0-1.5,0.2-2.1,0.5c-0.6,0.4-1.1,0.8-1.5,1.5
					c-0.4,0.6-0.5,1.3-0.5,2.1c0,0.8,0.2,1.5,0.5,2.1c0.4,0.6,0.9,1.1,1.5,1.5s1.3,0.5,2.1,0.5S427.9,384.3,428.5,383.9z"/>
				<path class="st0" d="M439.3,386c-0.8-0.3-1.5-0.6-2-1l0.8-1.7c0.5,0.4,1.1,0.7,1.8,0.9c0.7,0.2,1.4,0.4,2.1,0.4
					c0.9,0,1.5-0.1,2-0.4c0.4-0.3,0.6-0.6,0.6-1.1c0-0.3-0.1-0.6-0.4-0.8c-0.2-0.2-0.5-0.4-0.9-0.5s-0.9-0.3-1.5-0.4
					c-0.9-0.2-1.6-0.4-2.2-0.6s-1-0.5-1.4-1s-0.6-1.1-0.6-1.8c0-0.6,0.2-1.2,0.5-1.8c0.4-0.5,0.9-1,1.6-1.3s1.6-0.5,2.6-0.5
					c0.7,0,1.4,0.1,2.1,0.3c0.7,0.2,1.3,0.4,1.8,0.8l-0.7,1.7c-0.5-0.3-1.1-0.5-1.6-0.7c-0.6-0.2-1.1-0.2-1.6-0.2
					c-0.9,0-1.5,0.1-1.9,0.4s-0.6,0.7-0.6,1.2c0,0.3,0.1,0.6,0.4,0.8c0.2,0.2,0.5,0.4,0.9,0.5s0.9,0.3,1.5,0.4
					c0.9,0.2,1.6,0.4,2.1,0.6c0.6,0.2,1,0.6,1.4,1s0.6,1.1,0.6,1.8c0,0.7-0.2,1.2-0.5,1.8c-0.4,0.5-0.9,0.9-1.6,1.3
					c-0.7,0.3-1.6,0.5-2.6,0.5C441.1,386.3,440.2,386.2,439.3,386z"/>
			</g>
		</g>
	</g>
</g>
</svg>
