<?xml version="1.0" encoding="utf-8"?>
<!-- Generator: Adobe Illustrator 24.0.0, SVG Export Plug-In . SVG Version: 6.00 Build 0)  -->
<svg version="1.1" id="Capa_1" xmlns="http://www.w3.org/2000/svg" xmlns:xlink="http://www.w3.org/1999/xlink" x="0px" y="0px"
	 viewBox="0 0 545.5 442.4" style="enable-background:new 0 0 545.5 442.4;" xml:space="preserve">
<style type="text/css">
	.st0{fill:#F2F2F2;}
	.st1{fill:#BABABA;}
	.st2{fill:#3A413A;}
</style>
<g>
	<g>
		<g>
			<polygon class="st0" points="401.3,23.6 383.4,23.6 383.4,52.8 401.3,42.4 			"/>
			<g>
				<path class="st0" d="M52.1,64.3c-4.4-2.6-9.5-3.8-15.4-3.8c-6.4,0-12,1.5-16.9,4.6c-4.9,3.1-8.5,7.3-10.8,12.7
					c-1.5,3.1-2.2,7.3-2.2,12.8l-0.1,72c0,5.8,1.2,11,3.5,15.6c2.3,4.6,5.6,8.2,10,10.8c4.4,2.6,9.5,4,15.6,4
					c3.7,0,7.2-0.5,10.5-1.7c0.3-0.6,0.5-1.2,0.8-1.7c1.4-2.2,7.7-11.7,16.9-14.7c1.3-3.5,1.9-7.4,1.9-11.8v-7.8H48v7.4
					c0,3.6-1,6.5-2.9,9c-2,2.3-4.7,3.5-8.3,3.5c-3.5,0-6.3-1-8.5-3.2c-2.2-2-3.3-4.9-3.3-8.1v-9.6c0-3.8,1.9-6.1,5.6-7.2
					c7-1.7,13.2-3.3,18.4-5s9.5-4.5,12.4-8.2c2.9-3.7,4.6-9.3,4.7-16.9V90.4c0-5.8-1.3-11-3.7-15.5C60,70.5,56.5,66.9,52.1,64.3z
					 M46.4,122.3c-1.2,1.7-3.1,3.1-5.6,4.1s-6.3,2-11,3.1c-1.8,0.4-3.3,0.8-4.9,1.3L25,89.5c0-3.2,1-5.9,3.2-8.1
					c2.2-2.2,4.9-3.2,8.3-3.2c2.8,0,5.1,0.8,7.2,2.3c2,1.5,3.5,3.7,4.1,6.7l0.3,29.7C47.9,119.1,47.4,120.9,46.4,122.3z"/>
				<path class="st0" d="M164,64.4c-4.5-2.7-9.5-4-14.9-4c-5.4,0-10.4,1.3-14.7,4c-2,1.3-4,2.7-5.8,4.4c-1.7-1.7-3.6-3.1-5.6-4.4
					c-4.5-2.7-9.5-4-14.9-4c-5.4,0-10.4,1.3-14.9,4c-4.5,2.7-8.1,6.1-10.6,10.6c-2.7,4.5-4,9.3-4,14.7v85.8
					c7.3,2.9,12.7,9,13.2,14.6c0.3-3.1,2-6.3,4.7-9V90.7c0-3.2,1-6,3.1-8.5c2-2.4,4.9-3.7,8.2-3.7c1,0,2.2,0.1,3.5,0.4
					c5.6,2,8.5,6,8.5,11.8V175c9.1,3.1,15.5,12.6,16.8,14.7c0.4,0.6,0.6,1.3,0.9,1.9h0.3V90.7c0-3.2,1-6,3.1-8.5
					c2-2.4,4.9-3.7,8.2-3.7c1,0,2.2,0.1,3.5,0.4c5.6,2,8.5,6,8.5,11.8v100.9h17.9V89.9c0-5.4-1.3-10.2-4-14.7
					C172,70.7,168.4,67.1,164,64.4z"/>
				<polygon class="st0" points="321.4,24.1 309.3,9.5 284.3,34.5 293.1,47 				"/>
				<path class="st0" d="M317.4,191c1.5,0.4,3.2,0.6,4.9,0.6c1.2,0,2.3-0.1,3.6-0.3l0.1-0.1c1.9-0.3,3.8-0.9,5.9-1.8l0.1-11.5h-6
					V92.7c0-5.9-1.2-11-3.5-15.6c-2.3-4.5-5.6-8.1-10-10.8c-4.4-2.6-9.5-4-15.6-4c-5.4,0-10.4,1.2-14.9,3.3c-4.5,2.2-8.2,5.5-11,10
					c-2.8,4.4-4.2,9.9-4.2,16.5v7.7h18.1v-7.4c0-3.6,1-6.5,2.9-9c2-2.3,4.7-3.5,8.3-3.5c3.5,0,6.3,1,8.5,3.2c2.2,2,3.3,4.9,3.3,8.1
					v9.2h-0.6c-0.9,3.7-3.5,6.3-7.8,7.7c-1.8,0.6-4.4,1.4-7.9,2.3c-5.3,1.2-9.6,2.8-13.3,4.9s-6.5,4.9-8.5,8.5
					c-1.9,3.7-2.9,8.7-2.9,15v24.1h0.1c0,0.3,0.3,2.4,0.8,6.4c2,10.1,7.2,16.8,15.2,20c2.8,1.2,5.9,1.7,9.1,1.7c5.5,0,10.9-2,16-6.3
					C310.2,187.9,313.4,189.9,317.4,191z M304.7,171.6c-2.6,2.4-5.4,3.6-8.5,3.6c-3.2,0-5.9-1.2-8.2-3.3c-2.3-2.2-3.3-5.1-3.3-8.5
					l-0.1-23.8c0-2.8,0.6-5.1,1.8-6.8c1.2-1.7,3.1-3.1,5.6-4.1c2.6-1,6.1-2,10.9-3.1c1.8-0.4,3.3-0.8,4.9-1.3l-0.1,34.2h-0.1v6.3
					c-0.3,2.4-1,4.5-2.6,6.3L304.7,171.6z"/>
				<path class="st0" d="M358.9,50.2V23.6H341v140.8c0,5.6,1.3,10.6,4,15.2c2.7,4.5,6.3,8.1,10.8,10.8c4.5,2.6,9.3,4,14.7,4h2.7
					v-17.9h-2.4c-3.3,0-6.1-1-8.5-3.2c-2.3-2.2-3.5-5.1-3.5-9V78.1c0-3.8,1.2-6.8,3.5-9c2.3-2.2,5.1-3.2,8.5-3.2h2.4V48h-2.7
					C366.3,47.8,362.5,48.7,358.9,50.2z"/>
				<polygon class="st0" points="401.3,56.4 383.4,66.1 383.4,194.2 401.3,194.2 				"/>
				<path class="st0" d="M468,178c2.7-4.5,4-9.5,4-14.9v-24h-17.9v23.7c0,2.4-0.5,4.5-1.7,6.3c-1.2,1.8-2.6,3.1-4.4,4.1
					s-3.7,1.4-5.6,1.4c-3.2,0-5.9-1.2-8.1-3.3c-2.2-2.2-3.3-5-3.3-8.5v-73c0-2.9,0.9-5.5,2.6-7.7l0.5-0.5c2.6-2.4,5.4-3.6,8.5-3.6
					c3.2,0,5.9,1.2,8.2,3.3s3.3,5.1,3.3,8.5v15.6H472V89.7c0-5.5-1.3-10.4-4-14.9c-2.7-4.5-6.1-8.1-10.6-10.6c-4.5-2.7-9.3-4-14.9-4
					c-5.4,0-10.2,1.3-14.7,4c-4.5,2.6-8.1,6.1-10.8,10.6c-2.7,4.5-4,9.5-4,14.9v73.4c0,5.4,1.3,10.4,4,14.9
					c2.7,4.5,6.3,8.1,10.6,10.6c4.5,2.7,9.3,4,14.9,4s10.4-1.3,14.9-4C461.9,186.1,465.3,182.5,468,178z"/>
				<path class="st0" d="M496.2,189.7c2.8,1.2,5.9,1.7,9.1,1.7c5.5,0,10.9-2,16-6.3c2.6,2.9,5.8,4.9,9.6,5.9
					c1.5,0.4,3.2,0.6,4.9,0.6c1.2,0,2.3-0.1,3.6-0.3l0.1-0.1c1.9-0.3,3.8-0.9,5.9-1.8l0.1-11.5h-6V92.7c0-5.9-1.2-11-3.5-15.6
					c-2.3-4.5-5.6-8.1-10-10.8c-4.4-2.6-9.5-4-15.6-4c-5.4,0-10.4,1.2-14.9,3.3c-4.5,2.2-8.2,5.5-11,10c-2.8,4.4-4.2,9.9-4.2,16.5
					v7.7h18.1v-7.4c0-3.6,1-6.5,2.9-9c2-2.3,4.7-3.5,8.3-3.5c3.5,0,6.3,1,8.5,3.2c2.2,2,3.3,4.9,3.3,8.1v9.2h-0.6
					c-0.9,3.7-3.5,6.3-7.8,7.7c-1.8,0.6-4.4,1.4-7.9,2.3c-5.3,1.2-9.6,2.8-13.3,4.9c-3.7,2-6.5,4.9-8.5,8.5c-1.9,3.7-2.9,8.7-2.9,15
					v24.1h0.1c0,0.3,0.3,2.4,0.8,6.4C483.1,179.8,488.1,186.5,496.2,189.7z M499.9,132.8c1.2-1.7,3.1-3.1,5.6-4.1
					c2.6-1,6.1-2,10.9-3.1c1.8-0.4,3.3-0.8,4.9-1.3l-0.1,34.2H521v6.3c-0.3,2.4-1,4.5-2.6,6.3l-0.5,0.5c-2.6,2.4-5.4,3.6-8.5,3.6
					c-3.2,0-5.9-1.2-8.2-3.3c-2.3-2.2-3.3-5.1-3.3-8.5l-0.1-23.8C498.1,136.8,498.8,134.5,499.9,132.8z"/>
				<path class="st0" d="M276.9,247.6c-4.5-2.7-9.5-4-14.9-4c-5.4,0-10.4,1.3-14.7,4c-2,1.3-4,2.7-5.8,4.4c-1.7-1.7-3.6-3.1-5.6-4.4
					c-4.5-2.7-9.5-4-14.9-4c-4.1,0-7.9,0.8-11.5,2.3v-64.2c5.1,4.2,10.5,6.4,16,6.4c3.2,0,6.3-0.5,9.1-1.7c8.1-3.1,13.1-9.7,15.2-20
					l0.8-6V89.8c0-5.4-1.3-10.4-4-14.9c-2.7-4.5-6.3-8.1-10.6-10.6c-4.5-2.7-9.3-4-14.9-4s-10.4,1.3-14.9,4
					c-4.5,2.7-8.1,6.3-10.6,10.8c-2.7,4.5-4,9.5-4,14.9v182.4c0,0.3,0,0.4,0,0.6v101.7h17.9v-96.7v-4.2c0-0.1,0-0.1,0-0.3
					c0-3.1,1-5.8,3.1-8.2c2-2.4,4.9-3.7,8.2-3.7c1,0,2.2,0.1,3.5,0.4c5.6,2,8.5,6,8.5,11.8v100.9h17.9V273.7c0-3.2,1-6,3.1-8.5
					s4.9-3.7,8.2-3.7c1,0,2.2,0.1,3.5,0.4c5.6,2,8.5,6,8.5,11.8v100.9h17.9V272.9c0-5.4-1.3-10.2-4-14.7
					C285,253.9,281.4,250.3,276.9,247.6z M209.6,90c0-3.3,1.2-6.1,3.3-8.5c2.2-2.2,5-3.3,8.1-3.3c2,0,3.8,0.5,5.6,1.4
					c1.8,1,3.2,2.3,4.4,4.1c1.2,1.8,1.7,3.8,1.7,6.3v70.2c0,3.5-1.2,6.3-3.3,8.5c-2.3,2.2-5,3.3-8.2,3.3c-3.1,0-6-1.2-8.5-3.6
					l-0.5-0.5c-1.8-2.2-2.6-4.7-2.6-7.7V90z"/>
				<path class="st0" d="M349.2,247.5c-4.4-2.6-9.5-3.8-15.4-3.8c-6.4,0-12,1.5-16.9,4.6c-4.9,3.1-8.5,7.3-10.8,12.7
					c-1.5,3.1-2.2,7.3-2.2,12.8l-0.1,72c0,5.8,1.2,11,3.5,15.6c2.3,4.6,5.6,8.2,10,10.8s9.5,4,15.6,4c5.4,0,10.4-1.2,14.9-3.3
					c4.6-2.2,8.2-5.6,11-10c2.8-4.5,4.2-9.9,4.2-16.5v-7.8h-18.1v7.4c0,3.6-1,6.5-2.9,8.8c-2,2.3-4.7,3.5-8.3,3.5
					c-3.5,0-6.3-1-8.5-3.2c-2.2-2-3.3-4.9-3.3-8.1v-9.5c0-3.8,1.9-6.1,5.6-7.2c7-1.7,13.2-3.3,18.4-5c5.3-1.7,9.5-4.5,12.4-8.2
					c2.9-3.7,4.6-9.3,4.7-16.9v-26.5c0-5.8-1.3-11-3.7-15.5C357,253.6,353.6,250.1,349.2,247.5z M343.4,305.5
					c-1.2,1.7-3.1,3.1-5.6,4.1c-2.6,1-6.3,2-11,3.1c-1.8,0.4-3.3,0.8-4.9,1.3l0.1-41.2c0-3.2,1-5.9,3.2-8.1c2.2-2.2,4.9-3.2,8.3-3.2
					c2.8,0,5.1,0.8,7.2,2.3c2,1.5,3.5,3.7,4.1,6.7l0.3,29.7C344.9,302.4,344.4,304.2,343.4,305.5z"/>
				<path class="st0" d="M420,247.6c-4.5-2.7-9.5-4-14.9-4c-5.4,0-10.4,1.3-14.9,4c-4.5,2.7-8.1,6.1-10.6,10.6
					c-2.7,4.5-4,9.3-4,14.7v101.7h17.9V273.7c0-3.2,1-6,3.1-8.5s4.9-3.7,8.2-3.7c1,0,2.2,0.1,3.5,0.4c5.6,2,8.5,6,8.5,11.8v100.9
					h17.9V272.9c0-5.4-1.3-10.2-4-14.7C428.1,253.9,424.5,250.3,420,247.6z"/>
				<path class="st0" d="M464.4,233.4v-26.6h-17.9v140.8c0,5.6,1.3,10.6,4,15.2c2.7,4.5,6.3,8.1,10.8,10.8c4.5,2.6,9.3,4,14.7,4h2.7
					v-17.9h-2.4c-3.3,0-6.1-1-8.5-3.2s-3.5-5.1-3.5-9v-86.1c0-3.8,1.2-6.8,3.5-9c2.3-2.2,5.1-3.2,8.5-3.2h2.4v-17.9H476
					C471.9,231.1,468,231.8,464.4,233.4z"/>
				<path class="st0" d="M531.3,247.5c-4.4-2.6-9.5-3.8-15.4-3.8c-6.4,0-12,1.5-16.9,4.6c-4.9,3.1-8.5,7.3-10.8,12.7
					c-1.5,3.1-2.2,7.3-2.2,12.8l-0.1,72c0,5.8,1.2,11,3.5,15.6c2.3,4.6,5.6,8.2,10,10.8s9.5,4,15.6,4c5.4,0,10.4-1.2,14.9-3.3
					c4.6-2.2,8.2-5.6,11-10c2.8-4.5,4.2-9.9,4.2-16.5v-7.8h-18.1v7.4c0,3.6-1,6.5-2.9,8.8c-2,2.3-4.7,3.5-8.3,3.5
					c-3.5,0-6.3-1-8.5-3.2s-3.3-4.9-3.3-8.1v-9.5c0-3.8,1.9-6.1,5.6-7.2c7-1.7,13.2-3.3,18.4-5c5.3-1.7,9.5-4.5,12.4-8.2
					s4.6-9.3,4.7-16.9v-26.5c0-5.8-1.3-11-3.7-15.5C539.1,253.6,535.6,250.1,531.3,247.5z M525.5,305.5c-1.2,1.7-3.1,3.1-5.6,4.1
					c-2.6,1-6.3,2-11,3.1c-1.8,0.4-3.3,0.8-4.9,1.3l0.1-41.2c0-3.2,1-5.9,3.2-8.1c2.2-2.2,4.9-3.2,8.3-3.2c2.8,0,5.1,0.8,7.2,2.3
					c2,1.5,3.5,3.7,4.1,6.7l0.3,29.7C527.1,302.4,526.5,304.2,525.5,305.5z"/>
			</g>
			<path class="st1" d="M145.1,249c-9.9-2.6-7-8.8-2.8-8.8c0.4,0,0.9,0.1,1.3,0.3c2.7,1.2,20.7,6.1,32.4,14.9c0.9,0.6,2,1.2,3.2,1.2
				h0.1c1.8,0,4-0.9,4.4-4.9c0.5-6.9-11.7-14.6-16.8-17.3s-11.3-2.6-8.6-5.4c2.8-2.8,12.8-6,12.8-9.5s-16.9-17.7-26.3-17.7
				c-9.3,0-10.4-7.9-11.7-10c-1.3-2-9.2-13.8-19.3-13.8s-18.2,7.9-18.2,13.4s0.6,13.3-3.8,13.3c-4.4,0-3.8-7.8-3.8-13.3
				c0-5.5-8.1-13.4-18.2-13.4s-18.1,11.8-19.3,13.8s-2.3,10-11.7,10c-9.3,0-26.3,14.2-26.3,17.7s10,6.5,12.8,9.5
				c2.8,2.8-3.3,2.7-8.6,5.4C11.7,237-0.5,244.5,0,251.6c0.3,4.1,2.6,4.9,4.4,4.9h0.1c1.2,0,2.3-0.5,3.2-1.2
				c11.5-8.7,29.7-13.6,32.4-14.9c0.4-0.1,0.9-0.3,1.3-0.3c4.1,0,7,6.3-2.8,8.8c-24.8,5.6-39.3,20.6-38.4,32.3
				c0.9,11.5,5.3,19.5,9.5,19.5c0,0,0,0,0.1,0c4.4-0.1,11.7-11.5,14-14.5c2-2.7,3.6-2.8,3.8-2.8l0,0c0,0,1.9,0.9,4.4,0.9
				c0.9,0,1.8-0.1,2.7-0.4c8.3-3.7,5.1-8.3,9-12c1.2-1,2.6-1.5,4-1.5c3.6,0,7.2,2.7,4.6,5.1c-3.5,3.5-5.4,12-3.2,15.6
				c2.2,3.5,1.2,9.1-1.7,9.1c-2.7,0-3.3-2-7.3-7.2c-1.7-2.2-3.8-2.8-5.8-2.8c-2.6,0-4.7,1.2-4.7,1.2s-16.7,13.2-16.7,19.7
				c0,3.2,1.2,3.5,2.3,6.9c-3.1,11,4,21.3,11.3,21.3c7.3,0,9.3-8.8,11.1-11.3c1.4-2,3.8-5.8,7.7-5.8c0.8,0,1.7,0.1,2.6,0.5
				c5.4,2,1,7.3,1,7.3s-20.4,16.5-13.4,31.1c5.9,12.6,12.6,13.4,27,13.4c2.3,0,4.9,0,7.6,0c20.1,0,18.1-36.2,18.1-36.2s0-4.7,0-21.5
				c0-13.1-1.5-26.8-2.3-32.4c-0.3-1.7,0.8-3.3,2.4-3.8c1-0.4,2.3-0.6,3.8-0.6c1.5,0,2.8,0.3,3.8,0.6c1.7,0.5,2.7,2.2,2.4,3.8
				c-0.8,5.5-2.3,19.3-2.3,32.4c0,16.8,0,21.5,0,21.5s-2,36.2,18.1,36.2c2.7,0,5.3,0,7.6,0c14.5,0,21-0.9,27-13.4
				c6.9-14.6-13.4-31.1-13.4-31.1s-4.4-5.3,1-7.3c0.9-0.4,1.8-0.5,2.6-0.5c3.8,0,6.3,3.7,7.7,5.8c1.8,2.4,3.8,11.3,11.1,11.3
				c7.3,0,14.3-10.2,11.3-21.3c1.3-3.3,2.3-3.7,2.3-6.9c0-6.4-16.7-19.7-16.7-19.7s-2.2-1.2-4.7-1.2c-1.9,0-4.1,0.6-5.8,2.8
				c-4,5.1-4.6,7.2-7.3,7.2c-2.7,0-3.8-5.5-1.7-9.1c2.2-3.5,0.3-12.2-3.2-15.6c-2.6-2.4,1-5.1,4.6-5.1c1.4,0,2.9,0.4,4,1.5
				c3.8,3.7,0.6,8.3,9,12c0.9,0.4,1.8,0.4,2.7,0.4c2.4,0,4.4-0.9,4.4-0.9l0,0c0.3,0,1.8,0.1,3.8,2.8c2.2,2.8,9.6,14.3,14,14.5
				c0,0,0,0,0.1,0c4.2,0,8.7-7.9,9.5-19.5C184.4,269.7,170.1,254.6,145.1,249z M24.2,271.3c-1.9,2.4-3.5,5-5.4,5
				c-0.6,0-1.3-0.3-2-0.9c-2.7-2.3,4.2-9.9,12-9.9c1,0,2,0.1,3.1,0.4C32,266,26.8,268.2,24.2,271.3z M42.5,219
				c-3.3-1.2-11.4-0.1-11.4-4.7c0-4.4,5.5-4.5,6.1-4.5l0,0c0,0,5.3,0.3,9.3,4.9c0.9,1,1.9,1.4,3.1,1.4c5.3,0,12.4-8.7,12.7-10.5
				c0.4-2.2,1.8-9.9,6.3-9.9c4.4,0,4.9,7,2.2,13.6c-2.7,6.4-3.5,7.6-4,14.2c-0.3,3.3-1.9,4.7-3.7,4.7c-1.8,0-3.7-1.4-4.4-3.7
				c-0.4-1.4-1.2-1.8-1.9-1.8c-2.2,0-5.5,3.1-8.1,3.1C45.2,225.8,45.9,220,42.5,219z M46.8,257.4c0.6-0.8,1.5-1.2,2.6-1.2
				c0.1,0,0.4,0,0.5,0c0.5,0.1,1,0.1,1.8,0.1c2.9,0,7.2-1,8.3-6.9c1.7-7.8,9.3-15.6,13.7-15.6c0.8,0,1.4,0.3,1.9,0.8
				c3.3,3.5-6,8.1-7.3,15.8c-1.3,7.8-2.2,14-11.5,14C48.9,264.2,44.8,260.1,46.8,257.4z M74.8,294.3c-3.1,4.1-6.3,6.5-6.3,6.5
				s-2.3,1.5-1.4,7.9c0.9,6.9,3.7,40.7-1.3,48c-0.8,1.2-2.4,1.8-4.1,1.8c-4.2,0-9-3.6-4.7-10.8c6-10,6.3-21.3,4.4-30.1
				c-1.8-8.8-2.3-27.4,8.3-32.1c1.2-0.4,2-0.5,2.7-0.5c2.8,0,3.5,2,3.5,2S77.5,290.7,74.8,294.3z M98,270c-1.4,0.1-3.3,0.4-6.1,0.4
				s-4.7-0.1-6.1-0.4c-1.8-0.3-3.1-1.8-3.1-3.6c0.3-45.1,8.2-46.5,9.1-46.5h0.1l0,0l0,0l0,0l0,0c0,0,0,0,0.1,0c1,0,8.8,1.4,9.1,46.5
				C101.1,268.2,99.8,269.9,98,270z M114.9,195.7c4.4,0,5.8,7.7,6.3,9.9c0.4,1.8,7.4,10.5,12.7,10.5c1.2,0,2.2-0.4,3.1-1.4
				c4.1-4.5,9.3-4.9,9.3-4.9l0,0c0.6,0,6.1,0.1,6.1,4.5c0,4.6-8.1,3.7-11.4,4.7c-3.3,1.2-2.7,6.8-6.3,6.8c-2.6,0-5.9-3.1-8.1-3.1
				c-0.9,0-1.5,0.5-1.9,1.8c-0.6,2.3-2.6,3.7-4.4,3.7s-3.5-1.4-3.7-4.7c-0.5-6.7-1.4-7.8-4-14.2C110,202.9,110.5,195.7,114.9,195.7z
				 M121.7,358.5c-1.7,0-3.2-0.6-4.1-1.8c-5-7.3-2.2-41.1-1.3-48c0.9-6.4-1.4-7.9-1.4-7.9s-3.2-2.4-6.3-6.5
				c-2.7-3.6-1.2-7.2-1.2-7.2s0.5-2,3.5-2c0.8,0,1.7,0.1,2.7,0.5c10.5,4.7,10.1,23.4,8.3,32.1c-1.8,8.8-1.7,20,4.4,30.1
				C130.8,354.9,125.9,358.5,121.7,358.5z M126.8,264.2c-9.3,0-10.2-6.1-11.5-14c-1.3-7.8-10.6-12.3-7.3-15.8
				c0.5-0.5,1.2-0.8,1.9-0.8c4.4,0,12.2,7.8,13.7,15.6c1.2,5.9,5.4,6.9,8.3,6.9c0.6,0,1.3,0,1.8-0.1c0.1,0,0.4,0,0.5,0
				c1,0,1.9,0.4,2.6,1.2C138.7,260.1,134.6,264.2,126.8,264.2z M166.8,275.5c-0.8,0.6-1.4,0.9-2,0.9c-1.9,0-3.5-2.7-5.4-5
				c-2.6-3.2-7.8-5.4-7.8-5.4c1-0.3,2-0.4,3.1-0.4C162.5,265.5,169.5,273.2,166.8,275.5z"/>
		</g>
		<g>
			<g>
				<path class="st2" d="M56.4,417.9c1,0.4,1.7,1,2.2,1.8c0.5,0.8,0.8,1.8,0.8,2.8c0,1.2-0.3,2-0.8,2.8c-0.5,0.8-1.3,1.4-2.2,1.9
					c-1,0.4-2,0.6-3.5,0.6h-3.5v4.4h-2.8v-15.1h6.1C54.3,417.3,55.3,417.5,56.4,417.9z M55.6,424.8c0.6-0.5,0.9-1.3,0.9-2.2
					c0-0.9-0.3-1.7-0.9-2.2c-0.6-0.5-1.5-0.8-2.8-0.8h-3.3v6h3.3C54.1,425.6,55,425.4,55.6,424.8z"/>
				<path class="st2" d="M67.9,432.1c-1-0.4-1.9-0.8-2.6-1.3l1-2.2c0.6,0.5,1.4,0.9,2.3,1.2c0.9,0.3,1.8,0.5,2.7,0.5
					c1.2,0,1.9-0.1,2.6-0.5c0.5-0.4,0.8-0.8,0.8-1.4c0-0.4-0.1-0.8-0.5-1c-0.3-0.3-0.6-0.5-1.2-0.6s-1.2-0.4-1.9-0.5
					c-1.2-0.3-2-0.5-2.8-0.8c-0.8-0.3-1.3-0.6-1.8-1.3c-0.5-0.6-0.8-1.4-0.8-2.3c0-0.8,0.3-1.5,0.6-2.3c0.5-0.6,1.2-1.3,2-1.7
					c0.9-0.4,2-0.6,3.3-0.6c0.9,0,1.8,0.1,2.7,0.4c0.9,0.3,1.7,0.5,2.3,1l-0.9,2.2c-0.6-0.4-1.4-0.6-2-0.9c-0.8-0.3-1.4-0.3-2-0.3
					c-1.2,0-1.9,0.1-2.4,0.5s-0.8,0.9-0.8,1.5c0,0.4,0.1,0.8,0.5,1c0.3,0.3,0.6,0.5,1.2,0.6c0.5,0.1,1.2,0.4,1.9,0.5
					c1.2,0.3,2,0.5,2.7,0.8c0.8,0.3,1.3,0.8,1.8,1.3c0.5,0.5,0.8,1.4,0.8,2.3c0,0.9-0.3,1.5-0.6,2.3c-0.5,0.6-1.2,1.2-2,1.7
					c-0.9,0.4-2,0.6-3.3,0.6C70.1,432.5,68.9,432.4,67.9,432.1z"/>
				<path class="st2" d="M84.4,417.3h2.8v15.1h-2.8V417.3z"/>
				<path class="st2" d="M98.3,431.6c-1.3-0.6-2.2-1.5-2.9-2.8c-0.6-1.2-1-2.6-1-4c0-1.5,0.4-2.8,1-4c0.6-1.2,1.7-2,2.9-2.8
					c1.3-0.8,2.6-1,4.1-1c1.3,0,2.3,0.3,3.3,0.6c1,0.4,1.9,1,2.6,1.9l-1.8,1.7c-1.2-1.2-2.4-1.8-4-1.8c-1,0-1.9,0.3-2.8,0.6
					c-0.8,0.5-1.4,1-1.9,1.9c-0.5,0.9-0.6,1.7-0.6,2.7c0,1,0.3,1.9,0.6,2.7c0.5,0.8,1.2,1.4,1.9,1.9c0.8,0.5,1.8,0.6,2.8,0.6
					c1.5,0,2.9-0.6,4-1.8l1.8,1.7c-0.6,0.8-1.5,1.4-2.6,1.9c-1,0.4-2.2,0.6-3.3,0.6C100.9,432.5,99.5,432.3,98.3,431.6z"/>
				<path class="st2" d="M117.7,431.6c-1.3-0.6-2.2-1.5-2.9-2.8c-0.6-1.2-1-2.6-1-4s0.4-2.8,1-4c0.6-1.2,1.7-2,2.9-2.8
					c1.3-0.6,2.6-1,4.1-1s2.9,0.4,4.1,1c1.3,0.6,2.2,1.5,2.9,2.8c0.6,1.2,1,2.6,1,4c0,1.5-0.4,2.8-1,4c-0.6,1.2-1.7,2-2.9,2.8
					c-1.3,0.6-2.6,1-4.1,1C120.4,432.5,119,432.3,117.7,431.6z M124.6,429.5c0.8-0.5,1.4-1,1.9-1.9c0.5-0.8,0.6-1.7,0.6-2.7
					c0-1-0.3-1.9-0.6-2.7c-0.5-0.8-1.2-1.4-1.9-1.9c-0.8-0.5-1.7-0.6-2.7-0.6s-1.9,0.3-2.7,0.6c-0.8,0.5-1.4,1-1.9,1.9
					c-0.5,0.8-0.6,1.7-0.6,2.7c0,1,0.3,1.9,0.6,2.7c0.5,0.8,1.2,1.4,1.9,1.9c0.8,0.5,1.7,0.6,2.7,0.6
					C122.8,430.1,123.7,430,124.6,429.5z M123,413.2h3.2l-3.7,2.9h-2.3L123,413.2z"/>
				<path class="st2" d="M137.2,417.3h2.8V430h7.8v2.3h-10.6V417.3z"/>
				<path class="st2" d="M156.8,431.6c-1.3-0.6-2.2-1.5-2.9-2.8c-0.6-1.2-1-2.6-1-4s0.4-2.8,1-4c0.6-1.2,1.7-2,2.9-2.8
					c1.3-0.6,2.6-1,4.1-1c1.5,0,2.9,0.4,4.1,1c1.3,0.6,2.2,1.5,2.9,2.8c0.6,1.2,1,2.6,1,4c0,1.5-0.4,2.8-1,4c-0.6,1.2-1.7,2-2.9,2.8
					c-1.3,0.6-2.6,1-4.1,1C159.5,432.5,158.1,432.3,156.8,431.6z M163.7,429.5c0.8-0.5,1.4-1,1.9-1.9c0.5-0.8,0.6-1.7,0.6-2.7
					c0-1-0.3-1.9-0.6-2.7c-0.5-0.8-1.2-1.4-1.9-1.9c-0.8-0.5-1.7-0.6-2.7-0.6s-1.9,0.3-2.7,0.6c-0.8,0.5-1.4,1-1.9,1.9
					c-0.5,0.8-0.6,1.7-0.6,2.7c0,1,0.3,1.9,0.6,2.7c0.5,0.8,1.2,1.4,1.9,1.9s1.7,0.6,2.7,0.6C161.9,430.1,162.8,430,163.7,429.5z"/>
				<path class="st2" d="M186.6,424.7h2.7v6c-0.8,0.6-1.7,1.2-2.7,1.4s-2,0.5-3.2,0.5c-1.5,0-2.9-0.4-4.1-1
					c-1.3-0.6-2.2-1.5-2.9-2.8c-0.6-1.2-1-2.6-1-4c0-1.5,0.4-2.8,1-4c0.6-1.2,1.7-2,2.9-2.8c1.3-0.8,2.7-1,4.2-1
					c1.3,0,2.4,0.3,3.5,0.6s1.9,1,2.6,1.8l-1.8,1.7c-1.2-1.2-2.6-1.7-4.1-1.7c-1,0-2,0.3-2.8,0.6c-0.8,0.4-1.4,1-1.9,1.9
					c-0.5,0.8-0.6,1.7-0.6,2.7c0,1,0.3,1.9,0.6,2.7c0.5,0.8,1.2,1.4,1.9,1.9c0.8,0.5,1.8,0.6,2.8,0.6c1.2,0,2.2-0.3,3.1-0.8v-4.5
					H186.6z"/>
				<path class="st2" d="M199.9,431.6c-1.3-0.6-2.2-1.5-2.9-2.8c-0.6-1.2-1-2.6-1-4s0.4-2.8,1-4c0.6-1.2,1.7-2,2.9-2.8
					c1.3-0.6,2.6-1,4.1-1c1.5,0,2.9,0.4,4.1,1c1.3,0.6,2.2,1.5,2.9,2.8c0.6,1.2,1,2.6,1,4c0,1.5-0.4,2.8-1,4c-0.6,1.2-1.7,2-2.9,2.8
					c-1.3,0.6-2.6,1-4.1,1C202.5,432.5,201.1,432.3,199.9,431.6z M206.7,429.5c0.8-0.5,1.4-1,1.9-1.9c0.5-0.8,0.6-1.7,0.6-2.7
					c0-1-0.3-1.9-0.6-2.7c-0.5-0.8-1.2-1.4-1.9-1.9c-0.8-0.5-1.7-0.6-2.7-0.6s-1.9,0.3-2.7,0.6c-0.8,0.5-1.4,1-1.9,1.9
					c-0.5,0.8-0.6,1.7-0.6,2.7c0,1,0.3,1.9,0.6,2.7c0.5,0.8,1.2,1.4,1.9,1.9s1.7,0.6,2.7,0.6S206,430,206.7,429.5z"/>
				<path class="st2" d="M220.7,432.1c-1-0.4-1.9-0.8-2.6-1.3l1-2.2c0.6,0.5,1.4,0.9,2.3,1.2c0.9,0.3,1.8,0.5,2.7,0.5
					c1.2,0,1.9-0.1,2.6-0.5c0.5-0.4,0.8-0.8,0.8-1.4c0-0.4-0.1-0.8-0.5-1c-0.3-0.3-0.6-0.5-1.2-0.6s-1.2-0.4-1.9-0.5
					c-1.2-0.3-2-0.5-2.8-0.8s-1.3-0.6-1.8-1.3c-0.5-0.6-0.8-1.4-0.8-2.3c0-0.8,0.3-1.5,0.6-2.3c0.5-0.6,1.2-1.3,2-1.7
					c0.9-0.4,2-0.6,3.3-0.6c0.9,0,1.8,0.1,2.7,0.4c0.9,0.3,1.7,0.5,2.3,1l-0.9,2.2c-0.6-0.4-1.4-0.6-2-0.9c-0.8-0.3-1.4-0.3-2-0.3
					c-1.2,0-1.9,0.1-2.4,0.5c-0.5,0.4-0.8,0.9-0.8,1.5c0,0.4,0.1,0.8,0.5,1c0.3,0.3,0.6,0.5,1.2,0.6c0.5,0.1,1.2,0.4,1.9,0.5
					c1.2,0.3,2,0.5,2.7,0.8c0.8,0.3,1.3,0.8,1.8,1.3c0.5,0.5,0.8,1.4,0.8,2.3c0,0.9-0.3,1.5-0.6,2.3c-0.5,0.6-1.2,1.2-2,1.7
					c-0.9,0.4-2,0.6-3.3,0.6C222.9,432.5,221.7,432.4,220.7,432.1z"/>
				<path class="st2" d="M258.7,430v2.3h-11.3v-15.1h11v2.3h-8.2v4h7.3v2.3h-7.3v4.1h8.5V430z"/>
				<path class="st2" d="M267.4,432.1c-1-0.4-1.9-0.8-2.6-1.3l1-2.2c0.6,0.5,1.4,0.9,2.3,1.2c0.9,0.3,1.8,0.5,2.7,0.5
					c1.2,0,1.9-0.1,2.6-0.5c0.5-0.4,0.8-0.8,0.8-1.4c0-0.4-0.1-0.8-0.5-1c-0.3-0.3-0.6-0.5-1.2-0.6c-0.5-0.1-1.2-0.4-1.9-0.5
					c-1.2-0.3-2-0.5-2.8-0.8c-0.8-0.3-1.3-0.6-1.8-1.3c-0.5-0.6-0.8-1.4-0.8-2.3c0-0.8,0.3-1.5,0.6-2.3c0.5-0.6,1.2-1.3,2-1.7
					c0.9-0.4,2-0.6,3.3-0.6c0.9,0,1.8,0.1,2.7,0.4c0.9,0.3,1.7,0.5,2.3,1l-0.9,2.2c-0.6-0.4-1.4-0.6-2-0.9c-0.8-0.3-1.4-0.3-2-0.3
					c-1.2,0-1.9,0.1-2.4,0.5c-0.5,0.4-0.8,0.9-0.8,1.5c0,0.4,0.1,0.8,0.5,1c0.3,0.3,0.6,0.5,1.2,0.6s1.2,0.4,1.9,0.5
					c1.2,0.3,2,0.5,2.8,0.8c0.8,0.3,1.3,0.8,1.8,1.3c0.5,0.5,0.8,1.4,0.8,2.3c0,0.9-0.3,1.5-0.6,2.3c-0.5,0.6-1.2,1.2-2,1.7
					c-0.9,0.4-2,0.6-3.3,0.6C269.6,432.5,268.5,432.4,267.4,432.1z"/>
				<path class="st2" d="M293.6,417.9c1,0.4,1.7,1,2.2,1.8c0.5,0.8,0.8,1.8,0.8,2.8c0,1.2-0.3,2-0.8,2.8c-0.5,0.8-1.3,1.4-2.2,1.9
					c-1,0.4-2,0.6-3.5,0.6h-3.5v4.4h-2.8v-15.1h6.1C291.4,417.3,292.5,417.5,293.6,417.9z M292.8,424.8c0.6-0.5,0.9-1.3,0.9-2.2
					c0-0.9-0.3-1.7-0.9-2.2s-1.5-0.8-2.8-0.8h-3.3v6h3.3C291.3,425.6,292.2,425.4,292.8,424.8z"/>
				<path class="st2" d="M314.7,430v2.3h-11.3v-15.1h11v2.3h-8.2v4h7.3v2.3h-7.3v4.1h8.5V430z"/>
				<path class="st2" d="M324.4,431.6c-1.3-0.6-2.2-1.5-2.8-2.8c-0.6-1.2-1-2.6-1-4c0-1.5,0.4-2.8,1-4c0.6-1.2,1.7-2,2.9-2.8
					c1.3-0.6,2.6-1,4.1-1c1.3,0,2.3,0.3,3.3,0.6c1,0.4,1.9,1,2.6,1.9l-1.8,1.7c-1.2-1.2-2.4-1.8-4-1.8c-1,0-1.9,0.3-2.8,0.6
					c-0.8,0.5-1.4,1-1.9,1.9c-0.5,0.8-0.6,1.7-0.6,2.7c0,1,0.3,1.9,0.6,2.7c0.5,0.8,1.2,1.4,1.9,1.9c0.8,0.5,1.8,0.6,2.8,0.6
					c1.5,0,2.9-0.6,4-1.8l1.8,1.7c-0.6,0.8-1.5,1.4-2.6,1.9c-1,0.4-2.2,0.6-3.3,0.6C327.1,432.5,325.7,432.3,324.4,431.6z"/>
				<path class="st2" d="M341.3,417.3h2.8v15.1h-2.8V417.3z"/>
				<path class="st2" d="M362.2,428.9h-7.6l-1.5,3.5h-2.9l6.8-15.1h2.7l6.8,15.1h-2.9L362.2,428.9z M361.3,426.6l-2.8-6.5l-2.8,6.5
					H361.3z"/>
				<path class="st2" d="M372.9,417.3h2.8V430h7.8v2.3h-10.6V417.3z"/>
				<path class="st2" d="M389.9,417.3h2.8v15.1h-2.8V417.3z"/>
				<path class="st2" d="M412.4,430v2.3h-12.8v-1.9l8.8-10.8h-8.7v-2.3h12.4v1.9l-8.8,10.8H412.4z"/>
				<path class="st2" d="M429.7,428.9h-7.6l-1.5,3.5h-2.9l6.8-15.1h2.7l6.8,15.1H431L429.7,428.9z M428.8,426.6l-2.8-6.5l-2.8,6.5
					H428.8z"/>
				<path class="st2" d="M440.3,417.3h6.5c1.7,0,3.1,0.3,4.2,0.9c1.3,0.6,2.2,1.5,2.9,2.7c0.6,1.2,1,2.4,1,4s-0.4,2.8-1,4
					c-0.6,1.2-1.7,2-2.9,2.7c-1.3,0.6-2.7,0.9-4.2,0.9h-6.5V417.3z M446.8,430c1.2,0,2-0.3,2.9-0.6s1.5-1,1.9-1.8
					c0.5-0.8,0.6-1.7,0.6-2.7c0-1-0.3-1.9-0.6-2.7c-0.5-0.8-1.2-1.4-1.9-1.8c-0.9-0.4-1.8-0.6-2.9-0.6H443v10.4h3.7V430z"/>
				<path class="st2" d="M465.3,431.6c-1.3-0.6-2.2-1.5-2.9-2.8c-0.6-1.2-1-2.6-1-4s0.4-2.8,1-4c0.6-1.2,1.7-2,2.9-2.8
					c1.3-0.8,2.6-1,4.1-1s2.9,0.4,4.1,1c1.2,0.6,2.2,1.5,2.9,2.8c0.6,1.2,1,2.6,1,4c0,1.5-0.4,2.8-1,4c-0.6,1.2-1.7,2-2.9,2.8
					c-1.3,0.6-2.6,1-4.1,1C467.9,432.5,466.5,432.3,465.3,431.6z M472.1,429.5c0.8-0.5,1.4-1,1.9-1.9c0.5-0.8,0.6-1.7,0.6-2.7
					c0-1-0.3-1.9-0.6-2.7c-0.5-0.8-1.2-1.4-1.9-1.9c-0.8-0.5-1.7-0.6-2.7-0.6c-1,0-1.9,0.3-2.7,0.6c-0.8,0.5-1.4,1-1.9,1.9
					c-0.5,0.8-0.6,1.7-0.6,2.7c0,1,0.3,1.9,0.6,2.7c0.5,0.8,1.2,1.4,1.9,1.9c0.8,0.5,1.7,0.6,2.7,0.6S471.3,430,472.1,429.5z"/>
				<path class="st2" d="M485.9,432.1c-1-0.4-1.9-0.8-2.6-1.3l1-2.2c0.6,0.5,1.4,0.9,2.3,1.2c0.9,0.3,1.8,0.5,2.7,0.5
					c1.2,0,1.9-0.1,2.6-0.5c0.5-0.4,0.8-0.8,0.8-1.4c0-0.4-0.1-0.8-0.5-1c-0.3-0.3-0.6-0.5-1.2-0.6s-1.2-0.4-1.9-0.5
					c-1.2-0.3-2-0.5-2.8-0.8c-0.8-0.3-1.3-0.6-1.8-1.3c-0.5-0.6-0.8-1.4-0.8-2.3c0-0.8,0.3-1.5,0.6-2.3c0.5-0.6,1.2-1.3,2-1.7
					c0.9-0.4,2-0.6,3.3-0.6c0.9,0,1.8,0.1,2.7,0.4c0.9,0.3,1.7,0.5,2.3,1l-0.9,2.2c-0.6-0.4-1.4-0.6-2-0.9c-0.8-0.3-1.4-0.3-2-0.3
					c-1.2,0-1.9,0.1-2.4,0.5s-0.8,0.9-0.8,1.5c0,0.4,0.1,0.8,0.5,1c0.3,0.3,0.6,0.5,1.2,0.6c0.5,0.1,1.2,0.4,1.9,0.5
					c1.2,0.3,2,0.5,2.7,0.8c0.8,0.3,1.3,0.8,1.8,1.3c0.5,0.5,0.8,1.4,0.8,2.3c0,0.9-0.3,1.5-0.6,2.3c-0.5,0.6-1.2,1.2-2,1.7
					c-0.9,0.4-2,0.6-3.3,0.6C488.2,432.5,487.1,432.4,485.9,432.1z"/>
			</g>
		</g>
	</g>
</g>
</svg>
